<svg xmlns="http://www.w3.org/2000/svg" width="128" height="128" viewBox="0 0 128 128">
  <title>AIR CONDITIONER</title>
  <g>
    <path d="M116.691,21.433H11.309a6.76,6.76,0,0,0-6.752,6.752V75.308a6.76,6.76,0,0,0,6.752,6.752H116.691a6.76,6.76,0,0,0,6.752-6.752V28.185A6.76,6.76,0,0,0,116.691,21.433Zm-7.7,3.5-3.526,6.189H22.533l-3.526-6.189Zm10.95,50.375a3.256,3.256,0,0,1-3.252,3.252H11.309a3.256,3.256,0,0,1-3.252-3.252V28.185a3.256,3.256,0,0,1,3.252-3.252h3.67L20,33.738a1.749,1.749,0,0,0,1.521.884h84.968a1.75,1.75,0,0,0,1.521-.884l5.016-8.8h3.67a3.256,3.256,0,0,1,3.252,3.252Z"/>
    <path d="M112,59.078H16a1.75,1.75,0,0,0-1.75,1.75v9.793A1.751,1.751,0,0,0,16,72.371H112a1.75,1.75,0,0,0,1.75-1.75V60.828A1.749,1.749,0,0,0,112,59.078Zm-62.256,3.5h12.5v6.293h-12.5Zm-3.5,6.293h-12.5V62.578h12.5Zm19.5-6.293h12.5v6.293H65.75Zm16,0h12.5v6.293h-12.5Zm-64.005,0h12.5v6.293h-12.5Zm92.508,6.293h-12.5V62.578h12.5Z"/>
    <path d="M89.752,90.09a1.75,1.75,0,0,0-3.5,0c0,9.625,2.28,15.172,2.377,15.4a1.75,1.75,0,0,0,3.229-1.35C91.838,104.093,89.752,98.948,89.752,90.09Z"/>
    <path d="M105.753,90.09a1.75,1.75,0,0,0-3.5,0c0,9.907,4.692,15.614,4.891,15.851a1.75,1.75,0,1,0,2.682-2.249C109.785,103.644,105.753,98.737,105.753,90.09Z"/>
    <path d="M72,88.34a1.749,1.749,0,0,0-1.75,1.75v14.727a1.75,1.75,0,0,0,3.5,0V90.09A1.749,1.749,0,0,0,72,88.34Z"/>
    <path d="M40,88.34a1.75,1.75,0,0,0-1.75,1.75c0,8.828-2.071,13.969-2.106,14.054a1.75,1.75,0,0,0,3.229,1.35c.1-.232,2.377-5.779,2.377-15.4A1.75,1.75,0,0,0,40,88.34Z"/>
    <path d="M24,88.34a1.749,1.749,0,0,0-1.75,1.75c0,8.526-4,13.51-4.077,13.607a1.75,1.75,0,0,0,2.685,2.244c.2-.237,4.892-5.944,4.892-15.851A1.75,1.75,0,0,0,24,88.34Z"/>
    <path d="M56,88.34a1.75,1.75,0,0,0-1.75,1.75v14.727a1.75,1.75,0,0,0,3.5,0V90.09A1.749,1.749,0,0,0,56,88.34Z"/>
  </g>
</svg>
