<svg xmlns="http://www.w3.org/2000/svg" width="128" height="128" viewBox="0 0 128 128">
  <title>BEVERAGE</title>
  <g>
    <path d="M44.153,16.75A1.749,1.749,0,0,0,45.9,15V12.38a1.75,1.75,0,0,0-3.5,0V15A1.75,1.75,0,0,0,44.153,16.75Z"/>
    <path d="M97.027,20.339a1.751,1.751,0,0,0-1.7-1.329H60.257a16.2,16.2,0,1,0-20.3,17.4c-.92,10.115-1.018,23.75,2.444,37.216a94.365,94.365,0,0,1,1.5,41.7,6.755,6.755,0,0,0,6.6,8.124H88.977a6.755,6.755,0,0,0,6.606-8.125,94.36,94.36,0,0,1,1.5-41.695C103.7,47.859,97.3,21.45,97.027,20.339Zm-65.576.421a12.7,12.7,0,0,1,25.27-1.75H44.153a1.749,1.749,0,0,0-1.7,1.329,109.288,109.288,0,0,0-2.129,12.528A12.622,12.622,0,0,1,31.451,20.76ZM93.69,72.752a97.925,97.925,0,0,0-1.536,43.266,3.28,3.28,0,0,1-.672,2.738,3.219,3.219,0,0,1-2.5,1.187H50.5a3.22,3.22,0,0,1-2.5-1.187,3.277,3.277,0,0,1-.672-2.738,97.91,97.91,0,0,0-1.536-43.266c-5.579-21.7-1.432-44.568-.235-50.242H93.925C95.122,28.184,99.269,51.052,93.69,72.752Z"/>
    <path d="M38.394,19.01H35.773a1.75,1.75,0,0,0,0,3.5h2.621a1.75,1.75,0,0,0,0-3.5Z"/>
    <path d="M92.06,39.025a1.765,1.765,0,0,0-1.469-.272c-8.659,2.284-12.362.7-16.65-1.122a26.723,26.723,0,0,0-11.45-2.7A27.582,27.582,0,0,0,47.45,39.016a1.752,1.752,0,0,0-.737,1.315A100.821,100.821,0,0,0,49.181,71.88a106.218,106.218,0,0,1,3.255,21.835,17.324,17.324,0,0,0,34.608,0A106.257,106.257,0,0,1,90.3,71.88a100.794,100.794,0,0,0,2.484-31.549A1.751,1.751,0,0,0,92.06,39.025ZM86.91,71.009a109.754,109.754,0,0,0-3.363,22.556,13.823,13.823,0,0,1-27.613,0A109.728,109.728,0,0,0,52.57,71.009a96.623,96.623,0,0,1-2.42-29.552,25.373,25.373,0,0,1,12.341-3.026,23.126,23.126,0,0,1,10.078,2.42c4.145,1.765,8.419,3.589,16.841,1.784A95.585,95.585,0,0,1,86.91,71.009Z"/>
    <path d="M69.383,53.35A6.747,6.747,0,1,0,62.636,60.1,6.754,6.754,0,0,0,69.383,53.35ZM62.636,56.6a3.247,3.247,0,1,1,3.247-3.247A3.251,3.251,0,0,1,62.636,56.6Z"/>
    <path d="M75.529,63.982a5.589,5.589,0,1,0,5.589,5.588A5.595,5.595,0,0,0,75.529,63.982Zm0,7.677a2.089,2.089,0,1,1,2.089-2.089A2.091,2.091,0,0,1,75.529,71.659Z"/>
    <path d="M69.748,83.456A6.747,6.747,0,1,0,76.5,90.2,6.754,6.754,0,0,0,69.748,83.456Zm0,9.994A3.247,3.247,0,1,1,73,90.2,3.251,3.251,0,0,1,69.748,93.45Z"/>
  </g>
</svg>
