<svg xmlns="http://www.w3.org/2000/svg" width="128" height="128" viewBox="0 0 128 128">
  <title>BILL</title>
  <g>
    <path d="M28.6,125.75H80.868a11.027,11.027,0,0,0,11.014-11.015V24.279h14.25A4.285,4.285,0,0,0,110.412,20V13.265A11.027,11.027,0,0,0,99.4,2.25H37.868A11.027,11.027,0,0,0,26.853,13.265v90.456H21.868A4.285,4.285,0,0,0,17.588,108v6.735A11.027,11.027,0,0,0,28.6,125.75ZM106.912,13.265V20a.78.78,0,0,1-.78.779H91.882V13.265a7.515,7.515,0,0,1,15.03,0Zm-76.559,0A7.523,7.523,0,0,1,37.868,5.75H91.351a11.1,11.1,0,0,0-2.969,7.515v101.47a7.515,7.515,0,1,1-15.029,0V108a4.284,4.284,0,0,0-4.279-4.279H30.353ZM21.088,108a.78.78,0,0,1,.78-.779H69.074a.78.78,0,0,1,.779.779v6.735a11.106,11.106,0,0,0,2.969,7.515H28.6a7.523,7.523,0,0,1-7.515-7.515Z"/>
    <path d="M62,32.576H56.734a.618.618,0,0,1-.618-.618,1.75,1.75,0,0,0-3.5,0,4.122,4.122,0,0,0,4.118,4.118h.882v.749a1.75,1.75,0,0,0,3.5,0v-.749H62a4.123,4.123,0,0,0,4.119-4.118V29.57A4.124,4.124,0,0,0,62,25.452H56.734a.618.618,0,0,1-.618-.618V22.447a.618.618,0,0,1,.618-.618H62a.619.619,0,0,1,.619.618,1.75,1.75,0,1,0,3.5,0A4.124,4.124,0,0,0,62,18.329h-.885v-.752a1.75,1.75,0,1,0-3.5,0v.752h-.882a4.123,4.123,0,0,0-4.118,4.118v2.387a4.123,4.123,0,0,0,4.118,4.118H62a.619.619,0,0,1,.619.618v2.388A.619.619,0,0,1,62,32.576Z"/>
    <path d="M52.679,46a1.75,1.75,0,0,0,1.75,1.75H80.635a1.75,1.75,0,0,0,0-3.5H54.429A1.75,1.75,0,0,0,52.679,46Z"/>
    <path d="M80.635,53.431H54.429a1.75,1.75,0,0,0,0,3.5H80.635a1.75,1.75,0,0,0,0-3.5Z"/>
    <path d="M80.635,62.609H54.429a1.75,1.75,0,0,0,0,3.5H80.635a1.75,1.75,0,1,0,0-3.5Z"/>
    <path d="M80.635,71.787H54.429a1.75,1.75,0,0,0,0,3.5H80.635a1.75,1.75,0,1,0,0-3.5Z"/>
    <path d="M80.635,80.966H54.429a1.75,1.75,0,1,0,0,3.5H80.635a1.75,1.75,0,0,0,0-3.5Z"/>
    <path d="M82.385,91.894a1.749,1.749,0,0,0-1.75-1.75H54.429a1.75,1.75,0,0,0,0,3.5H80.635A1.75,1.75,0,0,0,82.385,91.894Z"/>
    <path d="M45.605,44.253H39.773a3.427,3.427,0,0,0-3.423,3.423v5.832a3.427,3.427,0,0,0,3.423,3.423h5.832a3.426,3.426,0,0,0,3.423-3.423V47.676A3.426,3.426,0,0,0,45.605,44.253Zm-.077,9.178H39.85V47.753h5.678Z"/>
    <path d="M45.605,62.609H39.773a3.427,3.427,0,0,0-3.423,3.423v5.832a3.427,3.427,0,0,0,3.423,3.423h5.832a3.426,3.426,0,0,0,3.423-3.423V66.032A3.427,3.427,0,0,0,45.605,62.609Zm-.077,9.178H39.85V66.109h5.678Z"/>
    <path d="M45.605,80.966H39.773a3.427,3.427,0,0,0-3.423,3.423v5.832a3.427,3.427,0,0,0,3.423,3.423h5.832a3.427,3.427,0,0,0,3.423-3.423V84.389A3.426,3.426,0,0,0,45.605,80.966Zm-.077,9.178H39.85V84.466h5.678Z"/>
  </g>
</svg>
