<svg xmlns="http://www.w3.org/2000/svg" width="128" height="128" viewBox="0 0 128 128">
  <title>BREAKFAST</title>
  <g>
    <path d="M65.188,27.873A36.127,36.127,0,1,0,101.315,64,36.168,36.168,0,0,0,65.188,27.873Zm0,68.754A32.627,32.627,0,1,1,97.815,64,32.665,32.665,0,0,1,65.188,96.627Z"/>
    <path d="M65.188,41.093A22.907,22.907,0,1,0,88.1,64,22.934,22.934,0,0,0,65.188,41.093Zm0,42.314A19.407,19.407,0,1,1,84.6,64,19.429,19.429,0,0,1,65.188,83.407Z"/>
    <path d="M22.519,22.416a1.749,1.749,0,0,0-1.75,1.75V42.521H16.163V24.166a1.75,1.75,0,0,0-3.5,0V42.521H8.057V24.166a1.75,1.75,0,0,0-3.5,0V46.855a7.971,7.971,0,0,0,5.019,7.4L8.991,100.1a5.422,5.422,0,1,0,10.843,0l-.585-45.843a7.972,7.972,0,0,0,5.02-7.4V24.166A1.75,1.75,0,0,0,22.519,22.416Zm-1.75,24.439a4.461,4.461,0,0,1-3.616,4.377,1.752,1.752,0,0,0-1.421,1.742l.6,47.165a1.907,1.907,0,0,1-.554,1.374,1.969,1.969,0,0,1-2.734,0,1.906,1.906,0,0,1-.555-1.374l.6-47.165a1.752,1.752,0,0,0-1.421-1.742,4.46,4.46,0,0,1-3.615-4.377v-.834H20.769Z"/>
    <path d="M122.612,22.678a1.754,1.754,0,0,0-2.111.206A41.852,41.852,0,0,0,107.157,53.47V70.449a1.749,1.749,0,0,0,1.75,1.75h3.133V99.883a5.7,5.7,0,0,0,11.4,0V24.166A1.751,1.751,0,0,0,122.612,22.678ZM110.657,53.47A38.366,38.366,0,0,1,119.943,28.5V68.7h-9.286Zm7.084,48.614a2.2,2.2,0,0,1-2.2-2.2V72.2h4.4V99.883A2.2,2.2,0,0,1,117.741,102.084Z"/>
  </g>
</svg>
