<svg xmlns="http://www.w3.org/2000/svg" width="128" height="128" viewBox="0 0 128 128">
  <title>BUNK BED</title>
  <path d="M121.693,4.557h-8.371a1.75,1.75,0,0,0-1.75,1.75V20.512H47.247V17.391A5.256,5.256,0,0,0,42,12.141H18.178a5.193,5.193,0,0,0-1.75.322V6.307a1.751,1.751,0,0,0-1.75-1.75H6.307a1.751,1.751,0,0,0-1.75,1.75V121.693a1.751,1.751,0,0,0,1.75,1.75h8.371a1.751,1.751,0,0,0,1.75-1.75v-14.2h95.144v14.2a1.75,1.75,0,0,0,1.75,1.75h8.371a1.75,1.75,0,0,0,1.75-1.75V6.307A1.75,1.75,0,0,0,121.693,4.557Zm-10.121,32.56v4.871H86.583V37.117Zm-95.144,45.4V79.391a1.752,1.752,0,0,1,1.75-1.75H42a1.753,1.753,0,0,1,1.75,1.75v3.121ZM42,74.141H18.178a5.169,5.169,0,0,0-1.75.323V45.488H83.083V82.512H47.247V79.391A5.256,5.256,0,0,0,42,74.141ZM86.583,59h24.989V69H86.583Zm0-3.5V45.488h24.989V55.5Zm0,17.008h24.989V82.512H86.583Zm-3.5-30.516H16.428V37.117H83.083ZM16.428,86.012H83.083v9.605H16.428Zm70.155,0h24.989v9.605H86.583Zm24.989-52.395H16.428v-9.6h95.144ZM18.178,15.641H42a1.753,1.753,0,0,1,1.75,1.75v3.121H16.428V17.391A1.752,1.752,0,0,1,18.178,15.641Zm-5.25,104.3H8.057V8.057h4.871V119.943Zm3.5-20.826H83.083v4.871H16.428Zm70.155,4.871V99.117h24.989v4.871Zm33.36,15.955h-4.871V8.057h4.871Z"/>
</svg>
