<svg xmlns="http://www.w3.org/2000/svg" width="128" height="128" viewBox="0 0 128 128">
  <title>CARD KEY</title>
  <g>
    <path d="M119.088,27.133H8.912A6.669,6.669,0,0,0,2.25,33.794V94.206a6.669,6.669,0,0,0,6.662,6.661H119.088a6.669,6.669,0,0,0,6.662-6.661V33.794A6.669,6.669,0,0,0,119.088,27.133ZM8.912,30.633H119.088a3.165,3.165,0,0,1,3.162,3.161V36.6H5.75V33.794A3.165,3.165,0,0,1,8.912,30.633ZM122.25,48.338H5.75V40.1h116.5Zm-3.162,49.029H8.912A3.165,3.165,0,0,1,5.75,94.206V51.838h116.5V94.206A3.165,3.165,0,0,1,119.088,97.367Z"/>
    <path d="M24.367,68.063l-8.28,4.782a2.461,2.461,0,0,0,0,4.259l8.282,4.783a2.463,2.463,0,0,0,3.688-2.131V70.193A2.462,2.462,0,0,0,24.367,68.063Zm.189,9.89L19.4,74.975,24.556,72Z"/>
    <path d="M105.78,74.13a1.775,1.775,0,0,0-2.48,0,1.75,1.75,0,1,0,2.48,0Z"/>
    <path d="M105.847,66.491v-1.2a5.423,5.423,0,0,0-5.416-5.416H87.422a5.422,5.422,0,0,0-5.415,5.416v3.961H39.249a3.191,3.191,0,0,0-2.341,1.027l-2.7,2.938a3.2,3.2,0,0,0,0,4.3l2.41,2.621a2.777,2.777,0,0,0,1.977.892,2.908,2.908,0,0,0,2.013-.809l1.191-1.19,1.526,1.523a3.165,3.165,0,0,0,2.245.928h4.042a3.162,3.162,0,0,0,2.246-.929l1.526-1.523L54.6,80.256a2.769,2.769,0,0,0,3.911,0l1.218-1.219,1.519,1.519,0,0a3.163,3.163,0,0,0,2.247.929H82.007v3.17a5.42,5.42,0,0,0,5.415,5.415h13.009a5.421,5.421,0,0,0,5.416-5.415v-.411a9.049,9.049,0,0,0,0-17.755Zm-42.214,11.5-1.944-1.944a2.768,2.768,0,0,0-3.911,0L56.56,77.262l-1.221-1.22a2.772,2.772,0,0,0-3.909,0l-1.951,1.947H45.7L43.75,76.039a2.769,2.769,0,0,0-3.908,0l-1.167,1.167L36.982,75.37l2.408-2.617H82.007v5.234Zm41.23,2.876a2.952,2.952,0,0,0-2.516,2.926v.868a1.918,1.918,0,0,1-1.916,1.915H87.422a1.917,1.917,0,0,1-1.915-1.915V65.292a1.917,1.917,0,0,1,1.915-1.916h13.009a1.918,1.918,0,0,1,1.916,1.916v1.657a2.95,2.95,0,0,0,2.516,2.925,5.548,5.548,0,0,1,0,10.989Z"/>
    <path d="M92.727,68.694a1.75,1.75,0,0,0-1.75,1.75V79.5a1.75,1.75,0,0,0,3.5,0v-9.06A1.751,1.751,0,0,0,92.727,68.694Z"/>
  </g>
</svg>
