<svg xmlns="http://www.w3.org/2000/svg" width="128" height="128" viewBox="0 0 128 128">
  <title>CCTV</title>
  <g>
    <path d="M121.693,12.455H27.205a1.75,1.75,0,0,0-1.75,1.75V49.5a6.758,6.758,0,0,0,6.75,6.75H59.783a10.75,10.75,0,0,0,3.736,6.523V86.627a10.819,10.819,0,0,0-1.408,1.407H28.571v-.688a1.749,1.749,0,0,0-1.086-1.619l-7.442-3.051V76a1.75,1.75,0,0,0-1.75-1.75H6.307a1.75,1.75,0,0,0,0,3.5H16.543v34.292H6.307a1.75,1.75,0,0,0,0,3.5H18.293a1.75,1.75,0,0,0,1.75-1.75v-6.673l7.442-3.051a1.749,1.749,0,0,0,1.086-1.619v-.689h33.54A10.75,10.75,0,1,0,77.247,86.626V62.768a10.748,10.748,0,0,0,3.736-6.523h27.578a6.758,6.758,0,0,0,6.75-6.75V28.558l6.627-.939a1.749,1.749,0,0,0,1.5-1.732V14.205A1.75,1.75,0,0,0,121.693,12.455ZM28.955,49.5V42.777H71.507a1.749,1.749,0,0,0,1.007-.318l13.953-9.817,12.546-1.777v21.88H32.205A3.254,3.254,0,0,1,28.955,49.5Zm-3.884,51.783-5.028,2.062V86.458l5.028,2.062Zm3.5-3.015V91.534h31.6a10.621,10.621,0,0,0,0,6.729Zm41.812,3.891A7.255,7.255,0,1,1,77.639,94.9,7.264,7.264,0,0,1,70.383,102.154ZM73.747,84.69a10.636,10.636,0,0,0-6.728,0V64.7a10.627,10.627,0,0,0,6.728,0ZM70.383,61.751a7.262,7.262,0,0,1-7.033-5.506H77.416A7.262,7.262,0,0,1,70.383,61.751ZM111.811,49.5a3.254,3.254,0,0,1-3.25,3.25h-6.048V30.37l9.3-1.317Zm8.132-25.128L85.56,29.235a1.738,1.738,0,0,0-.762.3L70.954,39.277h-42V15.955h90.988Z"/>
    <path d="M47.822,33.273a5.657,5.657,0,1,0-5.657-5.657A5.663,5.663,0,0,0,47.822,33.273Zm0-7.814a2.157,2.157,0,1,1-2.157,2.157A2.159,2.159,0,0,1,47.822,25.459Z"/>
  </g>
</svg>
