<svg xmlns="http://www.w3.org/2000/svg" width="128" height="128" viewBox="0 0 128 128">
  <title>CHECK OUT</title>
  <g>
    <path d="M79.113,75.741l3.522-1.585a3.521,3.521,0,0,0,2.075-3.209V62.5a3.518,3.518,0,0,0-4.962-3.207l-3.524,1.587a3.525,3.525,0,0,0-2.073,3.207v8.45A3.518,3.518,0,0,0,79.113,75.741ZM77.662,64.067,81.21,62.5v8.45a.015.015,0,0,1-.009.016h0l-3.548,1.57Z"/>
    <path d="M124,107.42H112.822V12.66a10.422,10.422,0,0,0-10.41-10.41H42.652a9.09,9.09,0,0,0-9.08,9.08V49.957H30.708V46.916a2.38,2.38,0,0,0-3.947-1.792L16.177,54.386a2.925,2.925,0,0,0,0,4.4L26.761,68.05a2.382,2.382,0,0,0,3.947-1.791V63.228h2.864V107.42H4a1.75,1.75,0,0,0,0,3.5H67.648v11.75a2.813,2.813,0,0,0,3.828,2.852h0l32.492-14.6H124a1.75,1.75,0,0,0,0-3.5ZM30.134,59.728a2.929,2.929,0,0,0-2.926,2.924v1.139l-8.232-7.2,8.232-7.2v1.147a2.929,2.929,0,0,0,2.926,2.926H59.8v6.271C59.6,59.727,32.017,59.726,30.134,59.728Zm6.938,47.692V63.228h3.99V107.42Zm7.49,0V63.228H60.374A2.93,2.93,0,0,0,63.3,60.3V52.883a2.93,2.93,0,0,0-2.926-2.926H44.562V12.78H95.419L69.371,24.487a3.078,3.078,0,0,0-1.723,2.853v80.08Zm57.269.623L71.148,121.832V27.526l30.683-13.79Zm3.5-97.012a1.611,1.611,0,0,0-1.73-1.749l-59.459,0a3.083,3.083,0,0,0-3.08,3.08V49.95h-3.99V11.33a5.586,5.586,0,0,1,5.58-5.58h59.76a6.917,6.917,0,0,1,6.91,6.91v94.76h-3.99C105.332,101.989,105.332,119.653,105.331,11.031Z"/>
  </g>
</svg>
