<svg xmlns="http://www.w3.org/2000/svg" width="128" height="128" viewBox="0 0 128 128">
  <title>CHECK IN</title>
  <g>
    <path d="M79.113,75.741l3.524-1.586a3.523,3.523,0,0,0,2.073-3.208V62.5a3.518,3.518,0,0,0-4.961-3.207l-3.526,1.587a3.526,3.526,0,0,0-2.072,3.207v8.45A3.519,3.519,0,0,0,79.113,75.741ZM77.662,64.067,81.21,62.5v8.45a.018.018,0,0,1-.009.017h0l-3.549,1.57Z"/>
    <path d="M4,110.92H67.648v11.75a2.813,2.813,0,0,0,3.827,2.852h0l32.492-14.6H124a1.75,1.75,0,0,0,0-3.5H112.822V12.66a10.422,10.422,0,0,0-10.41-10.41H42.652a9.09,9.09,0,0,0-9.08,9.08V49.947H18.1a2.93,2.93,0,0,0-2.926,2.926v7.419A2.93,2.93,0,0,0,18.1,63.217H33.572v44.2H4a1.75,1.75,0,0,0,0,3.5Zm97.831-2.877L71.148,121.832V27.526l30.683-13.79ZM37.072,11.33a5.586,5.586,0,0,1,5.58-5.58h59.76a6.918,6.918,0,0,1,6.91,6.91v94.76h-3.99c0-5.431,0,12.233,0-96.389a1.738,1.738,0,0,0-1.79-1.749l-59.4,0a3.083,3.083,0,0,0-3.08,3.08V49.947h-3.99ZM18.678,53.447H48.344a2.928,2.928,0,0,0,2.925-2.926V49.384l8.232,7.2-8.232,7.2V62.643a2.928,2.928,0,0,0-2.925-2.926H18.678Zm29.091,9.77v3.042a2.384,2.384,0,0,0,3.947,1.792L62.3,58.79a2.926,2.926,0,0,0,0-4.405l-10.583-9.26a2.382,2.382,0,0,0-3.948,1.791v3.031H44.562V12.78H95.419L69.371,24.487a3.08,3.08,0,0,0-1.723,2.853v80.08H44.562v-44.2Zm-10.7,0h3.99v44.2h-3.99Z"/>
  </g>
</svg>
