<svg xmlns="http://www.w3.org/2000/svg" width="128" height="128" viewBox="0 0 128 128">
  <title>CREDIT CARD</title>
  <g>
    <path d="M119.088,27.133H8.912A6.669,6.669,0,0,0,2.25,33.794V94.206a6.669,6.669,0,0,0,6.662,6.661H119.088a6.669,6.669,0,0,0,6.662-6.661V33.794A6.669,6.669,0,0,0,119.088,27.133Zm3.162,67.073a3.165,3.165,0,0,1-3.162,3.161H8.912A3.165,3.165,0,0,1,5.75,94.206V33.794a3.165,3.165,0,0,1,3.162-3.161H119.088a3.165,3.165,0,0,1,3.162,3.161Z"/>
    <path d="M33.59,45.048H17.943a3.577,3.577,0,0,0-3.573,3.573v8.824a3.577,3.577,0,0,0,3.573,3.574H33.59a3.578,3.578,0,0,0,3.574-3.574V48.621A3.577,3.577,0,0,0,33.59,45.048Zm-15.647,3.5h6.074v2.735H17.87V48.621A.073.073,0,0,1,17.943,48.548Zm-.073,8.9V54.783h6.147v2.736H17.943A.074.074,0,0,1,17.87,57.445Zm15.794,0a.074.074,0,0,1-.074.074H27.517V48.548H33.59a.074.074,0,0,1,.074.073Z"/>
    <path d="M102.318,76.521a8.18,8.18,0,0,0-4.455,1.319A8.16,8.16,0,0,0,93.4,76.52a8.235,8.235,0,1,0,0,16.469,8.163,8.163,0,0,0,4.461-1.319,8.231,8.231,0,1,0,4.457-15.149ZM93.4,89.489a4.735,4.735,0,1,1,1.917-9.063,8.492,8.492,0,0,0-1.237,4.333,8.407,8.407,0,0,0,1.236,4.324A4.692,4.692,0,0,1,93.4,89.489Zm8.918,0a4.735,4.735,0,1,1,4.736-4.735A4.786,4.786,0,0,1,102.318,89.491Z"/>
    <path d="M34.639,69.415H16.12a1.75,1.75,0,0,0,0,3.5H34.639a1.75,1.75,0,0,0,0-3.5Z"/>
    <path d="M60.386,69.415H41.867a1.75,1.75,0,0,0,0,3.5H60.386a1.75,1.75,0,1,0,0-3.5Z"/>
    <path d="M87.883,71.165a1.749,1.749,0,0,0-1.75-1.75H67.614a1.75,1.75,0,0,0,0,3.5H86.133A1.749,1.749,0,0,0,87.883,71.165Z"/>
    <path d="M111.88,69.415H93.361a1.75,1.75,0,0,0,0,3.5H111.88a1.75,1.75,0,0,0,0-3.5Z"/>
    <path d="M53.882,53.033a12.221,12.221,0,0,1-3.6,8.7,1.75,1.75,0,1,0,2.474,2.475,15.816,15.816,0,0,0,0-22.346,1.75,1.75,0,1,0-2.475,2.475A12.218,12.218,0,0,1,53.882,53.033Z"/>
    <path d="M47.884,53.033a6.257,6.257,0,0,1-1.841,4.455,1.75,1.75,0,0,0,2.475,2.475,9.81,9.81,0,0,0,0-13.86,1.75,1.75,0,0,0-2.475,2.474A6.261,6.261,0,0,1,47.884,53.033Z"/>
    <path d="M41.8,53.246a1.75,1.75,0,1,0,2.475,2.475,3.807,3.807,0,0,0,0-5.375A1.75,1.75,0,0,0,41.8,52.818.3.3,0,0,1,41.8,53.246Z"/>
    <path d="M109.965,35.009H92.444a3.669,3.669,0,0,0-3.665,3.665v4.94a3.669,3.669,0,0,0,3.665,3.665h17.521a3.669,3.669,0,0,0,3.665-3.665v-4.94A3.669,3.669,0,0,0,109.965,35.009Zm.165,8.6a.165.165,0,0,1-.165.165H92.444a.166.166,0,0,1-.165-.165v-4.94a.166.166,0,0,1,.165-.165h17.521a.165.165,0,0,1,.165.165Z"/>
  </g>
</svg>
