<svg xmlns="http://www.w3.org/2000/svg" width="128" height="128" viewBox="0 0 128 128">
  <title>DUMBBELL</title>
  <g>
    <path d="M78.607,108.455v11.178a6.125,6.125,0,0,0,6.118,6.117h3.661a6.124,6.124,0,0,0,6.117-6.117v-.787a6.077,6.077,0,0,0,2.618.6h3.66a6.124,6.124,0,0,0,6.118-6.118V87.353a6.124,6.124,0,0,0-6.118-6.118h-3.66a6.063,6.063,0,0,0-2.618.6v-.787a6.124,6.124,0,0,0-6.117-6.118H84.725a6.125,6.125,0,0,0-6.118,6.118V92.222H30.541V81.045a6.124,6.124,0,0,0-6.118-6.118h-3.66a6.124,6.124,0,0,0-6.118,6.118v.787a6.063,6.063,0,0,0-2.618-.6H8.367A6.124,6.124,0,0,0,2.25,87.353v25.971a6.124,6.124,0,0,0,6.117,6.118h3.66a6.077,6.077,0,0,0,2.618-.6v.787a6.124,6.124,0,0,0,6.118,6.117h3.66a6.124,6.124,0,0,0,6.118-6.117V108.455Zm18.514-23.72h3.66a2.62,2.62,0,0,1,2.618,2.618v25.971a2.62,2.62,0,0,1-2.618,2.618h-3.66a2.62,2.62,0,0,1-2.618-2.618V87.353A2.62,2.62,0,0,1,97.121,84.735Zm-15.014-3.69a2.622,2.622,0,0,1,2.618-2.618h3.661A2.621,2.621,0,0,1,91,81.045v38.588a2.62,2.62,0,0,1-2.617,2.617H84.725a2.621,2.621,0,0,1-2.618-2.617Zm-3.5,14.677v9.233H30.541V95.722Zm-66.58,20.22H8.367a2.62,2.62,0,0,1-2.617-2.618V87.353a2.62,2.62,0,0,1,2.617-2.618h3.66a2.62,2.62,0,0,1,2.618,2.618v25.971A2.62,2.62,0,0,1,12.027,115.942Zm15.014,3.691a2.62,2.62,0,0,1-2.618,2.617h-3.66a2.62,2.62,0,0,1-2.618-2.617V81.045a2.621,2.621,0,0,1,2.618-2.618h3.66a2.621,2.621,0,0,1,2.618,2.618Z"/>
    <path d="M117.983,42.355l3.491-1.1a6.126,6.126,0,0,0,3.992-7.676L117.647,8.812a6.127,6.127,0,0,0-7.675-3.994l-3.49,1.1a6.057,6.057,0,0,0-2.313,1.369l-.241-.763a6.128,6.128,0,0,0-7.676-3.993l-3.49,1.1a6.114,6.114,0,0,0-3.993,7.675L92.134,21.97,46.3,36.44,42.933,25.78a6.116,6.116,0,0,0-7.676-3.991l-3.491,1.1a6.124,6.124,0,0,0-3.992,7.674l.236.749a6.089,6.089,0,0,0-2.675.222l-3.491,1.1a6.125,6.125,0,0,0-3.992,7.675L25.67,65.081a6.126,6.126,0,0,0,7.675,3.992h0l3.49-1.1A6.072,6.072,0,0,0,39.149,66.6l.241.763a6.125,6.125,0,0,0,7.675,3.992h0l3.491-1.1a6.114,6.114,0,0,0,3.993-7.675L51.184,51.92,97.021,37.452l3.364,10.657a6.115,6.115,0,0,0,7.676,3.994l3.491-1.1a6.126,6.126,0,0,0,3.992-7.676l-.235-.744A5.962,5.962,0,0,0,117.983,42.355Zm-80.492,19a2.615,2.615,0,0,1-1.708,3.283l-3.491,1.1a2.623,2.623,0,0,1-3.284-1.708L21.19,39.259A2.619,2.619,0,0,1,22.9,35.976l3.491-1.1a2.615,2.615,0,0,1,3.283,1.706ZM49.5,66.917l-3.49,1.1a2.624,2.624,0,0,1-3.284-1.708l-11.616-36.8a2.619,2.619,0,0,1,1.708-3.283l3.491-1.1A2.616,2.616,0,0,1,39.6,26.834c13.718,43.46-1.758-5.566,11.616,36.8A2.615,2.615,0,0,1,49.5,66.917Zm46.465-32.8L50.13,48.583l-2.779-8.806L93.187,25.308C93.236,25.462,96.1,34.541,95.967,34.114ZM110.5,47.663l-3.491,1.1a2.616,2.616,0,0,1-3.284-1.708c-7.131-22.592-9.958-31.545-11.616-36.8a2.616,2.616,0,0,1,1.708-3.284l3.491-1.1A2.622,2.622,0,0,1,100.59,7.58l11.616,36.8A2.621,2.621,0,0,1,110.5,47.663Zm3.147-10.353-7.818-24.768a2.615,2.615,0,0,1,1.708-3.283l3.49-1.1a2.622,2.622,0,0,1,3.285,1.708l7.818,24.767a2.621,2.621,0,0,1-1.708,3.285l-3.491,1.1A2.616,2.616,0,0,1,113.645,37.31Z"/>
  </g>
</svg>
