<svg xmlns="http://www.w3.org/2000/svg" width="128" height="128" viewBox="0 0 128 128">
  <title>ELEVATOR</title>
  <g>
    <path d="M121.693,4.557H6.307a1.751,1.751,0,0,0-1.75,1.75V121.693a1.751,1.751,0,0,0,1.75,1.75H121.693a1.751,1.751,0,0,0,1.75-1.75V6.307A1.751,1.751,0,0,0,121.693,4.557ZM96.569,47.131v72.812H65.75V47.131ZM62.25,119.943H31.431V47.131H62.25Zm57.693,0H100.069V45.381a1.751,1.751,0,0,0-1.75-1.75H29.681a1.751,1.751,0,0,0-1.75,1.75v74.562H8.057V8.057H119.943Z"/>
    <path d="M46.841,33.385H81.159a1.751,1.751,0,0,0,1.75-1.75V20.054a1.75,1.75,0,0,0-1.75-1.75H46.841a1.749,1.749,0,0,0-1.75,1.75V31.635A1.75,1.75,0,0,0,46.841,33.385ZM48.591,21.8H79.409v8.081H48.591Z"/>
    <circle cx="110.006" cy="72.585" r="2.684"/>
    <circle cx="110.006" cy="83.537" r="2.684"/>
    <circle cx="110.006" cy="94.489" r="2.684"/>
    <path d="M41.609,83.621l3.482-3.481V91.159a1.75,1.75,0,0,0,3.5,0V80.14l3.481,3.481a1.75,1.75,0,0,0,2.474-2.475l-6.468-6.468a1.749,1.749,0,0,0-2.475,0l-6.468,6.468a1.75,1.75,0,0,0,2.474,2.475Z"/>
    <path d="M73.454,85.928,79.922,92.4a1.748,1.748,0,0,0,2.474,0l6.469-6.468a1.75,1.75,0,0,0-2.474-2.475l-3.482,3.481V75.915a1.75,1.75,0,0,0-3.5,0V86.934l-3.481-3.481a1.75,1.75,0,0,0-2.474,2.475Z"/>
  </g>
</svg>
