<svg xmlns="http://www.w3.org/2000/svg" width="128" height="128" viewBox="0 0 128 128">
  <title>FITNESS</title>
  <path d="M121.693,58.5h-5.537V54.99a1.749,1.749,0,0,0-1.75-1.75h-6.723V45.111a1.751,1.751,0,0,0-1.75-1.75H88.986a1.75,1.75,0,0,0-1.75,1.75V58.5H40.764V45.111a1.751,1.751,0,0,0-1.75-1.75H22.067a1.751,1.751,0,0,0-1.75,1.75V53.24H13.594a1.749,1.749,0,0,0-1.75,1.75V58.5H6.307a1.749,1.749,0,0,0-1.75,1.75v7.492a1.749,1.749,0,0,0,1.75,1.75h5.537V73.01a1.749,1.749,0,0,0,1.75,1.75h6.723v8.129a1.751,1.751,0,0,0,1.75,1.75H39.014a1.751,1.751,0,0,0,1.75-1.75V69.5H87.236V82.889a1.75,1.75,0,0,0,1.75,1.75h16.947a1.751,1.751,0,0,0,1.75-1.75V74.76h6.723a1.749,1.749,0,0,0,1.75-1.75V69.5h5.537a1.749,1.749,0,0,0,1.75-1.75V60.254A1.749,1.749,0,0,0,121.693,58.5ZM8.057,66V62h3.787V66Zm7.287,5.264V56.74h4.973V71.26Zm8.473-24.4H28.79V81.139H23.817ZM37.264,81.139H32.29V46.861h4.974ZM40.764,66V62H87.236V66ZM90.736,46.861H95.71V81.139H90.736Zm13.447,34.278H99.21V46.861h4.973Zm8.473-9.879h-4.973V56.74h4.973ZM119.943,66h-3.787V62h3.787Z"/>
</svg>
