<svg xmlns="http://www.w3.org/2000/svg" width="128" height="128" viewBox="0 0 128 128">
  <title>FLIP FLOPS</title>
  <g>
    <path d="M115.643,16.667A30.635,30.635,0,0,0,91.616,4.557c-14.662,0-23.77,11.5-23.77,30.006a79.745,79.745,0,0,0,5.789,28.556A33.7,33.7,0,0,1,75.9,78.057L74.251,98.992a22.669,22.669,0,0,0,22.6,24.451,22.669,22.669,0,0,0,22.66-23.275l-.638-23.827a44.432,44.432,0,0,1,1.535-12.621C127.089,38.651,121.5,24.3,115.643,16.667ZM91.616,8.057A27.11,27.11,0,0,1,112.867,18.8c5.026,6.539,9.792,18.59,5.264,39.44a66.349,66.349,0,0,0-24.06-27.892v-6.57a1.75,1.75,0,1,0-3.5,0v6.8c-8.682,8.17-13.6,18.692-15.919,24.836a72.219,72.219,0,0,1-3.306-20.852C71.346,17.966,78.924,8.057,91.616,8.057Zm2.715,34.281a1.75,1.75,0,0,0-2.381.258c-.418.488-7.956,9.439-13.023,26.518a37.487,37.487,0,0,0-2.036-7.28c-.126-.318-.253-.651-.381-.987.85-2.871,5.46-17.108,16.028-27.317,3.983,2.6,17.908,12.7,24.168,30.571a48.5,48.5,0,0,0-1.281,8.744A69.163,69.163,0,0,0,94.331,42.338Zm16.253,71.808A19.169,19.169,0,0,1,77.739,99.268l.82-10.4h0c2.565-23.7,11.848-38.274,15-42.62a68.579,68.579,0,0,1,22.221,45.256l.235,8.757A19.026,19.026,0,0,1,110.584,114.146Z"/>
    <path d="M36.384,4.557a30.635,30.635,0,0,0-24.027,12.11C6.5,24.3.911,38.651,7.593,63.72A44.432,44.432,0,0,1,9.128,76.341L8.49,100.168a22.669,22.669,0,0,0,22.66,23.275,22.668,22.668,0,0,0,22.6-24.451L52.1,78.057a33.706,33.706,0,0,1,2.267-14.939,79.717,79.717,0,0,0,5.788-28.555C60.153,16.055,51.045,4.557,36.384,4.557Zm-.921,28.974C46.008,43.723,50.636,57.975,51.489,60.849c-.127.334-.254.667-.38.984a37.608,37.608,0,0,0-2.037,7.285C44.005,52.038,36.468,43.084,36.05,42.6a1.75,1.75,0,0,0-2.381-.258A69.227,69.227,0,0,0,12.577,72.864,48.649,48.649,0,0,0,11.294,64.1C17.54,46.276,31.478,36.137,35.463,33.531Zm9.764,80.253a19.169,19.169,0,0,1-33.239-13.522l.235-8.757A68.577,68.577,0,0,1,34.444,46.249C37.593,50.6,46.872,65.165,49.439,88.857l.821,10.411A18.966,18.966,0,0,1,45.227,113.784Zm8.121-58.369c-2.319-6.144-7.237-16.666-15.919-24.836v-6.8a1.75,1.75,0,0,0-3.5,0v6.57A66.351,66.351,0,0,0,9.869,58.239c-4.528-20.85.238-32.9,5.264-39.439A27.11,27.11,0,0,1,36.384,8.057c12.692,0,20.269,9.909,20.269,26.506A72.238,72.238,0,0,1,53.348,55.415Z"/>
  </g>
</svg>
