<svg xmlns="http://www.w3.org/2000/svg" width="128" height="128" viewBox="0 0 128 128">
  <title>FOOD TRAY</title>
  <g>
    <path d="M120.57,67.04a46.876,46.876,0,0,0-46.791-45.3h-1.1l.931-3.519a9.937,9.937,0,1,0-19.212,0l.931,3.52h-1.1A46.876,46.876,0,0,0,7.43,67.04,6.888,6.888,0,0,0,9.142,80.6h7.906L4.021,88.11A3.548,3.548,0,0,0,2.25,91.174v27.549a3.493,3.493,0,0,0,2.119,3.24,3.574,3.574,0,0,0,1.433.3,3.5,3.5,0,0,0,2.384-.948l10.257-9.482a17.861,17.861,0,0,1,12.713-5.266H46.283A34.017,34.017,0,0,0,59,104.117L92.335,90.755a6.918,6.918,0,0,0,4.027-8.9,7.274,7.274,0,0,0-.584-1.252h23.08A6.888,6.888,0,0,0,120.57,67.04ZM57.776,17.322a6.438,6.438,0,1,1,12.448,0l-1.169,4.415H58.945Zm-3.555,7.916H73.779a43.381,43.381,0,0,1,43.294,41.578H10.927A43.381,43.381,0,0,1,54.221,25.238ZM91.1,87.48,57.7,100.869a30.548,30.548,0,0,1-11.415,2.2H31.156a21.291,21.291,0,0,0-15.137,6.243L5.75,118.723l.019-27.58,13.279-7.658A17.952,17.952,0,0,1,28.816,80.6h27.2c.422,0,.7,0,.7,1.1,0,3.55-1.671,7.695-6.379,7.695h-16.3a1.75,1.75,0,0,0,0,3.5h16.3a9.307,9.307,0,0,0,6.634-2.615l31.846-9.506A3.553,3.553,0,0,1,91.1,87.48ZM59.615,85.835a13.994,13.994,0,0,0,.6-4.138,6.472,6.472,0,0,0-.1-1.1H77.155ZM118.858,77.1H9.142a3.393,3.393,0,0,1,0-6.785H118.858a3.393,3.393,0,0,1,0,6.785Z"/>
    <path d="M39.148,32.784A39.16,39.16,0,0,0,23.089,45.377a1.751,1.751,0,0,0,2.8,2.1,35.638,35.638,0,0,1,14.62-11.468,1.75,1.75,0,0,0-1.364-3.223Z"/>
  </g>
</svg>
