<svg xmlns="http://www.w3.org/2000/svg" width="128" height="128" viewBox="0 0 128 128">
  <title>FRIDGE</title>
  <g>
    <path d="M92.7,4.557H35.3A5.25,5.25,0,0,0,30.054,9.8V112.138a5.251,5.251,0,0,0,5.245,5.245H36.77l1.2,4.739a1.749,1.749,0,0,0,1.7,1.321H46.6a1.75,1.75,0,0,0,1.7-1.321l1.2-4.739H78.505l1.2,4.739a1.749,1.749,0,0,0,1.7,1.321h6.937a1.748,1.748,0,0,0,1.7-1.321l1.2-4.739H92.7a5.25,5.25,0,0,0,5.245-5.245V9.8A5.25,5.25,0,0,0,92.7,4.557Zm-57.4,3.5H92.7A1.747,1.747,0,0,1,94.446,9.8V49.228H33.554V9.8A1.747,1.747,0,0,1,35.3,8.057Zm43.69,44.671-2.1,5.687H51.107l-2.1-5.687ZM45.238,119.943H41.027l-.647-2.56h5.5Zm41.735,0H82.762l-.648-2.56H87.62Zm5.728-6.06H35.3a1.747,1.747,0,0,1-1.745-1.745V52.728H45.28l2.965,8.043a1.751,1.751,0,0,0,1.642,1.144H78.112a1.749,1.749,0,0,0,1.642-1.144l2.965-8.043H94.446v59.41A1.747,1.747,0,0,1,92.7,113.883Z"/>
    <path d="M40.639,41.811h5.816a1.75,1.75,0,0,0,1.75-1.75V17.224a1.75,1.75,0,0,0-1.75-1.75H40.639a1.75,1.75,0,0,0-1.75,1.75V40.061A1.75,1.75,0,0,0,40.639,41.811Zm1.75-22.837h2.316V38.311H42.389Z"/>
  </g>
</svg>
