<svg xmlns="http://www.w3.org/2000/svg" width="128" height="128" viewBox="0 0 128 128">
  <title>HANGER</title>
  <path d="M125.318,99.047h0L86.716,67.1A35.339,35.339,0,0,0,75.2,60.74a11.261,11.261,0,0,0-5.447-8.565V42a.857.857,0,0,1,.409-.74L75.7,37.78a12.372,12.372,0,0,0-6.574-22.854H58.5a12.345,12.345,0,0,0-10.946,6.6l-3.3,6.254a1.749,1.749,0,0,0,.733,2.363l7.077,3.731a1.749,1.749,0,0,0,2.364-.732l3.3-6.253a.871.871,0,0,1,.772-.466H69.127A.874.874,0,0,1,70,27.3a.859.859,0,0,1-.409.74l-5.543,3.476A12.305,12.305,0,0,0,58.25,42V52.175A11.261,11.261,0,0,0,52.8,60.74,35.339,35.339,0,0,0,41.284,67.1L2.682,99.047A7.377,7.377,0,0,0,0,104.748v.926a7.405,7.405,0,0,0,6.835,7.372,1.763,1.763,0,0,0,.284.028H120.531c.011,0,.021,0,.032,0s.025,0,.037,0a7.408,7.408,0,0,0,7.4-7.4v-.926A7.38,7.38,0,0,0,125.318,99.047ZM61.75,50.81V42a8.823,8.823,0,0,1,4.158-7.517L71.451,31a4.373,4.373,0,0,0-2.324-8.077H58.5a4.361,4.361,0,0,0-3.868,2.334h0l-2.479,4.7-3.981-2.1,2.479-4.706a8.852,8.852,0,0,1,7.85-4.735H69.127a8.873,8.873,0,0,1,4.715,16.389L68.3,38.291A4.349,4.349,0,0,0,66.25,42V50.81l-.03,0c-.3-.059-.595-.1-.9-.138-.069-.008-.138-.023-.207-.03-.367-.036-.739-.056-1.115-.056s-.748.02-1.115.056c-.07.007-.138.022-.207.03-.3.036-.6.079-.9.138ZM14.294,109.574l5.437-4.5h88.538l5.437,4.5Zm9.666-8L51.2,79.032a20.088,20.088,0,0,1,25.6,0l27.239,22.542Zm100.54,4.1a3.9,3.9,0,0,1-3.9,3.9c-.017,0-.033,0-.05-.006a3.933,3.933,0,0,1-1.9-.514,3.858,3.858,0,0,1-.543-.375L79.032,76.335a23.589,23.589,0,0,0-30.064,0L9.886,108.679a3.906,3.906,0,0,1-2.474.894l-.04,0a3.9,3.9,0,0,1-3.872-3.9v-.926a3.888,3.888,0,0,1,1.414-3.005L43.515,69.8a31.929,31.929,0,0,1,11.476-6.072,1.752,1.752,0,0,0,1.259-1.68v-.213a7.75,7.75,0,0,1,15.5,0v.213a1.752,1.752,0,0,0,1.259,1.68A31.929,31.929,0,0,1,84.485,69.8l38.6,31.946a3.888,3.888,0,0,1,1.414,3.005Z"/>
</svg>
