<svg xmlns="http://www.w3.org/2000/svg" width="128" height="128" viewBox="0 0 128 128">
  <title>HOUSEKEEPER</title>
  <g>
    <path d="M64.249,53.4h1.958a1.75,1.75,0,0,0,0-3.5H64.33l.7-4.608a1.75,1.75,0,1,0-3.461-.524l-.709,4.687A3.43,3.43,0,0,0,64.249,53.4Z"/>
    <path d="M57.166,40.417A4.167,4.167,0,1,0,53,44.583,4.171,4.171,0,0,0,57.166,40.417Z"/>
    <path d="M75,36.25a4.167,4.167,0,1,0,4.167,4.167A4.171,4.171,0,0,0,75,36.25Z"/>
    <path d="M69.2,57.931A6.987,6.987,0,0,1,63.875,60a6.987,6.987,0,0,1-5.326-2.07,1.75,1.75,0,0,0-2.7,2.224A10.376,10.376,0,0,0,63.875,63.5,10.371,10.371,0,0,0,71.9,60.156a1.75,1.75,0,1,0-2.7-2.225Z"/>
    <path d="M103.462,87.528a30.623,30.623,0,0,0-4.052-.787,1.909,1.909,0,0,0-.895-.107c-2.6-.278-4.944-.454-8.606-.738a1.576,1.576,0,0,0-.792-.062c-.7-.057-1.4-.119-2.074-.192l-.774-.1c-2.058-.267-4-.519-5.331-2.251h0a6.14,6.14,0,0,1-.532-.816,4.948,4.948,0,0,1-.573-1.725l-.966-7.552a23.5,23.5,0,0,0,4.5-4.8,12.25,12.25,0,0,0,4.786.973,12.551,12.551,0,0,0,2.5-.253,12.3,12.3,0,0,0,9.462-9.443c.047-.223.086-.444.12-.666a26.482,26.482,0,0,1,3.92-9.871,14.536,14.536,0,0,0-4.4-19.779,9.051,9.051,0,0,1-4.243-7.49v-.122A21.775,21.775,0,0,0,73.76,0H54.24a21.775,21.775,0,0,0-21.75,21.75v.122a9.051,9.051,0,0,1-4.243,7.49,14.535,14.535,0,0,0-4.4,19.779,26.424,26.424,0,0,1,3.92,9.872q.051.332.12.663a12.2,12.2,0,0,0,16.743,8.716,23.506,23.506,0,0,0,4.5,4.805l-.963,7.533a5.111,5.111,0,0,1-1.113,2.51h0a6.7,6.7,0,0,1-5.229,2.281c-1.953.157,1.123-.034-5.723.464a57.807,57.807,0,0,0-11.567,1.546,24.217,24.217,0,0,0-17.788,23.3V126.25A1.751,1.751,0,0,0,8.5,128h111a1.75,1.75,0,0,0,1.75-1.75V110.833A24.217,24.217,0,0,0,103.462,87.528Zm-8.787,2.259c.788.064,1.56.13,2.325.2V106.75H88.972L90.91,89.484c.729.054,1.456.108,2.174.171C93.613,89.7,94.144,89.745,94.675,89.787ZM75.8,71.126a20.209,20.209,0,0,1-23.592,0,1.735,1.735,0,0,0-.38-.276,20.038,20.038,0,0,1-5.043-5.579c-.008-.015-.012-.031-.021-.046s-.041-.053-.06-.081a20.3,20.3,0,0,1-1.382-2.768,44.049,44.049,0,0,1-2.068-7.905c-.18-.913-.359-1.82-.554-2.715l-1.508-6.885a20.465,20.465,0,0,1-.461-4.3V33.782a65.277,65.277,0,0,0,46.544-7.844v7.625c0,8.548-.174,9.976-.461,11.305L85.3,51.76c-.007.03-.012.061-.019.091l-.007.035c-.184.853-.357,1.716-.528,2.586a44.137,44.137,0,0,1-2.066,7.9A20.4,20.4,0,0,1,81.3,65.15c-.018.027-.04.049-.057.077s-.012.029-.02.043a20.052,20.052,0,0,1-5.046,5.583A1.7,1.7,0,0,0,75.8,71.126ZM37.24,41.02a24.088,24.088,0,0,0,.529,4.6l1.172,5.352a4.911,4.911,0,0,1-.891.088,5.051,5.051,0,0,1-.81-10.037Zm52.992,4.59a23.388,23.388,0,0,0,.457-4.572A5.058,5.058,0,0,1,89.7,51.057a4.87,4.87,0,0,1-.645-.069ZM38.052,65.688a8.762,8.762,0,0,1-6.737-6.728c-.033-.161-.062-.322-.086-.481a29.835,29.835,0,0,0-4.4-11.18A11.034,11.034,0,0,1,30.17,32.284a12.54,12.54,0,0,0,5.82-10.415v-.122A18.271,18.271,0,0,1,54.24,3.5H73.76a18.271,18.271,0,0,1,18.25,18.25v.122a12.539,12.539,0,0,0,5.82,10.415A11.038,11.038,0,0,1,101.174,47.3a29.838,29.838,0,0,0-4.4,11.18c-.024.16-.053.321-.087.484a8.733,8.733,0,0,1-11.512,6.394q.406-.813.754-1.664a46.781,46.781,0,0,0,2.257-8.542c.047-.242.1-.477.146-.718a8.3,8.3,0,0,0,1.371.125,8.555,8.555,0,0,0,1.056-17.046c.011-1.129.016-2.425.016-3.948V22.815A1.75,1.75,0,0,0,88.1,21.326l-1.651,1.017A61.85,61.85,0,0,1,39.383,29.9a1.749,1.749,0,0,0-2.155,1.7V37.48a8.558,8.558,0,0,0,.822,17.077,8.42,8.42,0,0,0,1.612-.165c.051.254.105.5.155.758A46.65,46.65,0,0,0,42.076,63.7q.346.849.752,1.66A8.721,8.721,0,0,1,38.052,65.688ZM64,78.427A23.685,23.685,0,0,0,75.619,75.4l.74,5.788a8.176,8.176,0,0,0,.606,2.2,47.472,47.472,0,0,1-25.939,0,8.438,8.438,0,0,0,.615-2.194l.74-5.791A23.68,23.68,0,0,0,64,78.427ZM41.978,89.016A10.372,10.372,0,0,0,48.9,86.363,47.132,47.132,0,0,0,64,88.69a47.174,47.174,0,0,0,15.026-2.3c2.094,2.013,4.67,2.347,6.793,2.622l.786.1c.272.03.544.051.816.078L85.45,106.75H42.55l-1.976-17.6C41.043,89.1,41.512,89.069,41.978,89.016Zm-5.646.459c.248-.017.5-.036.751-.052l1.945,17.327H31V89.9C32.735,89.71,34.509,89.593,36.332,89.475ZM10.25,110.833A20.709,20.709,0,0,1,25.461,90.9c.674-.184,1.355-.335,2.039-.471V124.5H10.25ZM39,124.5v-6.25H89v6.25Zm53.5,0v-8a1.75,1.75,0,0,0-1.75-1.75H37.25a1.751,1.751,0,0,0-1.75,1.75v8H31V110.25H97V124.5Zm25.25,0H100.5V90.45c.686.124,1.366.27,2.038.454a20.709,20.709,0,0,1,15.212,19.929Z"/>
  </g>
</svg>
