<svg xmlns="http://www.w3.org/2000/svg" width="128" height="128" viewBox="0 0 128 128">
  <title>INFORMATION</title>
  <g>
    <path d="M64,0a64,64,0,1,0,64,64A64.072,64.072,0,0,0,64,0Zm0,124.5A60.5,60.5,0,1,1,124.5,64,60.569,60.569,0,0,1,64,124.5Z"/>
    <path d="M64,10a54,54,0,1,0,54,54A54.061,54.061,0,0,0,64,10Zm0,104.5A50.5,50.5,0,1,1,114.5,64,50.557,50.557,0,0,1,64,114.5Z"/>
    <path d="M72.812,25.375H55.187a6.75,6.75,0,0,0,0,13.5H72.812a6.75,6.75,0,0,0,0-13.5Zm0,10H55.187a3.25,3.25,0,0,1,0-6.5H72.812a3.25,3.25,0,0,1,0,6.5Z"/>
    <path d="M72.812,58.891a6.75,6.75,0,0,0,0-13.5H55.187a6.75,6.75,0,0,0,0,13.5H57.25V89.125H55.187a6.75,6.75,0,0,0,0,13.5H72.812a6.75,6.75,0,1,0,0-13.5H70.75V58.891ZM69,92.625h3.812a3.25,3.25,0,1,1,0,6.5H55.187a3.25,3.25,0,0,1,0-6.5H59a1.75,1.75,0,0,0,1.75-1.75V57.141A1.75,1.75,0,0,0,59,55.391H55.187a3.25,3.25,0,0,1,0-6.5H72.812a3.25,3.25,0,0,1,0,6.5H69a1.749,1.749,0,0,0-1.75,1.75V90.875A1.749,1.749,0,0,0,69,92.625Z"/>
  </g>
</svg>
