<svg xmlns="http://www.w3.org/2000/svg" width="128" height="128" viewBox="0 0 128 128">
  <title>IRON</title>
  <g>
    <path d="M123.281,93.936a43,43,0,0,0-18.536-18.584c-1.161-3.52-6.693-18.562-19.647-30.043l3.279-4.888a1.75,1.75,0,0,0-.478-2.428L78.78,31.875a1.749,1.749,0,0,0-2.428.478l-3.241,4.831a54.842,54.842,0,0,0-24.752-5.606H12.819a1.748,1.748,0,0,0-1.675,1.246L5.816,50.518A29.659,29.659,0,0,0,4.557,59.07V69.4a1.746,1.746,0,0,0,.523,1.245,1.8,1.8,0,0,0,1.253.5c.112.006,8.95-.033,14.107,5.737l-7.666,17.07a1.75,1.75,0,0,0,1.6,2.467H121.693a1.751,1.751,0,0,0,1.588-2.486ZM23.623,78.34H102.9a35.884,35.884,0,0,1,8.194,5.541H21.135Zm54.66-42.584L84.5,39.924l-2.1,3.133a54.873,54.873,0,0,0-6.188-4.2ZM8.057,67.726V59.07a26.15,26.15,0,0,1,1.111-7.544L14.12,35.078H48.359c17.106,0,31.248,7.018,42.034,20.86a71.8,71.8,0,0,1,10.474,18.9H23.308C18.565,69.274,11.378,68.005,8.057,67.726Zm9.018,25.2,2.488-5.541h95a42.712,42.712,0,0,1,4.139,5.541Z"/>
    <path d="M67.55,66.359c.2.013.4.018.6.018a8.754,8.754,0,0,0,4.828-16.018,43.382,43.382,0,0,0-24.617-7.281H21.367a1.751,1.751,0,0,0-1.676,1.246l-1.421,4.72a7.725,7.725,0,0,0,4.407,9.379C34.589,63.412,53.654,65.492,67.55,66.359ZM21.622,50.053l1.045-3.475H48.359a39.935,39.935,0,0,1,22.667,6.688A5.074,5.074,0,0,1,73.068,59.3a5.16,5.16,0,0,1-5.3,3.562C54.141,62.016,35.491,60,24.03,55.194A4.231,4.231,0,0,1,21.622,50.053Z"/>
  </g>
</svg>
