<svg xmlns="http://www.w3.org/2000/svg" width="128" height="128" viewBox="0 0 128 128">
  <title>LOCATION</title>
  <g>
    <path d="M95.969,18.309a1.749,1.749,0,0,0-1.75,1.75V22.28H91.381V20.059a1.75,1.75,0,1,0-3.5,0V28a1.75,1.75,0,1,0,3.5,0V25.78h2.838V28a1.75,1.75,0,1,0,3.5,0V20.059A1.75,1.75,0,0,0,95.969,18.309Z"/>
    <path d="M75.4,91.427l-4.587,4.748A5.474,5.474,0,0,0,69.27,100v1.787a5.511,5.511,0,0,0,5.505,5.506h1.017a5.5,5.5,0,0,0,4.831-2.866l3.571-6.536C87.221,92.346,79.864,86.805,75.4,91.427Zm5.72,4.787-3.571,6.535a2.006,2.006,0,0,1-1.76,1.044H74.775a2.007,2.007,0,0,1-2.005-2.006V100a2,2,0,0,1,.563-1.394l4.587-4.748A2.008,2.008,0,0,1,81.123,96.214Z"/>
    <path d="M111.636,13.125a21.774,21.774,0,0,0-40.584,11.98,50.562,50.562,0,1,0,43.51,50.075,50.1,50.1,0,0,0-9.316-29.238l6.39-11.067A21.531,21.531,0,0,0,111.636,13.125ZM73.964,34.875,88.075,59.316a5.457,5.457,0,0,0,9.452,0L103.315,49.3a46.579,46.579,0,0,1,7.7,27.545l-1.265-1.478A12.5,12.5,0,0,0,94.619,72.16L78.4,80.138a8.933,8.933,0,0,1-7.312.281A9.066,9.066,0,0,1,65.961,75.2L62.117,64.915a8.792,8.792,0,0,1-.575-3.155,9.026,9.026,0,0,1,3.227-6.912A12.537,12.537,0,0,0,69,42.864l-2.872-14.7a51.453,51.453,0,0,1,5.413.555A23.212,23.212,0,0,0,73.964,34.875Zm-42.79,6.608,6.663,3.434a10.891,10.891,0,0,1-2.68,20.475l-2.73.536a14.34,14.34,0,0,0-8.8,5.57L17.193,80.2A46.932,46.932,0,0,1,31.174,41.483Zm-4.993,61.7,6.379-11.34a5.255,5.255,0,0,1,4.626-2.7,5.309,5.309,0,0,1,5.113,3.9l2.4,8.8a8.854,8.854,0,0,0,7.109,6.377l3.558.558a5.329,5.329,0,0,1,4.388,4.289l.109.6c.489,2.7,1.073,5.911,1.542,8.514A47.11,47.11,0,0,1,26.181,103.178Zm38.79,19.047c-.488-2.708-1.13-6.249-1.663-9.188l-.109-.6a8.84,8.84,0,0,0-7.281-7.119l-3.555-.558a5.339,5.339,0,0,1-4.286-3.843l-2.4-8.8a8.807,8.807,0,0,0-16.165-2l-5.526,9.823a46.792,46.792,0,0,1-6.016-14.9l8.474-11.463A10.855,10.855,0,0,1,33.1,69.362l2.733-.537a14.39,14.39,0,0,0,3.572-27.037l-5.456-2.813A46.846,46.846,0,0,1,62.557,28.147l3.007,15.389a9.036,9.036,0,0,1-3.05,8.636,12.515,12.515,0,0,0-4.472,9.588,12.28,12.28,0,0,0,.8,4.393l3.841,10.272a12.55,12.55,0,0,0,17.26,6.855L96.163,75.3a9.015,9.015,0,0,1,10.919,2.327l3.513,4.1A47.127,47.127,0,0,1,64.971,122.225Zm43.633-89.1L94.494,57.566a1.956,1.956,0,0,1-3.387,0L77,33.125a18.249,18.249,0,1,1,31.606,0Z"/>
    <path d="M92.8,11.277A12.753,12.753,0,1,0,105.552,24.03,12.767,12.767,0,0,0,92.8,11.277Zm0,22a9.253,9.253,0,1,1,9.252-9.252A9.262,9.262,0,0,1,92.8,33.282Z"/>
  </g>
</svg>
