<svg xmlns="http://www.w3.org/2000/svg" width="128" height="128" viewBox="0 0 128 128">
  <title>MEETING ROOM</title>
  <g>
    <path d="M99.4,57.035a1.749,1.749,0,0,0,1.75-1.75v-9.2a1.75,1.75,0,0,0-1.75-1.75H79.779l-1.132-9.246a6.758,6.758,0,0,0-6.7-5.929H56.053a6.757,6.757,0,0,0-6.7,5.929l-1.132,9.246H28.6a1.751,1.751,0,0,0-1.75,1.75v9.2a1.75,1.75,0,0,0,1.75,1.75H44.665V97.087a1.75,1.75,0,0,0,1.75,1.75h35.17a1.749,1.749,0,0,0,1.75-1.75V57.035ZM52.827,35.518a3.254,3.254,0,0,1,3.226-2.855H71.946a3.254,3.254,0,0,1,3.227,2.855l1.08,8.82H51.747ZM30.352,47.838h67.3v5.7h-67.3Zm49.483,47.5H48.165v-38.3h31.67Z"/>
    <path d="M121.693,29.163H118.5a6.726,6.726,0,0,0-6.718,6.092h0l-2.3,23.42a3.24,3.24,0,0,1-2.787,2.9L92.475,63.555a6.777,6.777,0,0,0-5.821,6.685v3.374a1.749,1.749,0,0,0,1.75,1.75h11.864V95.337H96.313a1.75,1.75,0,0,0,0,3.5h17.47a1.75,1.75,0,0,0,0-3.5h-3.954V75.364h1.864a11.763,11.763,0,0,0,11.75-11.75v-32.7A1.749,1.749,0,0,0,121.693,29.163ZM106.329,95.337h-2.561V75.364h2.561Zm13.614-31.723a8.259,8.259,0,0,1-8.25,8.25H90.154V70.24a3.264,3.264,0,0,1,2.8-3.219l14.227-1.978a6.731,6.731,0,0,0,5.787-6.027l2.3-23.42h0a3.235,3.235,0,0,1,3.233-2.932h1.443Z"/>
    <path d="M35.526,63.555,21.3,61.576a3.239,3.239,0,0,1-2.787-2.9l-2.294-23.42h0A6.727,6.727,0,0,0,9.5,29.163H6.307a1.75,1.75,0,0,0-1.75,1.75v32.7a11.763,11.763,0,0,0,11.75,11.75H18.17V95.337H14.217a1.75,1.75,0,1,0,0,3.5H31.686a1.75,1.75,0,0,0,0-3.5H27.732V75.364H39.6a1.75,1.75,0,0,0,1.75-1.75V70.24A6.778,6.778,0,0,0,35.526,63.555ZM24.232,95.337H21.67V75.364h2.562ZM37.846,71.864H16.307a8.259,8.259,0,0,1-8.25-8.25V32.663H9.5A3.238,3.238,0,0,1,12.734,35.6l2.3,23.42a6.729,6.729,0,0,0,5.788,6.028l14.226,1.978a3.264,3.264,0,0,1,2.8,3.219Z"/>
  </g>
</svg>
