<svg xmlns="http://www.w3.org/2000/svg" width="128" height="128" viewBox="0 0 128 128">
  <title>MENU</title>
  <g>
    <path d="M56,18.25A6.257,6.257,0,0,1,49.75,12,1.75,1.75,0,0,0,48,10.25H27A1.75,1.75,0,0,0,25.25,12,6.257,6.257,0,0,1,19,18.25,1.75,1.75,0,0,0,17.25,20v88A1.75,1.75,0,0,0,19,109.75,6.257,6.257,0,0,1,25.25,116,1.75,1.75,0,0,0,27,117.75H48A1.75,1.75,0,0,0,49.75,116,6.257,6.257,0,0,1,56,109.75,1.75,1.75,0,0,0,57.75,108V20A1.75,1.75,0,0,0,56,18.25Zm-1.75,88.157a9.778,9.778,0,0,0-7.843,7.843H28.593a9.778,9.778,0,0,0-7.843-7.843V21.593a9.778,9.778,0,0,0,7.843-7.843H46.407a9.778,9.778,0,0,0,7.843,7.843Z"/>
    <path d="M49.117,48.711H25.883a1.75,1.75,0,1,0,0,3.5H49.117a1.75,1.75,0,1,0,0-3.5Z"/>
    <path d="M49.117,62.25H25.883a1.75,1.75,0,1,0,0,3.5H49.117a1.75,1.75,0,0,0,0-3.5Z"/>
    <path d="M49.117,75.789H25.883a1.75,1.75,0,1,0,0,3.5H49.117a1.75,1.75,0,1,0,0-3.5Z"/>
    <path d="M49.117,89.329H25.883a1.75,1.75,0,1,0,0,3.5H49.117a1.75,1.75,0,1,0,0-3.5Z"/>
    <path d="M102.117,89.329H78.883a1.75,1.75,0,0,0,0,3.5h23.234a1.75,1.75,0,0,0,0-3.5Z"/>
    <path d="M43.412,102.868H31.588a1.75,1.75,0,1,0,0,3.5H43.412a1.75,1.75,0,1,0,0-3.5Z"/>
    <path d="M118.75,117.912V10.088a7.847,7.847,0,0,0-7.838-7.838H70.088A7.823,7.823,0,0,0,64,5.161,7.823,7.823,0,0,0,57.912,2.25H17.088A7.847,7.847,0,0,0,9.25,10.088V117.912a7.847,7.847,0,0,0,7.838,7.838H57.912A7.823,7.823,0,0,0,64,122.839a7.823,7.823,0,0,0,6.088,2.911h40.824A7.847,7.847,0,0,0,118.75,117.912ZM57.912,122.25H17.088a4.343,4.343,0,0,1-4.338-4.338V10.088A4.343,4.343,0,0,1,17.088,5.75H57.912a4.343,4.343,0,0,1,4.338,4.338V117.912A4.343,4.343,0,0,1,57.912,122.25Zm7.838-4.338V10.088A4.343,4.343,0,0,1,70.088,5.75h40.824a4.343,4.343,0,0,1,4.338,4.338V117.912a4.343,4.343,0,0,1-4.338,4.338H70.088A4.343,4.343,0,0,1,65.75,117.912Z"/>
    <path d="M109,18.25A6.257,6.257,0,0,1,102.75,12,1.75,1.75,0,0,0,101,10.25H80A1.75,1.75,0,0,0,78.25,12,6.257,6.257,0,0,1,72,18.25,1.75,1.75,0,0,0,70.25,20v88A1.75,1.75,0,0,0,72,109.75,6.257,6.257,0,0,1,78.25,116,1.75,1.75,0,0,0,80,117.75h21a1.75,1.75,0,0,0,1.75-1.75,6.257,6.257,0,0,1,6.25-6.25,1.75,1.75,0,0,0,1.75-1.75V20A1.75,1.75,0,0,0,109,18.25Zm-1.75,88.157a9.778,9.778,0,0,0-7.843,7.843H81.593a9.778,9.778,0,0,0-7.843-7.843V21.593a9.778,9.778,0,0,0,7.843-7.843H99.407a9.778,9.778,0,0,0,7.843,7.843Z"/>
    <path d="M84.588,25.132H96.412a1.75,1.75,0,0,0,0-3.5H84.588a1.75,1.75,0,0,0,0,3.5Z"/>
    <path d="M77.133,36.921a1.749,1.749,0,0,0,1.75,1.75h23.234a1.75,1.75,0,0,0,0-3.5H78.883A1.75,1.75,0,0,0,77.133,36.921Z"/>
    <path d="M102.117,48.711H78.883a1.75,1.75,0,0,0,0,3.5h23.234a1.75,1.75,0,0,0,0-3.5Z"/>
    <path d="M102.117,62.25H78.883a1.75,1.75,0,1,0,0,3.5h23.234a1.75,1.75,0,1,0,0-3.5Z"/>
    <path d="M102.117,75.789H78.883a1.75,1.75,0,0,0,0,3.5h23.234a1.75,1.75,0,0,0,0-3.5Z"/>
    <path d="M96.412,102.868H84.588a1.75,1.75,0,0,0,0,3.5H96.412a1.75,1.75,0,0,0,0-3.5Z"/>
    <path d="M39.25,25.175v-1.8a1.75,1.75,0,1,0-3.5,0v1.8a10.313,10.313,0,0,0-8.551,10H25.883a1.75,1.75,0,0,0,0,3.5H49.117a1.75,1.75,0,0,0,0-3.5H47.8A10.313,10.313,0,0,0,39.25,25.175Zm-8.557,10a6.809,6.809,0,0,1,13.614,0Z"/>
  </g>
</svg>
