<svg xmlns="http://www.w3.org/2000/svg" width="128" height="128" viewBox="0 0 128 128">
  <title>NO SMOKING</title>
  <g>
    <path d="M64,4.557A59.443,59.443,0,1,0,123.443,64,59.51,59.51,0,0,0,64,4.557Zm0,115.386A55.943,55.943,0,1,1,119.943,64,56.006,56.006,0,0,1,64,119.943Z"/>
    <path d="M29.116,35.384a1.75,1.75,0,0,0-2.631.18A46.651,46.651,0,0,0,16.921,64,47.133,47.133,0,0,0,64,111.079a46.651,46.651,0,0,0,28.436-9.564,1.75,1.75,0,0,0,.18-2.631ZM55.623,66.841H31.816V61.159H49.942ZM64,107.579A43.628,43.628,0,0,1,20.421,64a43.153,43.153,0,0,1,7.671-24.69l18.35,18.349H30.066a1.751,1.751,0,0,0-1.75,1.75v9.182a1.751,1.751,0,0,0,1.75,1.75H59.123L88.69,99.908A43.153,43.153,0,0,1,64,107.579Z"/>
    <path d="M64,16.921a46.651,46.651,0,0,0-28.436,9.564,1.75,1.75,0,0,0-.18,2.631l63.5,63.5a1.75,1.75,0,0,0,1.237.512c.04,0,.079,0,.119,0a1.747,1.747,0,0,0,1.275-.688A46.651,46.651,0,0,0,111.079,64,47.133,47.133,0,0,0,64,16.921Zm8.377,44.238H85.036v5.682H78.058ZM99.908,88.69,81.558,70.341h5.228a1.751,1.751,0,0,0,1.75-1.75V59.409a1.751,1.751,0,0,0-1.75-1.75H68.877L39.31,28.092A43.153,43.153,0,0,1,64,20.421,43.628,43.628,0,0,1,107.579,64,43.153,43.153,0,0,1,99.908,88.69Z"/>
    <path d="M97.934,59.831a1.75,1.75,0,0,0-1.75,1.75v4.838a1.75,1.75,0,1,0,3.5,0V61.581A1.75,1.75,0,0,0,97.934,59.831Z"/>
    <path d="M92.36,57.659a1.751,1.751,0,0,0-1.75,1.75v9.182a1.75,1.75,0,0,0,3.5,0V59.409A1.751,1.751,0,0,0,92.36,57.659Z"/>
    <path d="M87.094,45.433a3.52,3.52,0,0,1-3.516-3.516V40.633a1.75,1.75,0,0,0-3.5,0v1.284a7.024,7.024,0,0,0,7.016,7.016,3.52,3.52,0,0,1,3.516,3.516v.056a1.726,1.726,0,0,0,1.75,1.722,1.774,1.774,0,0,0,1.75-1.778A7.024,7.024,0,0,0,87.094,45.433Z"/>
  </g>
</svg>
