<svg xmlns="http://www.w3.org/2000/svg" width="128" height="128" viewBox="0 0 128 128">
  <title>PAYMENT</title>
  <g>
    <path d="M86.054,99.114c1.912-1.444,4.156-4.437,4.52-10.544h10.893a3.989,3.989,0,0,0,3.99-3.98V6.24a4,4,0,0,0-3.99-3.99H55.117a4,4,0,0,0-3.99,3.99V44.79L32.909,63.008a10.319,10.319,0,0,0-3.043,7.345v39.309H27.352a4.814,4.814,0,0,0-4.809,4.809v6.47a4.814,4.814,0,0,0,4.809,4.809h58.47a4.814,4.814,0,0,0,4.809-4.809v-6.47a4.814,4.814,0,0,0-4.809-4.809H83.308V104.61A6.922,6.922,0,0,1,86.054,99.114ZM54.627,6.24a.486.486,0,0,1,.49-.49h46.35a.486.486,0,0,1,.49.49V84.59a.486.486,0,0,1-.49.48H61.555c1.708-2.965,3-6.645,2.724-10.052l2.561-2.561A5.844,5.844,0,0,1,68.632,75.5a3.924,3.924,0,0,0,3.835,3.067h11.65a3.925,3.925,0,0,0,3.836-3.07,5.917,5.917,0,0,1,4.437-4.425,3.925,3.925,0,0,0,3.067-3.835V23.59a3.926,3.926,0,0,0-3.07-3.836,5.925,5.925,0,0,1-4.435-4.437,3.925,3.925,0,0,0-3.835-3.067H72.467a3.926,3.926,0,0,0-3.836,3.071,5.924,5.924,0,0,1-4.437,4.434,3.925,3.925,0,0,0-3.067,3.835V54.455l-6.5,6.5V6.24ZM69.584,69.718a11.183,11.183,0,0,0-.745-16.528,5.553,5.553,0,0,0-4.212-.9V23.59a.44.44,0,0,1,.35-.424A9.437,9.437,0,0,0,72.042,16.1a.443.443,0,0,1,.425-.353h11.65a.442.442,0,0,1,.424.35A9.44,9.44,0,0,0,91.6,23.165a.442.442,0,0,1,.353.425V67.24a.441.441,0,0,1-.349.424,9.429,9.429,0,0,0-7.066,7.054.442.442,0,0,1-.425.352H72.467a.439.439,0,0,1-.423-.345,9.352,9.352,0,0,0-2.722-4.745Zm17.547,44.753v6.47a1.31,1.31,0,0,1-1.309,1.309H27.352a1.31,1.31,0,0,1-1.309-1.309v-6.47a1.31,1.31,0,0,1,1.309-1.309h58.47A1.31,1.31,0,0,1,87.131,114.471Zm-53.765-4.809V70.353a6.848,6.848,0,0,1,2.018-4.871L51.127,49.739V64.456L40.54,75.043a1.75,1.75,0,0,0,2.475,2.475l21.239-21.24a2.021,2.021,0,0,1,2.831-.02,7.755,7.755,0,0,1,.024,10.98c-5.614,5.615-1.994,1.993-5.919,5.913a1.794,1.794,0,0,0-.463,1.654c.89,3.852-2.339,9.331-5.044,12.515a10.46,10.46,0,0,0-2.505,6.759v4.172a1.75,1.75,0,0,0,3.5,0V94.079a6.95,6.95,0,0,1,1.673-4.493c.291-.343.558-.68.823-1.016h27.9c-.249,3.722-1.317,6.383-3.129,7.749a10.441,10.441,0,0,0-4.138,8.291v5.052Z"/>
    <path d="M87.337,45.412a9.044,9.044,0,1,0-9.044,9.044A9.055,9.055,0,0,0,87.337,45.412Zm-14.588,0a5.544,5.544,0,1,1,5.544,5.544A5.55,5.55,0,0,1,72.749,45.412Z"/>
    <path d="M80.319,116.47a1.747,1.747,0,1,0,2.471,0A1.807,1.807,0,0,0,80.319,116.47Z"/>
    <path d="M30.38,116.47a1.746,1.746,0,0,0,2.47,2.469,1.746,1.746,0,1,0-2.47-2.469Z"/>
  </g>
</svg>
