<svg xmlns="http://www.w3.org/2000/svg" width="128" height="128" viewBox="0 0 128 128">
  <title>PILLOWS</title>
  <path d="M123.441,64A96.433,96.433,0,0,0,120.5,40.44a37.59,37.59,0,0,0,2.938-14.761,1.75,1.75,0,0,0-1.688-1.709c-.353-.013-8.5-.249-15.264,3.578-3.532-1-18.9-4.94-42.488-4.94s-38.956,3.937-42.488,4.94C14.745,23.721,6.6,23.961,6.248,23.97A1.75,1.75,0,0,0,4.56,25.679,37.59,37.59,0,0,0,7.5,40.44a95.9,95.9,0,0,0,0,47.12A37.59,37.59,0,0,0,4.56,102.321a1.75,1.75,0,0,0,1.688,1.709c.351.011,8.5.248,15.264-3.578,3.532,1,18.9,4.94,42.488,4.94s38.956-3.937,42.488-4.94c6.767,3.827,14.912,3.592,15.264,3.578a1.75,1.75,0,0,0,1.688-1.709A37.59,37.59,0,0,0,120.5,87.56,96.433,96.433,0,0,0,123.441,64ZM21.278,96.808a1.752,1.752,0,0,0-.919.26c-4.28,2.64-9.574,3.276-12.256,3.424A32.213,32.213,0,0,1,10.926,88.5a1.754,1.754,0,0,0,.112-1.269,92.094,92.094,0,0,1,0-46.468,1.754,1.754,0,0,0-.112-1.269A32.364,32.364,0,0,1,8.1,27.508c2.684.148,7.976.785,12.255,3.424a1.759,1.759,0,0,0,1.441.18,127.236,127.236,0,0,1,21.807-3.941C41.63,32.055,38.317,43.323,38.317,64s3.313,31.945,5.29,36.829A127.236,127.236,0,0,1,21.8,96.888,1.727,1.727,0,0,0,21.278,96.808Zm26.333,4.4C46.255,98.429,41.817,87.528,41.817,64s4.438-34.43,5.794-37.21c4.888-.412,10.372-.682,16.389-.682s11.5.27,16.389.682c1.356,2.781,5.794,13.682,5.794,37.21S81.74,98.441,80.39,101.21c-4.888.412-10.372.682-16.39.682S52.5,101.622,47.611,101.21ZM117.074,88.5a32.339,32.339,0,0,1,2.821,11.989c-2.683-.148-7.975-.785-12.254-3.424a1.753,1.753,0,0,0-1.441-.18,127.236,127.236,0,0,1-21.807,3.941c1.977-4.884,5.29-16.152,5.29-36.829s-3.313-31.945-5.29-36.829A127.236,127.236,0,0,1,106.2,31.112a1.76,1.76,0,0,0,1.441-.18c4.28-2.64,9.574-3.276,12.256-3.424A32.213,32.213,0,0,1,117.074,39.5a1.754,1.754,0,0,0-.112,1.269,92.094,92.094,0,0,1,0,46.468A1.754,1.754,0,0,0,117.074,88.5Z"/>
</svg>
