<svg xmlns="http://www.w3.org/2000/svg" width="128" height="128" viewBox="0 0 128 128">
  <title>PLACEHOLDER</title>
  <g>
    <path d="M72.261,21.536A8.261,8.261,0,1,0,64,29.8,8.271,8.271,0,0,0,72.261,21.536Zm-13.022,0A4.761,4.761,0,1,1,64,26.3,4.767,4.767,0,0,1,59.239,21.536Z"/>
    <path d="M121.693,58.676H98.315V41.908a1.749,1.749,0,0,0-1.75-1.75H74.78c3.307-5.351,6.2-11.939,6.2-18.622a16.979,16.979,0,1,0-33.957,0c0,6.683,2.891,13.271,6.2,18.622H31.435a1.749,1.749,0,0,0-1.75,1.75V58.676H6.307a1.75,1.75,0,0,0-1.75,1.75v61.267a1.75,1.75,0,0,0,1.75,1.75H121.693a1.75,1.75,0,0,0,1.75-1.75V60.426A1.75,1.75,0,0,0,121.693,58.676ZM64,8.057A13.494,13.494,0,0,1,77.478,21.536c0,11.408-9.957,23.127-13.479,26.915-3.523-3.784-13.478-15.488-13.478-26.915A13.5,13.5,0,0,1,64,8.057ZM8.057,62.176H29.685v57.767H8.057ZM33.185,43.658H55.554a67.154,67.154,0,0,0,7.23,8.57,1.749,1.749,0,0,0,2.432,0,67.247,67.247,0,0,0,7.23-8.57H94.815v76.285H79.8V94.2a1.75,1.75,0,0,0-1.75-1.75H49.954A1.75,1.75,0,0,0,48.2,94.2v25.743H33.185ZM76.3,119.943H51.7V95.95H76.3Zm43.647,0H98.315V62.176h21.628Z"/>
    <path d="M60.262,69.652h7.476a1.749,1.749,0,0,0,1.75-1.75V60.426a1.75,1.75,0,0,0-1.75-1.75H60.262a1.75,1.75,0,0,0-1.75,1.75V67.9A1.749,1.749,0,0,0,60.262,69.652Zm1.75-7.476h3.976v3.976H62.012Z"/>
    <path d="M60.262,85.8h7.476a1.75,1.75,0,0,0,1.75-1.75V76.578a1.75,1.75,0,0,0-1.75-1.75H60.262a1.75,1.75,0,0,0-1.75,1.75v7.476A1.75,1.75,0,0,0,60.262,85.8Zm1.75-7.476h3.976V82.3H62.012Z"/>
    <path d="M44.11,69.652h7.476a1.749,1.749,0,0,0,1.75-1.75V60.426a1.75,1.75,0,0,0-1.75-1.75H44.11a1.751,1.751,0,0,0-1.75,1.75V67.9A1.75,1.75,0,0,0,44.11,69.652Zm1.75-7.476h3.976v3.976H45.86Z"/>
    <path d="M76.414,69.652H83.89a1.75,1.75,0,0,0,1.75-1.75V60.426a1.751,1.751,0,0,0-1.75-1.75H76.414a1.75,1.75,0,0,0-1.75,1.75V67.9A1.749,1.749,0,0,0,76.414,69.652Zm1.75-7.476H82.14v3.976H78.164Z"/>
    <path d="M51.586,85.8a1.75,1.75,0,0,0,1.75-1.75V76.578a1.75,1.75,0,0,0-1.75-1.75H44.11a1.751,1.751,0,0,0-1.75,1.75v7.476a1.751,1.751,0,0,0,1.75,1.75ZM45.86,78.328h3.976V82.3H45.86Z"/>
    <path d="M76.414,85.8H83.89a1.751,1.751,0,0,0,1.75-1.75V76.578a1.751,1.751,0,0,0-1.75-1.75H76.414a1.75,1.75,0,0,0-1.75,1.75v7.476A1.75,1.75,0,0,0,76.414,85.8Zm1.75-7.476H82.14V82.3H78.164Z"/>
  </g>
</svg>
