<svg xmlns="http://www.w3.org/2000/svg" width="128" height="128" viewBox="0 0 128 128">
  <title>ROOM KEYX</title>
  <g>
    <path d="M24.739,49.23h7.252V117.5a4.007,4.007,0,0,0,1.293,2.944l4.62,4.25a4.024,4.024,0,0,0,5.415,0l4.122-3.791a3.35,3.35,0,0,0,.1-4.83l-2.581-2.581,3.1-3.111a3.974,3.974,0,0,0,1.168-2.825V101.2a3.972,3.972,0,0,0-1.168-2.824l-3.1-3.111,2.628-2.629a3.343,3.343,0,0,0,0-4.734l-2.628-2.628,3.1-3.1a3.973,3.973,0,0,0,1.171-2.828V49.23h7.247a7.444,7.444,0,0,0,3.848-1.068l9.142,21.315a5.693,5.693,0,0,0,7.468,2.984l30.378-13.03a5.683,5.683,0,0,0,2.985-7.468L93.674,13.2a5.987,5.987,0,0,0-3.037-3.1h0L75.385,3.181a6.025,6.025,0,0,0-4.845-.05L61.491,7.013a6.015,6.015,0,0,0-3.3,3.545l-1.119,3.219c-.2-.016-.392-.047-.59-.047h-2.6a.17.17,0,0,1-.167-.1,13.226,13.226,0,0,0-26.193,0,.17.17,0,0,1-.166.1h-2.6a7.518,7.518,0,0,0-7.51,7.51V41.73A7.508,7.508,0,0,0,24.739,49.23ZM45.732,79.346a.505.505,0,0,1-.146.354L42.38,82.906a3.346,3.346,0,0,0,0,4.734l2.627,2.627L42.378,92.9a3.352,3.352,0,0,0,0,4.731l3.21,3.218a.5.5,0,0,1,.146.353v6.358a.5.5,0,0,1-.146.354l-3.21,3.217a3.352,3.352,0,0,0,0,4.731l2.577,2.577-4,3.683a.5.5,0,0,1-.677,0l-4.621-4.251a.5.5,0,0,1-.161-.367V49.23H45.732ZM61.494,11.707a2.506,2.506,0,0,1,1.377-1.478L71.92,6.348a2.5,2.5,0,0,1,2.019.021l15.252,6.92h0a2.493,2.493,0,0,1,1.265,1.292l16.626,38.762a2.185,2.185,0,0,1-1.147,2.871L75.558,69.244A2.189,2.189,0,0,1,72.686,68.1C71.144,64.5,78.564,81.8,56.056,29.324a2.571,2.571,0,0,1-.044-1.846A24.122,24.122,0,0,0,68.7,24.394a6,6,0,0,0,5.882.648h0A6.039,6.039,0,1,0,66.548,21.6a20.642,20.642,0,0,1-9.314,2.368ZM73.2,21.826a2.539,2.539,0,1,1,1.332-3.334A2.542,2.542,0,0,1,73.2,21.826ZM20.739,21.24a4.015,4.015,0,0,1,4.01-4.01h2.6a3.66,3.66,0,0,0,3.632-3.113,9.726,9.726,0,0,1,19.261,0,3.66,3.66,0,0,0,3.633,3.113h1.989l-2.293,6.595c-3.875-.44-7.238-1.753-9.26-3.585a6.029,6.029,0,1,0-3.7,1.277c.039,0,.078,0,.117-.006,2.328,2.91,6.618,4.988,11.75,5.7a6.113,6.113,0,0,0,.364,3.5C61.172,50.15,58.3,43.446,58.92,44.9a3.937,3.937,0,0,1-2.441.834c-7.4,0-29.687,0-31.74,0a4,4,0,0,1-4-4Zm19.873-3.223a2.539,2.539,0,1,1,2.539-2.538A2.542,2.542,0,0,1,40.612,18.017Z"/>
    <path d="M72.542,43.664l4.33,10.095a4.216,4.216,0,0,0,5.529,2.21l9.2-3.941A4.217,4.217,0,0,0,93.81,46.5L89.487,36.411A4.215,4.215,0,0,0,83.961,34.2l-9.2,3.934A4.21,4.21,0,0,0,72.542,43.664Zm3.591-2.313h0l9.2-3.935a.71.71,0,0,1,.932.374l4.323,10.087a.713.713,0,0,1-.374.934l-9.2,3.941a.712.712,0,0,1-.933-.373l-4.33-10.095A.711.711,0,0,1,76.133,41.351Z"/>
    <path d="M36.361,38.8h7.256a5.249,5.249,0,1,0,0-10.5H36.361a5.249,5.249,0,0,0,0,10.5Zm0-7h7.256a1.749,1.749,0,1,1,0,3.5H36.361a1.749,1.749,0,0,1,0-3.5Z"/>
  </g>
</svg>
