<svg xmlns="http://www.w3.org/2000/svg" width="128" height="128" viewBox="0 0 128 128">
  <title>SAFEBOX</title>
  <g>
    <path d="M120.383,18.427H7.617A5.373,5.373,0,0,0,2.25,23.794V97.029A5.374,5.374,0,0,0,7.617,102.4H12.1v2.934a4.247,4.247,0,0,0,4.243,4.242h9.926a4.248,4.248,0,0,0,4.243-4.242V102.4h66.97v2.934a4.248,4.248,0,0,0,4.243,4.242h9.926a4.247,4.247,0,0,0,4.243-4.242V102.4h4.486a5.374,5.374,0,0,0,5.367-5.368V23.794A5.373,5.373,0,0,0,120.383,18.427Zm-93.368,86.9a.743.743,0,0,1-.743.742H16.346a.743.743,0,0,1-.743-.742V102.4H27.015Zm85.382,0a.743.743,0,0,1-.743.742h-9.926a.743.743,0,0,1-.743-.742V102.4H112.4Zm9.853-8.3a1.869,1.869,0,0,1-1.867,1.868H7.617A1.869,1.869,0,0,1,5.75,97.029V23.794a1.87,1.87,0,0,1,1.867-1.867H120.383a1.87,1.87,0,0,1,1.867,1.867Z"/>
    <path d="M109.74,30.422H18.26a4.019,4.019,0,0,0-4.01,4.019v3.077a3.646,3.646,0,0,0-3.61,3.64V47.7a3.644,3.644,0,0,0,3.61,3.639V69.489a3.645,3.645,0,0,0-3.61,3.64v6.536a3.646,3.646,0,0,0,3.61,3.64v3.077A4.019,4.019,0,0,0,18.26,90.4h91.48a4.019,4.019,0,0,0,4.01-4.019V34.441A4.019,4.019,0,0,0,109.74,30.422ZM14.14,47.7V41.158a.143.143,0,0,1,.143-.143h3.434a.145.145,0,0,1,.143.147v6.529a.145.145,0,0,1-.143.147H14.283A.143.143,0,0,1,14.14,47.7Zm0,31.97V73.129a.144.144,0,0,1,.143-.144h3.434a.168.168,0,0,1,.143.147v6.53a.169.169,0,0,1-.143.147H14.283A.144.144,0,0,1,14.14,79.665Zm96.11,6.717a.515.515,0,0,1-.51.519H18.26a.515.515,0,0,1-.51-.519v-3.07a3.629,3.629,0,0,0,3.571-3.258,3.583,3.583,0,0,0,.039-.389V73.129a3.675,3.675,0,0,0-3.61-3.648V51.342A3.669,3.669,0,0,0,21.36,47.7V41.158a3.673,3.673,0,0,0-3.61-3.646V34.441a.515.515,0,0,1,.51-.519h91.48a.515.515,0,0,1,.51.519Z"/>
    <path d="M88.539,44.573H39.461a3.076,3.076,0,0,0-2.893,2.043,41.373,41.373,0,0,0,0,27.591,3.074,3.074,0,0,0,2.893,2.043H88.539a3.074,3.074,0,0,0,2.893-2.043,41.373,41.373,0,0,0,0-27.591A3.076,3.076,0,0,0,88.539,44.573ZM88.233,72.75H39.767a37.859,37.859,0,0,1,0-24.677H88.233A37.859,37.859,0,0,1,88.233,72.75Z"/>
    <path d="M76.044,50.691a9.721,9.721,0,1,0,9.721,9.721A9.732,9.732,0,0,0,76.044,50.691Zm-6.221,9.721a6.23,6.23,0,0,1,4.471-5.966V66.378A6.23,6.23,0,0,1,69.823,60.412Zm7.971,5.966V54.446a6.216,6.216,0,0,1,0,11.932Z"/>
    <path d="M45.691,50.691H43.985a1.75,1.75,0,0,0,0,3.5h1.706a1.75,1.75,0,0,0,0-3.5Z"/>
    <path d="M53.677,50.691H51.971a1.75,1.75,0,0,0,0,3.5h1.706a1.75,1.75,0,0,0,0-3.5Z"/>
    <path d="M61.662,50.691H59.956a1.75,1.75,0,0,0,0,3.5h1.706a1.75,1.75,0,1,0,0-3.5Z"/>
    <path d="M45.691,58.662H43.985a1.75,1.75,0,0,0,0,3.5h1.706a1.75,1.75,0,0,0,0-3.5Z"/>
    <path d="M53.677,58.662H51.971a1.75,1.75,0,0,0,0,3.5h1.706a1.75,1.75,0,0,0,0-3.5Z"/>
    <path d="M61.662,58.662H59.956a1.75,1.75,0,0,0,0,3.5h1.706a1.75,1.75,0,0,0,0-3.5Z"/>
    <path d="M45.691,66.633H43.985a1.75,1.75,0,0,0,0,3.5h1.706a1.75,1.75,0,0,0,0-3.5Z"/>
    <path d="M53.677,66.633H51.971a1.75,1.75,0,1,0,0,3.5h1.706a1.75,1.75,0,1,0,0-3.5Z"/>
    <path d="M61.662,66.633H59.956a1.75,1.75,0,0,0,0,3.5h1.706a1.75,1.75,0,0,0,0-3.5Z"/>
  </g>
</svg>
