<svg xmlns="http://www.w3.org/2000/svg" width="128" height="128" viewBox="0 0 128 128">
  <title>SHAMPOO</title>
  <g>
    <path d="M85.5,5.606a1.75,1.75,0,0,0-1.6-1.049H44.105a1.75,1.75,0,0,0-1.6,1.049,160.889,160.889,0,0,0,0,116.788,1.75,1.75,0,0,0,1.6,1.049H83.9a1.75,1.75,0,0,0,1.6-1.049A162.094,162.094,0,0,0,96.469,64,162.094,162.094,0,0,0,85.5,5.606ZM74.135,8.057,72.949,15h-17.9L53.865,8.057Zm-28.855,0h5.034L51.85,17.04A1.75,1.75,0,0,0,53.575,18.5h20.85A1.75,1.75,0,0,0,76.15,17.04l1.536-8.983H82.72A144.743,144.743,0,0,1,88.9,28.619H39.1A144.743,144.743,0,0,1,45.28,8.057ZM82.72,119.943H45.28A160.638,160.638,0,0,1,35.031,64a159.729,159.729,0,0,1,3.313-31.881H89.656A159.729,159.729,0,0,1,92.969,64,160.638,160.638,0,0,1,82.72,119.943Z"/>
    <path d="M64,52.116c-10.353,0-18.775,10.729-18.775,23.915S53.647,99.946,64,99.946,82.775,89.218,82.775,76.031,74.353,52.116,64,52.116Zm0,44.33c-8.423,0-15.275-9.158-15.275-20.415S55.577,55.616,64,55.616s15.275,9.158,15.275,20.415S72.423,96.446,64,96.446Z"/>
  </g>
</svg>
