<svg xmlns="http://www.w3.org/2000/svg" width="128" height="128" viewBox="0 0 128 128">
  <title>SIGNAGE</title>
  <g>
    <path d="M122.25,12.493H71.062V1.747A1.749,1.749,0,0,0,69.312,0H58.687a1.75,1.75,0,0,0-1.75,1.75V12.493H5.75A5.757,5.757,0,0,0,0,18.243V71a5.757,5.757,0,0,0,5.75,5.75H56.937v49.5a1.75,1.75,0,0,0,1.75,1.75H69.312a1.749,1.749,0,0,0,1.75-1.75v-49.5H122.25A5.756,5.756,0,0,0,128,71V18.243A5.756,5.756,0,0,0,122.25,12.493Zm-61.813-9h7.125v9H60.437Zm7.125,121H60.437V76.747h7.125ZM124.5,71a2.253,2.253,0,0,1-2.25,2.25H5.75A2.253,2.253,0,0,1,3.5,71V18.243a2.253,2.253,0,0,1,2.25-2.25h116.5a2.253,2.253,0,0,1,2.25,2.25Z"/>
    <path d="M118.25,20.493H9.75A1.75,1.75,0,0,0,8,22.243V67a1.75,1.75,0,0,0,1.75,1.75h108.5A1.749,1.749,0,0,0,120,67V22.243A1.749,1.749,0,0,0,118.25,20.493ZM116.5,65.247H11.5V23.993h105Z"/>
    <path d="M17.75,60.747A1.75,1.75,0,0,0,19.5,59V46.37H30.081V59a1.75,1.75,0,1,0,3.5,0V30.243a1.75,1.75,0,0,0-3.5,0V42.87H19.5V30.243a1.75,1.75,0,1,0-3.5,0V59A1.75,1.75,0,0,0,17.75,60.747Z"/>
    <path d="M37.355,60.747h14.08A1.75,1.75,0,0,0,53.185,59V30.243a1.75,1.75,0,0,0-1.75-1.75H37.355a1.75,1.75,0,0,0-1.75,1.75V59A1.75,1.75,0,0,0,37.355,60.747ZM39.1,31.993h10.58V57.247H39.1Z"/>
    <path d="M56.96,31.993h5.29V59a1.75,1.75,0,0,0,3.5,0v-27h5.29a1.75,1.75,0,0,0,0-3.5H56.96a1.75,1.75,0,0,0,0,3.5Z"/>
    <path d="M76.564,60.747H90.645a1.75,1.75,0,0,0,0-3.5H78.314V46.37H90.645a1.75,1.75,0,0,0,0-3.5H78.314V31.993H90.645a1.75,1.75,0,0,0,0-3.5H76.564a1.75,1.75,0,0,0-1.75,1.75V59A1.75,1.75,0,0,0,76.564,60.747Z"/>
    <path d="M96.17,60.747h14.08a1.75,1.75,0,0,0,0-3.5H97.92v-27a1.75,1.75,0,1,0-3.5,0V59A1.749,1.749,0,0,0,96.17,60.747Z"/>
  </g>
</svg>
