<svg xmlns="http://www.w3.org/2000/svg" width="128" height="128" viewBox="0 0 128 128">
  <title>SLIPPERS</title>
  <g>
    <path d="M116.048,12.987A26.989,26.989,0,0,0,69.5,33.013l3.724,68.433a23.26,23.26,0,0,0,46.451,0L123.4,33.014A26.739,26.739,0,0,0,116.048,12.987ZM74.6,62.25,73.3,38.405A56.95,56.95,0,0,1,96.452,33.85,57.192,57.192,0,0,1,119.6,38.409l-1.3,23.841Zm36.007,3.5-1.911,35.1a12.26,12.26,0,0,1-24.484,0L82.3,65.75Zm-25.762-45.2A15.984,15.984,0,0,1,112.42,32.27a67.352,67.352,0,0,0-31.934,0A15.834,15.834,0,0,1,84.843,20.552ZM79.4,15.4a23.49,23.49,0,0,1,40.511,17.429l-.1,1.85c-1.014-.423-2.331-.919-3.93-1.428l.035-.64a19.489,19.489,0,1,0-38.921,0l.035.642c-1.6.509-2.915,1-3.929,1.428L73,32.823A23.275,23.275,0,0,1,79.4,15.4ZM96.452,119.943a19.763,19.763,0,0,1-19.731-18.686L74.789,65.75H78.8l1.921,35.289a15.759,15.759,0,0,0,31.472,0l1.921-35.289h4.007l-1.932,35.507A19.764,19.764,0,0,1,96.452,119.943Z"/>
    <path d="M31.548,4.557A26.989,26.989,0,0,0,4.6,33.013l3.724,68.433a23.26,23.26,0,0,0,46.451,0L58.5,33.014A26.988,26.988,0,0,0,31.548,4.557Zm-11.611,16A15.984,15.984,0,0,1,47.514,32.27a65.7,65.7,0,0,0-15.966-1.92A65.721,65.721,0,0,0,15.58,32.27,15.838,15.838,0,0,1,19.937,20.552Zm11.611,13.3A57.223,57.223,0,0,1,54.7,38.408L53.4,62.25H9.693L8.4,38.409A57.21,57.21,0,0,1,31.548,33.85ZM45.7,65.75l-1.91,35.1a12.26,12.26,0,0,1-24.484,0L17.4,65.75ZM31.548,119.943a19.764,19.764,0,0,1-19.732-18.686L9.884,65.75h4.007l1.919,35.289a15.76,15.76,0,0,0,31.473,0L49.2,65.75h4.007l-1.932,35.507A19.763,19.763,0,0,1,31.548,119.943ZM55,32.824l-.1,1.85c-1.014-.423-2.33-.919-3.929-1.428l.035-.64A19.489,19.489,0,0,0,17.4,18.146,19.306,19.306,0,0,0,12.087,32.6l.035.641c-1.6.509-2.916,1-3.93,1.428l-.1-1.851A23.491,23.491,0,0,1,31.548,8.057,23.492,23.492,0,0,1,55,32.824Z"/>
  </g>
</svg>
