<svg xmlns="http://www.w3.org/2000/svg" width="128" height="128" viewBox="0 0 128 128">
  <title>SOAP</title>
  <g>
    <path d="M12.838,125.75H115.162a10.6,10.6,0,0,0,10.588-10.588,3.624,3.624,0,0,0-3.62-3.62h-8.063a8.11,8.11,0,0,0,1.472-4.662V46.22A17.881,17.881,0,0,0,98.063,28.37V24.817a4.251,4.251,0,0,0-4.246-4.245h-.284V15.064h1.041a3.749,3.749,0,0,0,3.489-3.957v-4.9A3.749,3.749,0,0,0,94.574,2.25H69.9a3.767,3.767,0,0,0-3.5,3.977v1.3a4.193,4.193,0,0,0,1.268,3.07L70.7,13.441a5.8,5.8,0,0,0,3.953,1.623h7.727v5.508h-.284a4.25,4.25,0,0,0-4.245,4.245V28.37a17.881,17.881,0,0,0-17.48,17.85V71.9H35.217a6.4,6.4,0,0,0-5.134-2.587,6.5,6.5,0,0,0-1.249.121,6.395,6.395,0,0,0-11.912,0A6.4,6.4,0,0,0,12.46,81.251V105.76a9.227,9.227,0,0,0,2.034,5.782H5.87a3.624,3.624,0,0,0-3.62,3.62A10.6,10.6,0,0,0,12.838,125.75ZM80.62,105.76V84.09h31.419v22.79a4.665,4.665,0,0,1-4.66,4.66H78.594A9.332,9.332,0,0,0,80.62,105.76ZM73.089,10.885,70.056,8.046a.78.78,0,0,1-.159-.514v-1.3a.855.855,0,0,1,.127-.477h24.42a.838.838,0,0,1,.119.457v4.9a.838.838,0,0,1-.119.457H74.651A2.3,2.3,0,0,1,73.089,10.885Zm12.789,4.179h4.155v5.508H85.878Zm-3.784,9.008H93.817a.747.747,0,0,1,.746.745V28.35H81.349V24.817A.746.746,0,0,1,82.094,24.072ZM78.239,31.85c5.048,0,20.415,0,19.43,0a14.386,14.386,0,0,1,14.37,14.37V59.31H63.869V46.22A14.386,14.386,0,0,1,78.239,31.85ZM63.869,62.81h48.17V80.59H80.6A9.315,9.315,0,0,0,71.352,71.9H63.869ZM36.483,75.4H71.339a5.786,5.786,0,0,1,5.78,5.78v24.58a5.787,5.787,0,0,1-5.78,5.78H21.74a5.787,5.787,0,0,1-5.78-5.78V82.113c.365-.016.851-.1.952-.115a6.394,6.394,0,0,0,11.911,0A6.415,6.415,0,0,0,36.483,75.4ZM17.246,73.286a1.776,1.776,0,0,0,2.725-1.511,2.9,2.9,0,1,1,5.806.056,1.753,1.753,0,0,0,2.715,1.454,2.9,2.9,0,1,1,.013,4.862A1.753,1.753,0,0,0,25.777,79.6a3,3,0,0,1-2.907,2.96,2.918,2.918,0,0,1-2.9-2.967,1.756,1.756,0,0,0-2.74-1.447,2.9,2.9,0,1,1,.015-4.86ZM5.87,115.042H122.13a.12.12,0,0,1,.12.12,7.1,7.1,0,0,1-7.088,7.088H12.838a7.1,7.1,0,0,1-7.088-7.088A.12.12,0,0,1,5.87,115.042Z"/>
    <path d="M29.212,91.545v3.849a6.61,6.61,0,0,0,6.6,6.6H57.266a6.61,6.61,0,0,0,6.6-6.6V91.545a6.61,6.61,0,0,0-6.6-6.6H35.815A6.61,6.61,0,0,0,29.212,91.545Zm31.157,0v3.849a3.106,3.106,0,0,1-3.1,3.1H35.815a3.106,3.106,0,0,1-3.1-3.1V91.545a3.107,3.107,0,0,1,3.1-3.1H57.266A3.107,3.107,0,0,1,60.369,91.545Z"/>
    <path d="M35.405,56.072A6.193,6.193,0,1,0,41.6,62.265,6.2,6.2,0,0,0,35.405,56.072Zm0,8.886A2.693,2.693,0,1,1,38.1,62.265,2.7,2.7,0,0,1,35.405,64.958Z"/>
    <path d="M48.454,56.021a8.166,8.166,0,1,0-8.166-8.166A8.175,8.175,0,0,0,48.454,56.021Zm0-12.832a4.666,4.666,0,1,1-4.666,4.666A4.671,4.671,0,0,1,48.454,43.189Z"/>
    <path d="M87.954,78.022a6.327,6.327,0,1,0-6.327-6.327A6.334,6.334,0,0,0,87.954,78.022Zm0-9.154a2.827,2.827,0,1,1-2.827,2.827A2.83,2.83,0,0,1,87.954,68.868Z"/>
  </g>
</svg>
