<svg xmlns="http://www.w3.org/2000/svg" width="128" height="128" viewBox="0 0 128 128">
  <title>SUNBED</title>
  <path d="M118.059,80.4l2.829-3.594a6.692,6.692,0,0,0,1.393-4.984,6.769,6.769,0,0,0-2.579-4.547,36.455,36.455,0,0,0-22.6-7.755H46.12L18.483,31.888a6.757,6.757,0,0,0-9.546,0L5.069,35.756a1.75,1.75,0,0,0,0,2.474L25.7,58.86,17.086,73.919A26.35,26.35,0,0,0,4.557,96.339a1.749,1.749,0,0,0,1.75,1.75h7.915a1.75,1.75,0,0,0,1.75-1.75A14.946,14.946,0,0,1,30.9,81.41H97.1a14.946,14.946,0,0,1,14.929,14.929,1.749,1.749,0,0,0,1.75,1.75h7.915a1.749,1.749,0,0,0,1.75-1.75A26.2,26.2,0,0,0,118.059,80.4ZM11.412,34.362a3.257,3.257,0,0,1,4.6,0l28.149,28.15a1.751,1.751,0,0,0,1.237.512H97.1a32.983,32.983,0,0,1,20.453,7.017,3.288,3.288,0,0,1,1.255,2.209,3.221,3.221,0,0,1-.669,2.4l-2.419,3.072A26.266,26.266,0,0,0,97.1,69.994H41.783l-33-33ZM28.265,61.426l8.569,8.568H30.9a26.235,26.235,0,0,0-8.309,1.35Zm87.181,33.163A18.456,18.456,0,0,0,97.1,77.91H30.9A18.456,18.456,0,0,0,12.554,94.589H8.123A22.875,22.875,0,0,1,30.9,73.494H97.1a22.876,22.876,0,0,1,22.778,21.1Z"/>
</svg>
