<svg xmlns="http://www.w3.org/2000/svg" width="128" height="128" viewBox="0 0 128 128">
  <title>SWIMMING</title>
  <g>
    <path d="M121.693,119.943a12.479,12.479,0,0,1-6.232-1.67,6.773,6.773,0,0,0-6.768,0,12.665,12.665,0,0,1-12.463,0,6.776,6.776,0,0,0-6.767,0,12.669,12.669,0,0,1-12.464,0,6.773,6.773,0,0,0-6.768,0,12.663,12.663,0,0,1-12.462,0,6.778,6.778,0,0,0-6.768,0,12.669,12.669,0,0,1-12.464,0,6.773,6.773,0,0,0-6.768,0,12.663,12.663,0,0,1-12.462,0,6.778,6.778,0,0,0-6.768,0,12.47,12.47,0,0,1-6.232,1.671,1.75,1.75,0,0,0,0,3.5,15.971,15.971,0,0,0,7.984-2.141,3.314,3.314,0,0,1,3.264,0,16.216,16.216,0,0,0,15.966,0,3.316,3.316,0,0,1,3.264,0,16.217,16.217,0,0,0,15.968,0,3.314,3.314,0,0,1,3.264,0,16.216,16.216,0,0,0,15.966,0,3.316,3.316,0,0,1,3.264,0,16.217,16.217,0,0,0,15.968,0,3.312,3.312,0,0,1,3.263,0,16.218,16.218,0,0,0,15.967,0,3.314,3.314,0,0,1,3.264,0,15.971,15.971,0,0,0,7.984,2.141,1.75,1.75,0,0,0,0-3.5Z"/>
    <path d="M121.693,101.141a12.47,12.47,0,0,1-6.232-1.671,6.773,6.773,0,0,0-6.768,0,12.662,12.662,0,0,1-12.463,0,6.776,6.776,0,0,0-6.767,0A12.664,12.664,0,0,1,77,99.47a6.773,6.773,0,0,0-6.768,0,12.66,12.66,0,0,1-12.462,0,6.778,6.778,0,0,0-6.768,0,12.664,12.664,0,0,1-12.464,0,6.773,6.773,0,0,0-6.768,0,12.66,12.66,0,0,1-12.462,0,6.775,6.775,0,0,0-6.768,0,12.47,12.47,0,0,1-6.232,1.671,1.75,1.75,0,0,0,0,3.5,15.972,15.972,0,0,0,7.984-2.142,3.319,3.319,0,0,1,3.264,0,16.216,16.216,0,0,0,15.966,0,3.316,3.316,0,0,1,3.264,0,16.217,16.217,0,0,0,15.968,0,3.319,3.319,0,0,1,3.264,0,16.216,16.216,0,0,0,15.966,0,3.316,3.316,0,0,1,3.264,0,16.217,16.217,0,0,0,15.968,0,3.317,3.317,0,0,1,3.263,0,16.218,16.218,0,0,0,15.967,0,3.314,3.314,0,0,1,3.264,0,15.981,15.981,0,0,0,7.984,2.141,1.75,1.75,0,0,0,0-3.5Z"/>
    <path d="M121.693,82.338a12.469,12.469,0,0,1-6.232-1.67,6.773,6.773,0,0,0-6.768,0,12.66,12.66,0,0,1-12.463,0,6.776,6.776,0,0,0-6.767,0,12.664,12.664,0,0,1-12.464,0,6.773,6.773,0,0,0-6.768,0,12.658,12.658,0,0,1-12.462,0,6.778,6.778,0,0,0-6.768,0,12.664,12.664,0,0,1-12.464,0,6.773,6.773,0,0,0-6.768,0,12.658,12.658,0,0,1-12.462,0,6.78,6.78,0,0,0-6.768,0,12.459,12.459,0,0,1-6.232,1.671,1.75,1.75,0,0,0,0,3.5A15.971,15.971,0,0,0,14.291,83.7a3.314,3.314,0,0,1,3.264,0,16.218,16.218,0,0,0,15.966,0,3.316,3.316,0,0,1,3.264,0,16.217,16.217,0,0,0,15.968,0,3.314,3.314,0,0,1,3.264,0,16.218,16.218,0,0,0,15.966,0,3.316,3.316,0,0,1,3.264,0,16.217,16.217,0,0,0,15.968,0,3.312,3.312,0,0,1,3.263,0,16.22,16.22,0,0,0,15.967,0,3.309,3.309,0,0,1,3.264,0,15.98,15.98,0,0,0,7.984,2.14,1.75,1.75,0,1,0,0-3.5Z"/>
    <path d="M6.307,67.037A15.972,15.972,0,0,0,14.291,64.9a3.314,3.314,0,0,1,3.264,0,16.216,16.216,0,0,0,15.966,0,3.316,3.316,0,0,1,3.264,0,16.22,16.22,0,0,0,15.968,0,3.314,3.314,0,0,1,3.264,0,16.216,16.216,0,0,0,15.966,0,3.316,3.316,0,0,1,3.264,0,16.22,16.22,0,0,0,15.968,0,3.312,3.312,0,0,1,3.263,0,16.218,16.218,0,0,0,15.967,0,3.314,3.314,0,0,1,3.264,0,15.972,15.972,0,0,0,7.984,2.142,1.75,1.75,0,0,0,0-3.5,12.48,12.48,0,0,1-6.232-1.671,6.736,6.736,0,0,0-3.053-.885L97.417,45.99A17.235,17.235,0,1,0,82.552,28.928a17.543,17.543,0,0,0,.181,2.379L60.011,8.584a13.658,13.658,0,0,0-9.723-4.027H19.977a8.967,8.967,0,0,0-9.037,8.479,8.745,8.745,0,0,0,8.743,9.014H48.738L61.551,34.863,35.435,60.978a6.749,6.749,0,0,0-3.666.888,12.655,12.655,0,0,1-12.462,0,6.78,6.78,0,0,0-6.768,0,12.471,12.471,0,0,1-6.232,1.672,1.75,1.75,0,0,0,0,3.5ZM90.081,19.2a13.755,13.755,0,1,1-4.029,9.727A13.714,13.714,0,0,1,90.081,19.2ZM65.263,33.626,50.7,19.063a1.75,1.75,0,0,0-1.237-.513H19.683a5.247,5.247,0,0,1-5.245-5.409,5.443,5.443,0,0,1,5.539-5.084H50.288a10.181,10.181,0,0,1,7.248,3l50.922,50.922a12.652,12.652,0,0,1-12.228-.116,6.776,6.776,0,0,0-6.767,0,12.662,12.662,0,0,1-12.464,0,6.773,6.773,0,0,0-6.768,0,12.655,12.655,0,0,1-12.462,0,6.778,6.778,0,0,0-6.768,0,12.657,12.657,0,0,1-11.82.315L65.263,36.1a1.75,1.75,0,0,0,0-2.474Z"/>
  </g>
</svg>
