<svg xmlns="http://www.w3.org/2000/svg" width="128" height="128" viewBox="0 0 128 128">
  <title>SWIMMING POOL</title>
  <g>
    <path d="M121.693,119.943a12.47,12.47,0,0,1-6.232-1.671,6.78,6.78,0,0,0-6.768,0,12.66,12.66,0,0,1-12.463,0,6.778,6.778,0,0,0-6.767,0,12.662,12.662,0,0,1-12.464,0,6.78,6.78,0,0,0-6.768,0,12.658,12.658,0,0,1-12.462,0,6.78,6.78,0,0,0-6.768,0,12.662,12.662,0,0,1-12.464,0,6.78,6.78,0,0,0-6.768,0,12.66,12.66,0,0,1-12.462,0,6.77,6.77,0,0,0-6.768,0,12.47,12.47,0,0,1-6.232,1.671,1.75,1.75,0,0,0,0,3.5,15.977,15.977,0,0,0,7.985-2.141,3.309,3.309,0,0,1,3.263,0,16.218,16.218,0,0,0,15.966,0,3.309,3.309,0,0,1,3.264,0,16.217,16.217,0,0,0,15.968,0,3.314,3.314,0,0,1,3.264,0,16.216,16.216,0,0,0,15.965,0,3.311,3.311,0,0,1,3.265,0,16.217,16.217,0,0,0,15.968,0,3.312,3.312,0,0,1,3.263,0,16.218,16.218,0,0,0,15.966,0,3.311,3.311,0,0,1,3.265,0,15.971,15.971,0,0,0,7.984,2.141,1.75,1.75,0,0,0,0-3.5Z"/>
    <path d="M121.693,101.141a12.457,12.457,0,0,1-6.231-1.67,6.777,6.777,0,0,0-6.769,0,12.667,12.667,0,0,1-12.463,0,6.764,6.764,0,0,0-6.767,0,12.665,12.665,0,0,1-12.463,0,6.777,6.777,0,0,0-6.769,0,12.665,12.665,0,0,1-12.462,0,6.766,6.766,0,0,0-6.768,0,12.665,12.665,0,0,1-12.463,0,6.777,6.777,0,0,0-6.769,0,12.665,12.665,0,0,1-12.462,0,6.766,6.766,0,0,0-6.768,0,12.463,12.463,0,0,1-6.232,1.67,1.75,1.75,0,0,0,0,3.5,15.982,15.982,0,0,0,7.985-2.141,3.312,3.312,0,0,1,3.263,0,16.218,16.218,0,0,0,15.966,0,3.319,3.319,0,0,1,3.264,0,16.227,16.227,0,0,0,15.969,0,3.312,3.312,0,0,1,3.263,0,16.218,16.218,0,0,0,15.966,0,3.319,3.319,0,0,1,3.264,0,16.227,16.227,0,0,0,15.969,0,3.31,3.31,0,0,1,3.262,0,16.22,16.22,0,0,0,15.967,0,3.319,3.319,0,0,1,3.264,0,15.975,15.975,0,0,0,7.984,2.141,1.75,1.75,0,0,0,0-3.5Z"/>
    <path d="M121.693,82.339a12.47,12.47,0,0,1-6.232-1.671,6.778,6.778,0,0,0-6.768,0,12.662,12.662,0,0,1-12.463,0,6.781,6.781,0,0,0-6.767,0,12.667,12.667,0,0,1-12.464,0,6.778,6.778,0,0,0-6.768,0,12.66,12.66,0,0,1-12.462,0,6.783,6.783,0,0,0-6.768,0,12.667,12.667,0,0,1-12.464,0,6.778,6.778,0,0,0-6.768,0,12.662,12.662,0,0,1-12.463,0,6.781,6.781,0,0,0-6.767,0,12.47,12.47,0,0,1-6.232,1.671,1.75,1.75,0,0,0,0,3.5A15.961,15.961,0,0,0,14.291,83.7a3.319,3.319,0,0,1,3.264,0,16.213,16.213,0,0,0,15.966,0,3.314,3.314,0,0,1,3.264,0,16.212,16.212,0,0,0,15.968,0,3.319,3.319,0,0,1,3.264,0,16.211,16.211,0,0,0,15.965,0,3.316,3.316,0,0,1,3.265,0,16.212,16.212,0,0,0,15.968,0,3.317,3.317,0,0,1,3.263,0,16.213,16.213,0,0,0,15.966,0,3.316,3.316,0,0,1,3.265,0,15.961,15.961,0,0,0,7.984,2.142,1.75,1.75,0,0,0,0-3.5Z"/>
    <path d="M121.693,63.538a12.47,12.47,0,0,1-6.232-1.671,6.778,6.778,0,0,0-6.768,0,12.657,12.657,0,0,1-12.463,0,6.777,6.777,0,0,0-6.681-.041V35.7h32.144a1.75,1.75,0,0,0,0-3.5h-10.15V21.1a16.546,16.546,0,0,0-33.092,0V32.2H71.543V21.1a16.546,16.546,0,0,0-33.092,0V32.2H6.307a1.75,1.75,0,0,0,0,3.5H38.451V61.825a6.774,6.774,0,0,0-6.682.042,12.657,12.657,0,0,1-12.463,0,6.781,6.781,0,0,0-6.767,0,12.47,12.47,0,0,1-6.232,1.671,1.75,1.75,0,0,0,0,3.5A15.971,15.971,0,0,0,14.291,64.9a3.314,3.314,0,0,1,3.264,0,16.216,16.216,0,0,0,15.966,0,3.311,3.311,0,0,1,3.264,0,16.217,16.217,0,0,0,15.968,0,3.314,3.314,0,0,1,3.264,0,16.214,16.214,0,0,0,15.965,0,3.313,3.313,0,0,1,3.265,0,16.217,16.217,0,0,0,15.968,0,3.312,3.312,0,0,1,3.263,0,16.216,16.216,0,0,0,15.966,0,3.313,3.313,0,0,1,3.265,0,15.971,15.971,0,0,0,7.984,2.141,1.75,1.75,0,0,0,0-3.5ZM100.445,32.2h-10.9V21.1a5.448,5.448,0,1,1,10.9,0Zm-40,0h-10.9V21.1a5.448,5.448,0,1,1,10.9,0Zm-10.9,15.371h28.9v4.1h-28.9Zm28.9-3.5h-28.9V35.7h28.9Zm-36.5,19.106V21.1a13.046,13.046,0,0,1,26.092,0V32.2h-4.1V21.1a8.948,8.948,0,1,0-17.9,0V63.426A12.827,12.827,0,0,1,41.951,63.174Zm28.28-1.307a12.655,12.655,0,0,1-12.462,0,6.783,6.783,0,0,0-6.768,0,11.889,11.889,0,0,1-1.452.711V55.165h28.9v7.412A11.739,11.739,0,0,1,77,61.867,6.778,6.778,0,0,0,70.231,61.867Zm11.72,1.559V21.1a13.046,13.046,0,0,1,26.092,0V32.2h-4.1V21.1a8.948,8.948,0,1,0-17.9,0V63.175A12.858,12.858,0,0,1,81.951,63.426Z"/>
  </g>
</svg>
