<svg xmlns="http://www.w3.org/2000/svg" width="128" height="128" viewBox="0 0 128 128">
  <title>TABLE LAMP</title>
  <path d="M112.553,60.372,87.825,5.587a1.749,1.749,0,0,0-1.595-1.03H41.77a1.75,1.75,0,0,0-1.6,1.03L15.446,60.371a1.75,1.75,0,0,0,1.6,2.47H55.948V70.3a33.636,33.636,0,0,1-3.726,15.531c-2.715,5.194-5.165,13.668-2.091,25.161H46.854a5.757,5.757,0,0,0-5.75,5.75v4.953a1.751,1.751,0,0,0,1.75,1.75H85.145a1.75,1.75,0,0,0,1.75-1.75V116.74a5.757,5.757,0,0,0-5.75-5.75H77.869c3.074-11.493.624-19.967-2.091-25.161A33.651,33.651,0,0,1,72.052,70.3V62.841h38.906a1.749,1.749,0,0,0,1.595-2.469ZM50.38,59.341,58.1,8.057H69.9l7.715,51.284ZM42.9,8.057H54.557L46.841,59.341H19.751ZM83.4,116.74v3.2H44.6v-3.2a2.253,2.253,0,0,1,2.25-2.25H81.145A2.252,2.252,0,0,1,83.4,116.74ZM72.677,87.45c2.488,4.764,4.7,12.665,1.546,23.54H53.777c-3.155-10.876-.942-18.776,1.547-23.54A37.153,37.153,0,0,0,59.448,70.3V62.841h9.1V70.3A37.145,37.145,0,0,0,72.677,87.45Zm8.482-28.109L73.443,8.057H85.1l23.147,51.284Z"/>
</svg>
