<svg xmlns="http://www.w3.org/2000/svg" width="128" height="128" viewBox="0 0 128 128">
  <title>TAXI</title>
  <g>
    <path d="M27.062,61.736h73.876a1.749,1.749,0,0,0,1.736-1.967l-3.565-28.5A5.76,5.76,0,0,0,93.4,26.229H34.6a5.759,5.759,0,0,0-5.706,5.037l-3.565,28.5a1.749,1.749,0,0,0,1.736,1.967Zm5.3-30.036A2.254,2.254,0,0,1,34.6,29.729H93.4A2.253,2.253,0,0,1,95.636,31.7l3.32,26.536H29.044Z"/>
    <path d="M30,67.7H24.437a4.755,4.755,0,0,0-4.75,4.75V77a4.756,4.756,0,0,0,4.75,4.75H30A4.756,4.756,0,0,0,34.75,77V72.453A4.755,4.755,0,0,0,30,67.7ZM31.25,77A1.251,1.251,0,0,1,30,78.25H24.437A1.251,1.251,0,0,1,23.187,77V72.453a1.251,1.251,0,0,1,1.25-1.25H30a1.251,1.251,0,0,1,1.25,1.25Z"/>
    <path d="M103.562,67.7H98a4.755,4.755,0,0,0-4.75,4.75V77A4.756,4.756,0,0,0,98,81.75h5.562a4.755,4.755,0,0,0,4.75-4.75V72.453A4.754,4.754,0,0,0,103.562,67.7Zm1.25,9.3a1.25,1.25,0,0,1-1.25,1.25H98A1.25,1.25,0,0,1,96.75,77V72.453A1.25,1.25,0,0,1,98,71.2h5.562a1.25,1.25,0,0,1,1.25,1.25Z"/>
    <path d="M76.789,67.7H51.211a4.755,4.755,0,0,0-4.75,4.75V77a4.756,4.756,0,0,0,4.75,4.75H76.789A4.756,4.756,0,0,0,81.539,77V72.453A4.755,4.755,0,0,0,76.789,67.7Zm1.25,9.3a1.251,1.251,0,0,1-1.25,1.25H51.211A1.25,1.25,0,0,1,49.961,77V72.453a1.25,1.25,0,0,1,1.25-1.25H76.789a1.251,1.251,0,0,1,1.25,1.25Z"/>
    <path d="M128.125,51.237V46.112a5.757,5.757,0,0,0-5.75-5.75h-3.388a16.7,16.7,0,0,0-9.184,2.743l-1.064.7-1.692-13.53A13.771,13.771,0,0,0,93.4,18.229H85.25V12.674a5.757,5.757,0,0,0-5.75-5.75h-31a5.757,5.757,0,0,0-5.75,5.75v5.555H34.6A13.771,13.771,0,0,0,20.953,30.272L19.261,43.8l-1.064-.7a16.7,16.7,0,0,0-9.184-2.743H5.625a5.757,5.757,0,0,0-5.75,5.75v5.125a5.757,5.757,0,0,0,5.75,5.75H17.611l-.282,2.261-6.32,7.4A16.767,16.767,0,0,0,7,77.526v8.727a7.061,7.061,0,0,0,0,14.122v13.951a6.758,6.758,0,0,0,6.75,6.75h12.7a6.758,6.758,0,0,0,6.75-6.75V100.378H94.8v13.948a6.758,6.758,0,0,0,6.75,6.75h12.7a6.758,6.758,0,0,0,6.75-6.75V100.375a7.061,7.061,0,0,0,0-14.122V77.526a16.767,16.767,0,0,0-4.009-10.874l-6.32-7.4-.283-2.261h11.987A5.757,5.757,0,0,0,128.125,51.237Zm-124.75,0V46.112a2.252,2.252,0,0,1,2.25-2.25H9.013a13.214,13.214,0,0,1,7.265,2.169l2.5,1.639-.727,5.817H5.625A2.253,2.253,0,0,1,3.375,51.237ZM46.25,12.674a2.253,2.253,0,0,1,2.25-2.25h31a2.253,2.253,0,0,1,2.25,2.25v5.555H46.25ZM29.7,114.326a3.254,3.254,0,0,1-3.25,3.25H13.75a3.254,3.254,0,0,1-3.25-3.25V100.378H29.7Zm87.8,0a3.254,3.254,0,0,1-3.25,3.25h-12.7a3.254,3.254,0,0,1-3.25-3.25V100.378h19.2Zm7-21.012a3.568,3.568,0,0,1-3.564,3.564H7.064a3.564,3.564,0,0,1,0-7.128H120.936A3.568,3.568,0,0,1,124.5,93.314ZM114.329,68.925a13.266,13.266,0,0,1,3.171,8.6V86.25H10.5V77.526a13.26,13.26,0,0,1,3.171-8.6l6.66-7.8a1.747,1.747,0,0,0,.405-.919l3.69-29.5A10.265,10.265,0,0,1,34.6,21.729H93.4a10.266,10.266,0,0,1,10.171,8.978l2.041,16.313v0l1.054,8.432v0l.594,4.746a1.747,1.747,0,0,0,.405.919Zm-4.411-15.7-.7-5.555,2.5-1.639a13.214,13.214,0,0,1,7.265-2.169h3.388a2.252,2.252,0,0,1,2.25,2.25v5.125a2.253,2.253,0,0,1-2.25,2.25H109.951Z"/>
  </g>
</svg>
