<svg xmlns="http://www.w3.org/2000/svg" width="128" height="128" viewBox="0 0 128 128">
  <title>TEA</title>
  <g>
    <path d="M122.13,102.449H83.309l3.323-4.412A80.426,80.426,0,0,0,93.783,86.66H108.47a11.93,11.93,0,0,0,11.51-8.839l2.981-11.171A11.913,11.913,0,0,0,111.45,51.66h-8.517c.027-.838.052-1.676.052-2.515a3.618,3.618,0,0,0-3.613-3.614H83.909V43.6a5.071,5.071,0,0,0-10.118,0v1.932H28.628a3.618,3.618,0,0,0-3.613,3.614A81.758,81.758,0,0,0,41.368,98.037l3.323,4.412H5.87a3.624,3.624,0,0,0-3.62,3.62,10.6,10.6,0,0,0,10.588,10.588H115.162a10.6,10.6,0,0,0,10.588-10.588A3.624,3.624,0,0,0,122.13,102.449Zm-2.551-36.7L116.6,76.918a8.429,8.429,0,0,1-8.13,6.242H95.521c.675-1.463,1.315-2.967,1.914-4.5H108.47a3.914,3.914,0,0,0,3.781-2.9l2.978-11.175a3.909,3.909,0,0,0-3.779-4.926H102.3c.2-1.491.35-2.995.461-4.5h8.686A8.414,8.414,0,0,1,119.579,65.749ZM111.45,63.16a.407.407,0,0,1,.4.519L108.868,74.86a.415.415,0,0,1-.4.3h-9.8a82.04,82.04,0,0,0,3.062-12ZM77.291,43.6a1.6,1.6,0,0,1,3.118,0v1.932H77.291ZM44.163,95.932A78.246,78.246,0,0,1,28.515,49.145a.113.113,0,0,1,.113-.114H80.409V53.7a3.317,3.317,0,0,0-.642.482L74.94,58.906a3.446,3.446,0,0,0-1.028,2.446v8.2a3.426,3.426,0,0,0,3.422,3.422h9.655a3.427,3.427,0,0,0,3.423-3.422v-8.2a3.448,3.448,0,0,0-1.027-2.445l-4.828-4.73a3.335,3.335,0,0,0-.648-.484V49.031H99.372a.113.113,0,0,1,.113.114A78.429,78.429,0,0,1,83.837,95.932l-4.909,6.517H49.072Zm38-39.2,4.75,4.622v8.126h-9.5l-.023-8.071Zm33,56.427H12.838a7.1,7.1,0,0,1-7.088-7.088.12.12,0,0,1,.12-.12H122.13a.12.12,0,0,1,.12.12A7.1,7.1,0,0,1,115.162,113.157Z"/>
    <path d="M43.845,11.958a1.751,1.751,0,0,0-2.666,2.27,7.193,7.193,0,0,1,0,9.29,10.689,10.689,0,0,0,0,13.83,1.75,1.75,0,0,0,2.664-2.27,7.189,7.189,0,0,1,0-9.291A10.7,10.7,0,0,0,43.845,11.958Z"/>
    <path d="M65.332,11.958a1.75,1.75,0,1,0-2.664,2.27,7.19,7.19,0,0,1,0,9.29,10.692,10.692,0,0,0,0,13.83,1.75,1.75,0,0,0,2.664-2.27,7.192,7.192,0,0,1,0-9.291A10.69,10.69,0,0,0,65.332,11.958Z"/>
    <path d="M86.82,11.958a1.75,1.75,0,0,0-2.664,2.27,7.189,7.189,0,0,1,0,9.291,10.7,10.7,0,0,0,0,13.829,1.751,1.751,0,1,0,2.666-2.27,7.194,7.194,0,0,1,0-9.291A10.69,10.69,0,0,0,86.82,11.958Z"/>
  </g>
</svg>
