<svg xmlns="http://www.w3.org/2000/svg" width="128" height="128" viewBox="0 0 128 128">
  <title>TOILER PAPER</title>
  <g>
    <path d="M101.125,7.56H26.875C12.056,7.56,0,25,0,46.435V114.69A1.751,1.751,0,0,0,1.057,116.3l9.28,4a1.765,1.765,0,0,0,1.386,0l8.584-3.7,8.585,3.7a1.762,1.762,0,0,0,1.385,0l8.587-3.7,8.591,3.7a1.76,1.76,0,0,0,1.385,0l8.587-3.7,8.594,3.7a1.762,1.762,0,0,0,1.385,0l9.286-4a1.749,1.749,0,0,0,1.058-1.608V85.31h23.375C115.944,85.31,128,67.87,128,46.435S115.944,7.56,101.125,7.56ZM74.25,113.539l-7.537,3.246-8.593-3.7a1.765,1.765,0,0,0-1.386,0l-8.587,3.7-8.59-3.7a1.765,1.765,0,0,0-1.386,0l-8.587,3.7L21,113.083a1.765,1.765,0,0,0-1.386,0l-8.584,3.7L3.5,113.539v-67.1C3.5,26.929,13.986,11.06,26.875,11.06H90C80.72,17.191,74.25,30.736,74.25,46.435v67.1Zm3.5-31.729V65.582C80.542,72.686,84.834,78.4,90,81.81Zm23.375,0c-12.889,0-23.375-15.87-23.375-35.375S88.236,11.06,101.125,11.06,124.5,26.929,124.5,46.435,114.014,81.81,101.125,81.81Z"/>
    <path d="M101.125,22.56c-4.728,0-11.875,9.522-11.875,23.875S96.4,70.31,101.125,70.31,113,60.787,113,46.435,105.852,22.56,101.125,22.56Zm0,44.25c-2.019,0-8.375-7.451-8.375-20.375s6.356-20.375,8.375-20.375,8.375,7.45,8.375,20.375S103.144,66.81,101.125,66.81Z"/>
    <path d="M17.758,81.81h-6a1.75,1.75,0,1,0,0,3.5h6a1.75,1.75,0,0,0,0-3.5Z"/>
    <path d="M34.964,81.81H25.579a1.75,1.75,0,0,0,0,3.5h9.385a1.75,1.75,0,0,0,0-3.5Z"/>
    <path d="M52.171,81.81H42.786a1.75,1.75,0,0,0,0,3.5h9.385a1.75,1.75,0,0,0,0-3.5Z"/>
    <path d="M65.992,81.81h-6a1.75,1.75,0,1,0,0,3.5h6a1.75,1.75,0,1,0,0-3.5Z"/>
  </g>
</svg>
