<svg xmlns="http://www.w3.org/2000/svg" width="128" height="128" viewBox="0 0 128 128">
  <title>TOOTHBRUSH</title>
  <path d="M126.47,24.8l-3.277-3.276a5.222,5.222,0,0,0-7.388,0l-.25.25L104.732,10.949a5.748,5.748,0,0,0-8.13,0l-6.129,6.129,0,0,0,0L75.383,32.167a5.748,5.748,0,0,0,0,8.132L86.205,51.121l-1.748,1.748a7.489,7.489,0,0,1-6.131,2.157L57.758,52.782a1.747,1.747,0,0,0-1.329.412L37.211,69.7h0L20.215,84.29,2.226,99.736a6.383,6.383,0,0,0-.356,9.357l7.772,7.772h0a6.323,6.323,0,0,0,4.507,1.869l.163,0a6.327,6.327,0,0,0,4.574-2.095L62.529,68.476,77.8,70.141a20.192,20.192,0,0,0,16.541-5.822L126.47,32.187A5.233,5.233,0,0,0,126.47,24.8ZM91.708,20.792,104.122,33.2,100.131,37.2l-2.493,2.493L85.225,27.275Zm7.368-7.368a2.25,2.25,0,0,1,3.182,0L113.08,24.246,106.6,30.73,94.183,18.317Zm-21.219,24.4a2.249,2.249,0,0,1,0-3.181L82.75,29.75,95.163,42.163l-6.484,6.483ZM40.542,75.692,16.09,100.144,11.947,96,38.258,73.409ZM124,29.712,91.862,61.845a16.707,16.707,0,0,1-13.687,4.817L62.021,64.9a1.745,1.745,0,0,0-1.486.565L16.292,114.288a2.861,2.861,0,0,1-2.065.946,2.8,2.8,0,0,1-2.111-.844h0l-7.771-7.772a2.883,2.883,0,0,1,.16-4.227l4.779-4.1,5.568,5.568a1.749,1.749,0,0,0,2.475,0L44.254,76.93a1.749,1.749,0,0,0,0-2.475l-3.333-3.332L58.133,56.344l19.814,2.161a10.96,10.96,0,0,0,8.985-3.161l2.983-2.983,0,0,8.015-8.015L118.28,24a1.765,1.765,0,0,1,2.439,0l3.275,3.275A1.728,1.728,0,0,1,124,29.712Z"/>
</svg>
