<svg xmlns="http://www.w3.org/2000/svg" width="128" height="128" viewBox="0 0 128 128">
  <title>TOOTBRUSH</title>
  <path d="M120.15,65.83V52.583a1.75,1.75,0,0,0-1.75-1.75H90.889a1.749,1.749,0,0,0-1.75,1.75v13.2H83.92a3.263,3.263,0,0,1-1.626-.435l-8.322-4.805a21.8,21.8,0,0,0-10.483-2.911L11.806,56.7a7.055,7.055,0,0,0-7.219,6.241A6.93,6.93,0,0,0,6.4,68.292,7.013,7.013,0,0,0,11.583,70.5l51.466-.928a13.118,13.118,0,0,1,6.864,1.773l7.359,4.249a11.767,11.767,0,0,0,5.875,1.574h36.546a3.755,3.755,0,0,0,3.75-3.75V69.534A3.744,3.744,0,0,0,120.15,65.83Zm-3.5-.046h-3.378V54.333h3.378Zm-10.256,0V54.333h3.378V65.784Zm-6.878,0V54.333h3.378V65.784ZM92.639,54.333h3.377V65.784H92.639Zm27.3,19.084a.25.25,0,0,1-.25.25H83.147a8.254,8.254,0,0,1-4.125-1.106l-7.359-4.248a16.75,16.75,0,0,0-8.376-2.244c-.1,0-.2,0-.3,0L11.52,67a3.343,3.343,0,0,1-2.556-1.088,3.379,3.379,0,0,1-.891-2.644,3.527,3.527,0,0,1,3.6-3.066h.072l51.683.931a18.3,18.3,0,0,1,8.8,2.442l8.323,4.8h0a6.762,6.762,0,0,0,3.375.9h35.773a.251.251,0,0,1,.25.25Z"/>
</svg>
