<svg xmlns="http://www.w3.org/2000/svg" width="128" height="128" viewBox="0 0 128 128">
  <title>TOWEL RACK</title>
  <path d="M121.693,4.557a1.75,1.75,0,0,0-1.75,1.75V30.713a8.264,8.264,0,0,1-8.255,8.255H105.5V32.147h3.876a3.755,3.755,0,0,0,3.75-3.75V6.307a1.75,1.75,0,0,0-3.5,0V28.4a.25.25,0,0,1-.25.25H105.5v-1.8a6.758,6.758,0,0,0-6.75-6.75H29.253a6.758,6.758,0,0,0-6.75,6.75v1.8H18.627a.25.25,0,0,1-.25-.25V6.307a1.75,1.75,0,1,0-3.5,0V28.4a3.755,3.755,0,0,0,3.75,3.75H22.5v6.821H16.311a8.264,8.264,0,0,1-8.254-8.255V6.307a1.75,1.75,0,0,0-3.5,0V30.713A11.768,11.768,0,0,0,16.311,42.468H22.5v58.871a1.749,1.749,0,0,0,1.75,1.75h4.161v18.6a1.749,1.749,0,0,0,1.75,1.75H97.836a1.749,1.749,0,0,0,1.75-1.75v-18.6h4.161a1.749,1.749,0,0,0,1.75-1.75V42.468h6.191a11.769,11.769,0,0,0,11.755-11.755V6.307A1.749,1.749,0,0,0,121.693,4.557ZM26,71.914H102v9.4H26Zm0-45.068a3.254,3.254,0,0,1,3.25-3.25H98.747a3.254,3.254,0,0,1,3.25,3.25V68.414H26Zm70.083,93.1H31.914V103.089H96.086ZM26,99.589V84.818H102V99.589Z"/>
</svg>
