<svg xmlns="http://www.w3.org/2000/svg" width="128" height="128" viewBox="0 0 128 128">
  <title>TV</title>
  <g>
    <path d="M120.412,21.044H7.588A5.344,5.344,0,0,0,2.25,26.383V91.088a5.345,5.345,0,0,0,5.338,5.339H19.313l-4,6.544a2.618,2.618,0,0,0,2.232,3.985h5.906a2.631,2.631,0,0,0,2.233-1.252l5.676-9.277H96.643l5.676,9.277a2.631,2.631,0,0,0,2.233,1.252h5.906a2.618,2.618,0,0,0,2.233-3.984l-4-6.545h11.725a5.345,5.345,0,0,0,5.338-5.339v-64.7A5.344,5.344,0,0,0,120.412,21.044ZM5.75,26.383a1.841,1.841,0,0,1,1.838-1.839H120.412a1.841,1.841,0,0,1,1.838,1.839V83.927H5.75Zm17.2,77.073H19.116l4.3-7.029h3.838Zm85.93,0h-3.838l-4.3-7.029h3.838ZM122.25,91.088a1.841,1.841,0,0,1-1.838,1.839H7.588A1.841,1.841,0,0,1,5.75,91.088V87.427h116.5Z"/>
    <path d="M60.88,44.809H48.233a1.75,1.75,0,0,0,0,3.5h4.574v13.6a1.75,1.75,0,0,0,3.5,0v-13.6H60.88a1.75,1.75,0,0,0,0-3.5Z"/>
    <path d="M80.388,44.923a1.749,1.749,0,0,0-2.258,1.015L73.443,58.285,68.756,45.938a1.75,1.75,0,0,0-3.273,1.242l5.64,14.856a2.469,2.469,0,0,0,4.64,0L81.4,47.18A1.749,1.749,0,0,0,80.388,44.923Z"/>
    <path d="M39.835,51.123l-10.1-5.83a3.593,3.593,0,0,0-5.391,3.112v11.66a3.593,3.593,0,0,0,5.39,3.113l10.1-5.83A3.594,3.594,0,0,0,39.835,51.123Zm-1.75,3.193-10.1,5.83-.14-.081V48.405l.14-.081,10.1,5.83Z"/>
    <path d="M101.857,51.123l-10.1-5.83a3.593,3.593,0,0,0-5.391,3.112v11.66a3.594,3.594,0,0,0,5.39,3.113l10.1-5.83A3.594,3.594,0,0,0,101.857,51.123Zm-1.75,3.193-10.1,5.83-.14-.081V48.405l.14-.081,10.1,5.83Z"/>
  </g>
</svg>
