<svg xmlns="http://www.w3.org/2000/svg" width="128" height="128" viewBox="0 0 128 128">
  <title>WAITER</title>
  <g>
    <circle cx="64" cy="119.379" r="2.314"/>
    <circle cx="64" cy="95.782" r="2.314"/>
    <circle cx="64" cy="107.581" r="2.314"/>
    <path d="M97.82,72.445l-20.734-6.1A31.446,31.446,0,0,0,85.228,54.02l2.211-.767a8.719,8.719,0,0,0,5.791-7.01l.192-1.319a5.918,5.918,0,0,0-5.856-6.769H87.36V29.369c0-18.938-11.584-21.492-22.915-21.492-11.266,0-16.513-3.039-16.557-3.064a1.748,1.748,0,0,0-2.538.851,12.835,12.835,0,0,0,.3,9.359c-1.911,1.6-5.009,5.389-5.009,13.1V38.155h-.206a5.917,5.917,0,0,0-5.856,6.769l.191,1.319a8.722,8.722,0,0,0,5.792,7.01l2.21.767a31.447,31.447,0,0,0,8.143,12.328l-20.734,6.1a13.827,13.827,0,0,0-9.871,13.192v36.056a1.75,1.75,0,1,0,3.5,0V85.637A10.308,10.308,0,0,1,31.167,75.8l23.038-6.775a17.356,17.356,0,0,0,19.59,0L96.832,75.8a10.306,10.306,0,0,1,7.358,9.834v36.056a1.75,1.75,0,0,0,3.5,0V85.637A13.826,13.826,0,0,0,97.82,72.445ZM89.394,42.491a2.388,2.388,0,0,1,.565,1.93l-.191,1.319a5.228,5.228,0,0,1-3.337,4.147,38.885,38.885,0,0,0,.919-8.232h.216A2.383,2.383,0,0,1,89.394,42.491ZM48.6,17.2a1.749,1.749,0,0,0,.764-2.466,10.67,10.67,0,0,1-1.222-5.957c2.684,1.06,8.011,2.6,16.3,2.6,11.987,0,19.415,3.01,19.415,17.992v7.773L80,35.316a3.263,3.263,0,0,1-1.86-2.938A6.042,6.042,0,0,0,72.1,26.343H55.9a6.042,6.042,0,0,0-6.036,6.035A3.263,3.263,0,0,1,48,35.316L44.14,37.142V28.12C44.14,19.565,48.442,17.28,48.6,17.2ZM38.233,45.74l-.192-1.319a2.418,2.418,0,0,1,2.393-2.766h.216a38.885,38.885,0,0,0,.919,8.232A5.227,5.227,0,0,1,38.233,45.74ZM55.578,65.721C50.36,61.741,44.14,54.274,44.14,41.307v-.293L49.5,38.48a6.775,6.775,0,0,0,3.866-6.1A2.538,2.538,0,0,1,55.9,29.843H72.1a2.538,2.538,0,0,1,2.536,2.535,6.776,6.776,0,0,0,3.865,6.1l5.358,2.534v.293c0,12.968-6.219,20.434-11.438,24.414A13.92,13.92,0,0,1,55.578,65.721Z"/>
    <path d="M39,93.811a1.751,1.751,0,0,0-1.75,1.75v26.132a1.75,1.75,0,0,0,3.5,0V95.561A1.751,1.751,0,0,0,39,93.811Z"/>
    <path d="M89,93.811a1.75,1.75,0,0,0-1.75,1.75v26.132a1.75,1.75,0,0,0,3.5,0V95.561A1.75,1.75,0,0,0,89,93.811Z"/>
    <circle cx="72" cy="42.219" r="2.314"/>
    <circle cx="56" cy="42.219" r="2.314"/>
    <path d="M72.017,54.8a1.759,1.759,0,0,0-2.468.056,8.635,8.635,0,0,1-11.1,0,1.75,1.75,0,0,0-2.55,2.4,12.069,12.069,0,0,0,16.2,0A1.742,1.742,0,0,0,72.017,54.8Z"/>
    <path d="M77.175,71.659a1.75,1.75,0,0,0-1.961-.256l-6.366,3.241A3.724,3.724,0,0,0,65.992,73.3H62.008a3.724,3.724,0,0,0-2.856,1.349L52.786,71.4a1.753,1.753,0,0,0-1.961.256,7.227,7.227,0,0,0-1.638,8.156,7.226,7.226,0,0,0,1.638,8.154,1.751,1.751,0,0,0,1.961.256l6.365-3.241a3.729,3.729,0,0,0,2.857,1.35h3.984a3.725,3.725,0,0,0,2.856-1.35l6.366,3.241a1.751,1.751,0,0,0,1.961-.256,7.224,7.224,0,0,0,1.637-8.154A7.226,7.226,0,0,0,77.175,71.659ZM52.482,84.452a3.82,3.82,0,0,1,.182-3.791,1.751,1.751,0,0,0,0-1.693,3.824,3.824,0,0,1-.174-3.788l5.768,2.937v3.394Zm13.759-1.868a.249.249,0,0,1-.249.25H62.008a.251.251,0,0,1-.25-.25v-5.54a.25.25,0,0,1,.25-.249h3.984a.248.248,0,0,1,.249.249Zm9.095-1.923a3.83,3.83,0,0,1,.174,3.787l-5.769-2.937V78.117l5.777-2.941a3.821,3.821,0,0,1-.182,3.793A1.754,1.754,0,0,0,75.336,80.661Z"/>
  </g>
</svg>
