<svg xmlns="http://www.w3.org/2000/svg" width="128" height="128" viewBox="0 0 128 128">
  <title>WASHING MACHINE</title>
  <g>
    <path d="M111.875,0H16.125a6.758,6.758,0,0,0-6.75,6.75V111.239a6.758,6.758,0,0,0,6.75,6.75H22.5v6.258a3.755,3.755,0,0,0,3.75,3.75h9.5a3.755,3.755,0,0,0,3.75-3.75v-6.258H88.5v6.258a3.754,3.754,0,0,0,3.75,3.75h9.5a3.755,3.755,0,0,0,3.75-3.75v-6.258h6.372a6.758,6.758,0,0,0,6.75-6.75V6.747A6.758,6.758,0,0,0,111.875,0Zm-99,6.75a3.254,3.254,0,0,1,3.25-3.25h95.75a3.254,3.254,0,0,1,3.25,3.25V24.5H12.875ZM36,124.247a.25.25,0,0,1-.25.25h-9.5a.25.25,0,0,1-.25-.25v-6.258H36Zm66.006,0a.25.25,0,0,1-.25.25h-9.5a.25.25,0,0,1-.25-.25v-6.258h10Zm13.122-13.008a3.254,3.254,0,0,1-3.25,3.25H16.125a3.254,3.254,0,0,1-3.25-3.25V28h102.25Z"/>
    <path d="M106.875,8H93.164a3.755,3.755,0,0,0-3.75,3.75v4.5A3.755,3.755,0,0,0,93.164,20h13.711a3.755,3.755,0,0,0,3.75-3.75v-4.5A3.755,3.755,0,0,0,106.875,8Zm.25,8.249a.25.25,0,0,1-.25.25H93.164a.25.25,0,0,1-.25-.25v-4.5a.25.25,0,0,1,.25-.25h13.711a.25.25,0,0,1,.25.25Z"/>
    <path d="M34.836,8H21.125a3.755,3.755,0,0,0-3.75,3.75v4.5A3.755,3.755,0,0,0,21.125,20H34.836a3.755,3.755,0,0,0,3.75-3.75v-4.5A3.755,3.755,0,0,0,34.836,8Zm.25,8.249a.25.25,0,0,1-.25.25H21.125a.25.25,0,0,1-.25-.25v-4.5a.25.25,0,0,1,.25-.25H34.836a.25.25,0,0,1,.25.25Z"/>
    <path d="M79.156,8H48.844a3.755,3.755,0,0,0-3.75,3.75v4.5A3.754,3.754,0,0,0,48.844,20H79.156a3.754,3.754,0,0,0,3.75-3.75v-4.5A3.755,3.755,0,0,0,79.156,8Zm.25,8.249a.25.25,0,0,1-.25.25H48.844a.25.25,0,0,1-.25-.25v-4.5a.25.25,0,0,1,.25-.25H79.156a.25.25,0,0,1,.25.25Z"/>
    <path d="M58.528,107.738A36.555,36.555,0,0,0,92.752,83.914h5.466a7.759,7.759,0,0,0,7.75-7.75V66.32a7.759,7.759,0,0,0-7.75-7.75H92.752a36.5,36.5,0,1,0-34.224,49.168ZM98.218,62.07a4.255,4.255,0,0,1,4.25,4.25v9.844a4.255,4.255,0,0,1-4.25,4.25H93.856c.184-.708.342-1.427.484-2.151.025-.126.044-.252.067-.378q.159-.855.277-1.724.039-.3.075-.593c.063-.527.112-1.057.152-1.591.015-.2.034-.4.045-.593.042-.709.068-1.423.068-2.142S95,69.81,94.956,69.1c-.011-.2-.03-.4-.045-.594-.04-.533-.089-1.064-.152-1.591-.024-.2-.049-.395-.075-.593q-.118-.868-.277-1.724c-.023-.125-.042-.252-.067-.377-.142-.725-.3-1.443-.484-2.152ZM58.528,38.246a33.049,33.049,0,0,1,31.366,22.77c.249.764.472,1.534.664,2.311.02.08.037.161.056.241q.274,1.145.466,2.3c.01.056.021.111.03.167.124.778.215,1.561.283,2.347.014.161.025.323.037.486.056.788.094,1.578.094,2.371s-.038,1.584-.094,2.372c-.012.162-.023.324-.037.486-.068.786-.159,1.569-.283,2.347-.009.055-.02.11-.03.166-.127.773-.284,1.541-.466,2.3-.019.08-.036.161-.056.241-.192.777-.415,1.547-.664,2.311A32.994,32.994,0,1,1,58.528,38.246Z"/>
    <path d="M58.528,97.738a26.5,26.5,0,1,0-26.5-26.5A26.525,26.525,0,0,0,58.528,97.738Zm0-49.492a23,23,0,1,1-23,23A23.023,23.023,0,0,1,58.528,48.246Z"/>
  </g>
</svg>
