<svg xmlns="http://www.w3.org/2000/svg" width="128" height="128" viewBox="0 0 128 128">
  <title>WATER TAP</title>
  <g>
    <path d="M102,97.056a1.752,1.752,0,0,0-2.433,0c-.347.336-8.5,8.316-8.5,16.666a9.721,9.721,0,1,0,19.442,0C110.5,105.372,102.344,97.392,102,97.056Zm-1.217,22.887a6.228,6.228,0,0,1-6.221-6.221c0-5.124,4.111-10.45,6.221-12.846,2.11,2.4,6.221,7.722,6.221,12.846A6.228,6.228,0,0,1,100.78,119.943Z"/>
    <path d="M106.525,54.192a17.867,17.867,0,0,0-13.089-5.73H61.345V39.508h2.717a1.75,1.75,0,0,0,1.75-1.75V27.9H84.783a1.75,1.75,0,0,0,1.75-1.75V17.912a1.75,1.75,0,0,0-1.75-1.75H65.812V11.307a6.758,6.758,0,0,0-6.75-6.75H43.646a6.758,6.758,0,0,0-6.75,6.75V37.758a1.75,1.75,0,0,0,1.75,1.75h2.716v8.954H18.5a1.75,1.75,0,0,0,0,3.5H93.436A14.312,14.312,0,0,1,107.7,67.418l-.834,10.424H94.692l-.219-2.73a7.142,7.142,0,0,0-7.082-6.538H18.5a1.75,1.75,0,0,0,0,3.5H87.391a3.624,3.624,0,0,1,3.593,3.318l1.049,13.093A1.75,1.75,0,0,0,93.777,90.1h14.007a1.75,1.75,0,0,0,1.744-1.611L111.192,67.7A17.863,17.863,0,0,0,106.525,54.192ZM83.033,19.662V24.4H65.812V19.662ZM40.4,11.307a3.254,3.254,0,0,1,3.25-3.25H59.062a3.254,3.254,0,0,1,3.25,3.25v24.7H40.4Zm4.466,28.2H57.845v8.954H44.862ZM95.393,86.6l-.421-5.254h11.617l-.421,5.254Z"/>
  </g>
</svg>
