<svg xmlns="http://www.w3.org/2000/svg" width="128" height="128" viewBox="0 0 128 128">
  <title>WIFI</title>
  <g>
    <path d="M126.25,77.88H114.383l13.471-64.62a6.86,6.86,0,1,0-13.431-2.8L100.369,77.88H27.631L13.577,10.46a6.86,6.86,0,0,0-13.431,2.8L13.616,77.88H1.75A1.751,1.751,0,0,0,0,79.63V110a1.751,1.751,0,0,0,1.75,1.75H10v3.876a7.376,7.376,0,1,0,14.752,0v-3.876h78.5v3.876a7.376,7.376,0,0,0,14.752,0v-3.876h8.25A1.751,1.751,0,0,0,128,110V79.63A1.751,1.751,0,0,0,126.25,77.88Zm-8.4-66.706a3.359,3.359,0,1,1,6.577,1.371L110.808,77.88h-6.864ZM3.573,12.545a3.359,3.359,0,1,1,6.577-1.371L24.056,77.88H17.192ZM21.252,115.624a3.876,3.876,0,0,1-7.752,0v-3.876h7.752Zm93.248,0a3.876,3.876,0,0,1-7.752,0v-3.876H114.5Zm10-7.376H3.5V81.38h121Z"/>
    <path d="M82.867,98.248H11.75a1.75,1.75,0,0,0,0,3.5H82.867a1.75,1.75,0,0,0,0-3.5Z"/>
    <path d="M82.867,87.88H11.75a1.75,1.75,0,0,0,0,3.5H82.867a1.75,1.75,0,1,0,0-3.5Z"/>
    <path d="M98.059,87.88a6.934,6.934,0,1,0,0,13.868h13.007a6.934,6.934,0,0,0,0-13.868ZM114.5,94.814a3.439,3.439,0,0,1-3.434,3.434H98.059a3.434,3.434,0,1,1,0-6.868h13.007A3.438,3.438,0,0,1,114.5,94.814Z"/>
    <path d="M56.753,59A7.247,7.247,0,1,0,64,51.75,7.255,7.255,0,0,0,56.753,59Zm10.994,0A3.747,3.747,0,1,1,64,55.25,3.751,3.751,0,0,1,67.747,59Z"/>
    <path d="M76.17,49.256a1.749,1.749,0,0,0,0-2.474,17.221,17.221,0,0,0-24.355.025,1.75,1.75,0,0,0,2.474,2.475,13.722,13.722,0,0,1,19.411-.021A1.749,1.749,0,0,0,76.17,49.256Z"/>
    <path d="M83.237,42.19a1.751,1.751,0,0,0,0-2.475,27.206,27.206,0,0,0-38.492.024,1.75,1.75,0,1,0,2.475,2.475,23.706,23.706,0,0,1,33.545-.022A1.749,1.749,0,0,0,83.237,42.19Z"/>
    <path d="M38.912,35.659a1.743,1.743,0,0,0,1.237-.513,33.692,33.692,0,0,1,47.681-.022A1.75,1.75,0,1,0,90.3,32.647a37.191,37.191,0,0,0-52.628.024,1.751,1.751,0,0,0,1.238,2.988Z"/>
  </g>
</svg>
