<svg xmlns="http://www.w3.org/2000/svg" width="128" height="128" viewBox="0 0 128 128">
  <title>WIFI ROUTER</title>
  <g>
    <path d="M29.25,89.17a1.808,1.808,0,0,0-2.47,0,1.75,1.75,0,1,0,2.47,0Z"/>
    <path d="M20.069,89.17a1.75,1.75,0,0,0,2.471,2.48,1.741,1.741,0,0,0,0-2.48A1.82,1.82,0,0,0,20.069,89.17Z"/>
    <path d="M13.37,89.17a1.75,1.75,0,0,0,2.47,2.48,1.75,1.75,0,1,0-2.47-2.48Z"/>
    <path d="M112.16,89.17a1.75,1.75,0,0,0,2.47,2.48,1.742,1.742,0,0,0,0-2.48A1.766,1.766,0,0,0,112.16,89.17Z"/>
    <path d="M107.93,89.17a1.754,1.754,0,1,0,0,2.48A1.775,1.775,0,0,0,107.93,89.17Z"/>
    <path d="M98.75,89.17a1.75,1.75,0,0,0,2.47,2.48,1.739,1.739,0,0,0,0-2.48A1.764,1.764,0,0,0,98.75,89.17Z"/>
    <path d="M120.559,72.691H113.5l-1.941-51.962a4.866,4.866,0,0,0-9.726,0L99.887,72.691H28.113L26.172,20.729a4.866,4.866,0,0,0-9.726,0L14.505,72.691H7.441A5.2,5.2,0,0,0,2.25,77.882V99.588a5.2,5.2,0,0,0,5.191,5.191H12.1v2.934a4.247,4.247,0,0,0,4.243,4.243h9.926a4.248,4.248,0,0,0,4.243-4.243v-2.934h66.97v2.934a4.248,4.248,0,0,0,4.243,4.243h9.926a4.247,4.247,0,0,0,4.243-4.243v-2.934h4.662a5.2,5.2,0,0,0,5.191-5.191V77.882A5.2,5.2,0,0,0,120.559,72.691ZM105.326,20.859a1.366,1.366,0,0,1,2.73,0l1.936,51.832h-6.6Zm-14.8,55.332V83.28l-4.382.069V76.191Zm-16.22,0V83.28l-4.383.069V76.191Zm-16.221,0V83.28l-4.383.069V76.191Zm-16.221,0V83.28l-4.382.069V76.191ZM19.944,20.859a1.366,1.366,0,0,1,2.73,0L24.61,72.691h-6.6Zm7.071,86.854a.743.743,0,0,1-.743.743H16.346a.743.743,0,0,1-.743-.743v-2.934H27.015Zm85.382,0a.743.743,0,0,1-.743.743h-9.926a.743.743,0,0,1-.743-.743v-2.934H112.4Zm9.853-8.125a1.693,1.693,0,0,1-1.691,1.691H7.441A1.693,1.693,0,0,1,5.75,99.588V77.882a1.693,1.693,0,0,1,1.691-1.691H33.978v7.158a3.434,3.434,0,0,0,3.43,3.43H41.93a3.434,3.434,0,0,0,3.43-3.43V76.191H50.2v7.158a3.434,3.434,0,0,0,3.431,3.43H58.15a3.434,3.434,0,0,0,3.431-3.43V76.191h4.838v7.158a3.434,3.434,0,0,0,3.431,3.43h4.521a3.434,3.434,0,0,0,3.431-3.43V76.191H82.64v7.158a3.434,3.434,0,0,0,3.43,3.43h4.522a3.434,3.434,0,0,0,3.43-3.43V76.191h26.537a1.693,1.693,0,0,1,1.691,1.691Z"/>
    <path d="M42.964,41.073a1.749,1.749,0,1,0,2.474,2.474,26.282,26.282,0,0,1,37.124,0,1.749,1.749,0,1,0,2.474-2.474A29.782,29.782,0,0,0,42.964,41.073Z"/>
    <path d="M79.38,49.205a1.751,1.751,0,0,0,0-2.475,21.776,21.776,0,0,0-30.76,0A1.75,1.75,0,0,0,51.1,49.205a18.271,18.271,0,0,1,25.81,0A1.751,1.751,0,0,0,79.38,49.205Z"/>
    <path d="M73.723,54.861a1.75,1.75,0,0,0,0-2.474,13.763,13.763,0,0,0-19.446,0,1.75,1.75,0,0,0,2.475,2.474,10.265,10.265,0,0,1,14.5,0A1.749,1.749,0,0,0,73.723,54.861Z"/>
    <path d="M59.935,58.043a5.749,5.749,0,1,0,8.13,0A5.746,5.746,0,0,0,59.935,58.043ZM65.591,63.7h0a2.3,2.3,0,0,1-3.181,0,2.25,2.25,0,1,1,3.182,0Z"/>
  </g>
</svg>
