<?xml version="1.0" encoding="utf-8"?>
<!-- Generator: Adobe Illustrator 27.2.0, SVG Export Plug-In . SVG Version: 6.00 Build 0)  -->
<svg version="1.1" id="Layer_1" xmlns="http://www.w3.org/2000/svg" xmlns:xlink="http://www.w3.org/1999/xlink" x="0px" y="0px"
	 viewBox="0 0 1719.87 1364.9" style="enable-background:new 0 0 1719.87 1364.9;" xml:space="preserve">
<style type="text/css">
	.st0{fill:#0F8FC7;}
	.st1{fill:#0D9438;}
	.st2{fill:#FAB52B;}
	.st3{fill:#0F262B;}
	.st4{font-family:'Cabin-SemiBold';}
	.st5{font-size:152.4744px;}
	.st6{font-family:'Cabin-Regular';}
	.st7{font-size:61.3993px;}
	.st8{letter-spacing:2;}
</style>
<path class="st0" d="M860.19,467.34c62.77-8.78,127.04-13.26,190.41-9.86c3.39,0.18,14.25,1.17,28.53,2.7
	c3.78-10.39,6.82-21.14,9.06-32.17c-75.77,0.49-151.2-14.41-228.01-4.39c-62.77,8.78-127.04,13.26-190.41,9.86
	c-3.27-0.18-13.54-1.11-27.11-2.55c2.4,11.06,5.6,21.83,9.55,32.22C721.26,464.9,790.15,476.48,860.19,467.34z"/>
<path class="st1" d="M1041.16,526.78c7.08-8.63,13.54-17.8,19.31-27.41c-7.66,0.48-15.33,0.88-23,1.19
	c-64.5,2.59-128.94-4.16-192.77-12.49c-60.23-7.16-116.82,8.69-176.11,9.32c5.29,9.03,11.18,17.67,17.63,25.85
	c63.4-2.24,126.73,4.41,189.47,12.6C932.31,542.56,985.71,528.96,1041.16,526.78z"/>
<path class="st1" d="M860.19,556.55c-42.2,5.91-85.09,9.85-127.92,10.78c37.39,26.91,83.26,42.77,132.84,42.77
	c55.27,0,105.93-19.7,145.36-52.46C960.65,554.14,910.72,549.95,860.19,556.55z"/>
<path class="st2" d="M869.88,154.88l10.18,125.65c12.45,1.81,24.17,5.84,34.75,11.68l70.99-102.79
	C952.07,168.29,912.41,155.75,869.88,154.88z"/>
<path class="st2" d="M815.42,292.21c10.59-5.84,22.31-9.87,34.75-11.68l10.18-125.65c-42.53,0.87-82.19,13.41-115.92,34.54
	L815.42,292.21z"/>
<path class="st2" d="M938.19,309.85c8.8,8.86,15.98,19.31,21.12,30.88l112.66-53.42c-17.41-37.77-44.85-69.97-78.91-93.16
	L938.19,309.85z"/>
<path class="st2" d="M762.65,371.74l-108.5-74.93c-10.75,26.44-16.68,55.35-16.68,85.65c0,3.62,0.1,7.22,0.26,10.8
	c15.04-1.3,30.1-2.25,45.18-2.85c26.56-1.07,53.1-0.53,79.6,1.03c-0.26-2.96-0.41-5.95-0.41-8.98
	C762.1,378.84,762.29,375.26,762.65,371.74z"/>
<path class="st2" d="M770.93,340.73c5.13-11.57,12.32-22.02,21.12-30.88l-54.86-115.7c-34.07,23.19-61.51,55.38-78.91,93.16
	L770.93,340.73z"/>
<path class="st2" d="M967.58,371.74c0.36,3.52,0.56,7.1,0.56,10.72c0,6.3-0.6,12.45-1.68,18.44c32.06-3.52,64-8.07,96.89-7.24
	c7.25,0.16,17.52,0.11,29.13,0.28c0.19-3.8,0.28-7.63,0.28-11.47c0-30.3-5.93-59.21-16.68-85.65L967.58,371.74z"/>
<path class="st3" d="M548.46,677.19l-90.4,253.62h41.67l22.31-63.22h94.01l22.26,63.22h41.85l-90.58-253.62H548.46z M535.15,830.44
	l33.95-96.2l33.87,96.2H535.15z"/>
<path class="st3" d="M1081.05,811.42c0,11.84-0.82,22.92-2.45,33.24c-1.63,10.33-4.68,19.36-9.15,27.08
	c-4.47,7.73-10.84,13.74-19.11,18.03c-8.27,4.29-19.05,6.43-32.34,6.43c-13.17,0-23.91-2.14-32.25-6.43
	c-8.33-4.29-14.71-10.3-19.11-18.03c-4.41-7.73-7.46-16.73-9.15-26.99c-1.69-10.26-2.54-21.38-2.54-33.33V677.19h-42.03v145.29
	c0,23.07,3.8,43.09,11.41,60.05c7.61,16.97,19.17,30.1,34.69,39.4c15.52,9.3,35.17,13.95,58.97,13.95
	c23.79,0,43.45-4.65,58.97-13.95c15.52-9.3,27.08-22.43,34.69-39.4c7.61-16.97,11.41-36.98,11.41-60.05V677.19h-42.03V811.42z"/>
<path class="st3" d="M1319.71,798.2c7.79-11.23,11.68-25.91,11.68-44.02c0-17.63-3.62-32.12-10.87-43.48
	c-7.25-11.35-17.45-19.77-30.61-25.27c-13.17-5.49-28.5-8.24-46.01-8.24h-88.95V930.8h42.75v-95.83h47.28c0.36,0,0.66,0,0.91,0
	c0.24,0,0.54,0,0.91,0l50,95.83h48.19l-57.06-105.98C1301.33,818.3,1311.92,809.43,1319.71,798.2z M1275.51,787.06
	c-7.91,8.03-21.1,12.05-39.58,12.05h-38.22v-86.05h39.31c17.87,0,30.73,3.74,38.59,11.23c7.85,7.49,11.78,18,11.78,31.52
	C1287.38,768.61,1283.42,779.03,1275.51,787.06z"/>
<polygon class="st3" points="269.05,805.66 293.2,770.27 243.4,677.19 208.62,677.19 173.84,930.8 217.68,930.8 240.16,753.11 "/>
<polygon class="st3" points="405.36,677.19 371.93,677.19 286.49,837.38 307.17,875.01 373.67,753.01 396.12,930.8 439.96,930.8 "/>
<polygon class="st3" points="741.79,930.8 768.84,886.34 892.29,677.19 715.48,677.19 715.48,714.87 826.29,714.87 699.18,930.8 "/>
<polygon class="st3" points="777.42,930.8 890.48,930.8 890.48,893.12 795.05,893.12 "/>
<polygon class="st3" points="1431.44,761.69 1382.48,677.19 1335.92,677.19 1407.08,795.39 "/>
<polygon class="st3" points="1446.08,786.95 1445.68,786.27 1424.26,823.93 1425.23,825.55 1425.23,930.8 1467.26,930.8 
	1467.26,825.55 1556.39,677.19 1509.83,677.19 "/>
<circle class="st2" cx="621.23" cy="1174.87" r="17.87"/>
<text transform="matrix(1 0 0 1 645.8955 1191.8733)" class="st0 st4 st5">holiday</text>
<text transform="matrix(1 0 0 1 170.1719 1026.5862)" class="st3 st6 st7 st8">WYPOCZYWAJ NA MAZURACH PRZEZ CAŁY ROK</text>
</svg>
