<svg xmlns="http://www.w3.org/2000/svg" width="128" height="128" viewBox="0 0 128 128">
  <title>ALARM CLOCK</title>
  <g>
    <path d="M64,19.055A43.025,43.025,0,1,0,107.024,62.08,43.073,43.073,0,0,0,64,19.055ZM64,101.6A39.525,39.525,0,1,1,103.524,62.08,39.569,39.569,0,0,1,64,101.6Z"/>
    <path d="M65.75,55.285V40.4a1.75,1.75,0,0,0-3.5,0v14.89a7,7,0,0,0-4.291,10.36L47.43,76.175A1.75,1.75,0,1,0,49.9,78.65l10.53-10.53A7.016,7.016,0,1,0,65.75,55.285ZM64,65.6a3.524,3.524,0,1,1,3.523-3.524A3.528,3.528,0,0,1,64,65.6Z"/>
    <path d="M121.522,9.985a5.427,5.427,0,0,0-9.265-3.838l-2.7,2.7a20.166,20.166,0,0,0-24.9,4.016,53.348,53.348,0,0,0-41.311,0,20.165,20.165,0,0,0-24.9-4.016l-2.7-2.7a5.427,5.427,0,1,0-7.676,7.675l2.7,2.7a20.164,20.164,0,0,0,4.015,24.9A53.289,53.289,0,0,0,27.68,101.142l-10.2,19.748a1.75,1.75,0,0,0,1.555,2.553H29.3a1.753,1.753,0,0,0,1.221-.5l12.238-11.914a53.236,53.236,0,0,0,42.486,0l12.238,11.914a1.753,1.753,0,0,0,1.221.5h10.264a1.749,1.749,0,0,0,1.554-2.553l-10.2-19.748a53.285,53.285,0,0,0,12.893-59.718,20.161,20.161,0,0,0,4.016-24.9l2.7-2.7A5.393,5.393,0,0,0,121.522,9.985ZM10.542,11.347a1.925,1.925,0,0,1,0-2.725,1.974,1.974,0,0,1,2.727,0l2.237,2.237a20.3,20.3,0,0,0-2.726,2.726Zm1.106,15.1A16.709,16.709,0,0,1,39.983,14.436,53.722,53.722,0,0,0,16.356,38.063,16.617,16.617,0,0,1,11.648,26.449Zm16.939,93.494H21.908L30.4,103.509a53.492,53.492,0,0,0,9,5.912Zm77.505,0H99.413L88.605,109.421a53.492,53.492,0,0,0,9-5.912ZM64,111.955A49.875,49.875,0,1,1,113.875,62.08,49.932,49.932,0,0,1,64,111.955Zm47.643-73.892A53.715,53.715,0,0,0,88.017,14.436a16.709,16.709,0,0,1,23.626,23.627Zm5.815-26.715-2.238,2.237a20.353,20.353,0,0,0-2.726-2.726l2.237-2.237a1.974,1.974,0,0,1,2.727,0,1.929,1.929,0,0,1,0,2.726Z"/>
    <path d="M64,33.094a1.75,1.75,0,0,0,1.75-1.75V27.565a1.75,1.75,0,1,0-3.5,0v3.779A1.75,1.75,0,0,0,64,33.094Z"/>
    <path d="M64,91.065a1.75,1.75,0,0,0-1.75,1.75v3.779a1.75,1.75,0,0,0,3.5,0V92.815A1.75,1.75,0,0,0,64,91.065Z"/>
    <path d="M94.735,63.83h3.78a1.75,1.75,0,0,0,0-3.5h-3.78a1.75,1.75,0,0,0,0,3.5Z"/>
    <path d="M33.265,60.33h-3.78a1.75,1.75,0,0,0,0,3.5h3.78a1.75,1.75,0,0,0,0-3.5Z"/>
  </g>
</svg>
