<svg xmlns="http://www.w3.org/2000/svg" width="128" height="128" viewBox="0 0 128 128">
  <title>BATHROBE</title>
  <path d="M119.665,70.332l-16.8-47.069a13.678,13.678,0,0,0-9.965-8.8L81.637,11.956,77.11,5.321a1.728,1.728,0,0,0-1.369-.746.324.324,0,0,0-.076-.018H52.335a.344.344,0,0,0-.072.017,1.729,1.729,0,0,0-1.373.747l-4.528,6.635L35.1,14.462a13.677,13.677,0,0,0-9.965,8.8L8.335,70.332a1.75,1.75,0,0,0,1.07,2.24L25.073,78.06A1.751,1.751,0,0,0,27.3,77.008l9.991-27.352,1.741,10.958a3.244,3.244,0,0,0-1.375,2.645v6.253a3.242,3.242,0,0,0,1.353,2.627l-8.7,49.25a1.75,1.75,0,0,0,1.419,2.027,1.689,1.689,0,0,0,.306.027A1.751,1.751,0,0,0,33.752,122l8.7-49.235H65.224v48.93a1.75,1.75,0,0,0,3.5,0V72.762h3.707v48.93a1.75,1.75,0,0,0,3.5,0V72.762H85.55L94.248,122a1.751,1.751,0,0,0,1.722,1.446,1.689,1.689,0,0,0,.306-.027,1.75,1.75,0,0,0,1.419-2.027L89,72.139a3.242,3.242,0,0,0,1.353-2.627V63.259a3.244,3.244,0,0,0-1.375-2.645l1.741-10.958,9.991,27.352a1.751,1.751,0,0,0,2.222,1.052L118.6,72.572a1.75,1.75,0,0,0,1.07-2.24Zm-41.051-56.6L67.878,40.986l-2-5.07,10.2-25.893Zm-6.98-1.971H56.366L54.905,8.057H73.1Zm-1.378,3.5L64,31.142,57.744,15.264ZM51.918,10.023,71.611,60.009h-4L49.386,13.735Zm34.93,53.486v5.753h-45.7V63.509ZM36.312,42.121,24.6,74.185,12.224,69.85l16.2-45.411a10.19,10.19,0,0,1,7.427-6.56l10.482-2.332L63.855,60.009H42.475l-2.79-17.562a1.751,1.751,0,0,0-3.373-.326ZM103.4,74.185,91.687,42.121a1.75,1.75,0,0,0-3.372.326L85.524,60.009H75.373L69.759,45.76l11.9-30.213,10.482,2.332a10.191,10.191,0,0,1,7.427,6.561l16.2,45.41Z"/>
</svg>
