<svg xmlns="http://www.w3.org/2000/svg" width="128" height="128" viewBox="0 0 128 128">
  <title>BATHTUB</title>
  <g>
    <path d="M120.175,55.854H58.231a7.019,7.019,0,0,1-4.992-2.067l-1.249-1.25a10.49,10.49,0,0,0-7.467-3.093H15.57V37.538a2.038,2.038,0,0,1,1.53-2.017,1.963,1.963,0,0,1,2.385,1.913v.292a4.75,4.75,0,0,0,9.5,0v-.292a11.458,11.458,0,1,0-22.915,0v12.3a5.569,5.569,0,0,0,0,10.574V70.943A23.7,23.7,0,0,0,17.6,91.267l.889,7.114a4.164,4.164,0,0,0,4.126,3.643h2.156A4.162,4.162,0,0,0,28.9,98.378l.467-3.751c.133,0,.265.01.4.01H98.236c.134,0,.266-.008.4-.01l.467,3.75a4.162,4.162,0,0,0,4.126,3.647h2.156a4.164,4.164,0,0,0,4.126-3.643l.889-7.114A23.7,23.7,0,0,0,121.93,70.943V66.717a5.573,5.573,0,0,0-1.755-10.863ZM9.57,37.434a7.958,7.958,0,1,1,15.915,0v.292a1.25,1.25,0,0,1-2.5,0v-.292A5.464,5.464,0,0,0,16.4,32.091a5.523,5.523,0,0,0-4.329,5.447V49.444H9.57ZM25.877,94.316l-.451,3.631a.66.66,0,0,1-.654.577H22.616a.659.659,0,0,1-.653-.577l-.605-4.842A24.037,24.037,0,0,0,25.877,94.316Zm80.765-1.211-.6,4.842a.659.659,0,0,1-.653.577h-2.156a.66.66,0,0,1-.654-.578l-.451-3.63A24.037,24.037,0,0,0,106.642,93.105ZM118.43,70.943A20.256,20.256,0,0,1,98.236,91.137H29.764A20.252,20.252,0,0,1,9.57,70.943V60.594c6.2,0,31.239-.005,31.9,0a7.1,7.1,0,0,1,4.877,2.063l1.249,1.249A10.489,10.489,0,0,0,55.059,67H118.43Zm1.745-7.439H55.061a7.013,7.013,0,0,1-4.992-2.067l-1.25-1.25c-.228-.229-.469-.444-.717-.65a10.8,10.8,0,0,0-6.752-2.443H7.825a2.075,2.075,0,1,1,0-4.15h36.7a7.014,7.014,0,0,1,4.992,2.068l1.25,1.251a10.5,10.5,0,0,0,7.466,3.091h61.944a2.075,2.075,0,1,1,0,4.15Z"/>
    <path d="M29.764,83.137A12.208,12.208,0,0,1,17.57,70.943a1.75,1.75,0,0,0-3.5,0A15.711,15.711,0,0,0,29.764,86.637a1.75,1.75,0,0,0,0-3.5Z"/>
  </g>
</svg>
