<svg xmlns="http://www.w3.org/2000/svg" width="128" height="128" viewBox="0 0 128 128">
  <title>BATHUB</title>
  <g>
    <path d="M117.89,61.671V48.5a1.751,1.751,0,0,0-1.75-1.75h-1.747V13.78A9.224,9.224,0,0,0,98.647,7.259L96.222,9.684a12.675,12.675,0,0,0-16.58,1.141,1.749,1.749,0,0,0,0,2.475L95.081,28.738a1.748,1.748,0,0,0,2.474,0A12.675,12.675,0,0,0,98.7,12.158l2.425-2.425a5.724,5.724,0,0,1,9.771,4.047V46.754h-1.749a1.751,1.751,0,0,0-1.75,1.75V61.558H81.218a11.539,11.539,0,0,0-12.675-9.721,8.985,8.985,0,0,0-11.89-6.854A12.754,12.754,0,0,0,32.7,50.894,12.016,12.016,0,0,0,21.771,61.558H11.307a6.758,6.758,0,0,0-6.75,6.75v5.881a1.751,1.751,0,0,0,1.75,1.75H10.5l7.7,30.1a8.743,8.743,0,0,0,6.355,6.32l-1.986,8.961a1.751,1.751,0,0,0,1.709,2.128h6.353a1.749,1.749,0,0,0,1.542-.923l5.309-9.9H90.522l5.308,9.9a1.751,1.751,0,0,0,1.543.923h6.353a1.751,1.751,0,0,0,1.709-2.128l-1.986-8.961a8.743,8.743,0,0,0,6.355-6.32l7.695-30.1h4.194a1.751,1.751,0,0,0,1.75-1.75V68.308A6.756,6.756,0,0,0,117.89,61.671ZM96.2,24.909,83.471,12.18A9.171,9.171,0,0,1,96.2,24.909Zm14.693,25.345h3.5v11.3h-3.5Zm-77.2,4.1c.245,0,.487.018.727.038a1.727,1.727,0,0,0,1.42-.542A1.755,1.755,0,0,0,36.3,52.4a9.249,9.249,0,0,1,17.855-4.46,1.75,1.75,0,0,0,2.589.877,5.483,5.483,0,0,1,8.44,4.623c0,.116-.01.23-.021.394a1.75,1.75,0,0,0,2.266,1.8,8.048,8.048,0,0,1,10.237,5.93H25.305A8.5,8.5,0,0,1,33.7,54.352ZM29.58,119.943H26.454l1.623-7.327h5.43Zm68.84,0-3.927-7.327h5.429l1.624,7.327Zm7.994-14.776a5.249,5.249,0,0,1-5.087,3.949H26.673a5.248,5.248,0,0,1-5.087-3.949L14.113,75.939h99.773Zm13.529-32.728H8.057V68.308a3.254,3.254,0,0,1,3.25-3.25H116.693a3.254,3.254,0,0,1,3.25,3.25Z"/>
    <path d="M82.509,23.4l-1.18,1.18A1.75,1.75,0,0,0,83.8,27.052l1.181-1.18A1.75,1.75,0,0,0,82.509,23.4Z"/>
    <path d="M76.909,33.221a1.745,1.745,0,0,0,1.238-.513l1.18-1.18a1.75,1.75,0,0,0-2.475-2.475l-1.181,1.181a1.75,1.75,0,0,0,1.238,2.987Z"/>
    <path d="M71.195,34.71l-1.18,1.181a1.75,1.75,0,1,0,2.475,2.474l1.18-1.18a1.75,1.75,0,1,0-2.475-2.475Z"/>
    <path d="M88.019,32.984a1.75,1.75,0,0,0,1.43-.739l.964-1.363a1.75,1.75,0,1,0-2.857-2.021l-.965,1.363a1.749,1.749,0,0,0,1.428,2.76Z"/>
    <path d="M82.935,35.392l-.964,1.362a1.75,1.75,0,0,0,2.857,2.022l.964-1.363a1.75,1.75,0,0,0-2.857-2.021Z"/>
    <path d="M77.147,22.11a1.744,1.744,0,0,0,1.01-.321l1.362-.964A1.75,1.75,0,0,0,77.5,17.967l-1.363.964a1.75,1.75,0,0,0,1.012,3.179Z"/>
    <path d="M70.617,26.731a1.743,1.743,0,0,0,1.009-.321l1.363-.965a1.75,1.75,0,1,0-2.022-2.857l-1.363.964a1.75,1.75,0,0,0,1.013,3.179Z"/>
  </g>
</svg>
