<svg xmlns="http://www.w3.org/2000/svg" width="128" height="128" viewBox="0 0 128 128">
  <title>BED</title>
  <path d="M116.693,59.449h-1.332V24.14a7.757,7.757,0,0,0-5.08-7.276C102.762,14.129,86.75,9.542,64,9.542s-38.762,4.587-46.281,7.322a7.757,7.757,0,0,0-5.08,7.276V59.449H11.307a6.758,6.758,0,0,0-6.75,6.75v50.509a1.751,1.751,0,0,0,1.75,1.75H19.924a1.749,1.749,0,0,0,1.37-.662l7.639-9.619H99.067l7.639,9.619a1.749,1.749,0,0,0,1.37.662h13.617a1.751,1.751,0,0,0,1.75-1.75V66.2A6.758,6.758,0,0,0,116.693,59.449Zm-97.778-39.3C26.218,17.5,41.787,13.042,64,13.042s37.782,4.456,45.085,7.111a4.246,4.246,0,0,1,2.776,3.987v7.328H16.139V24.14A4.246,4.246,0,0,1,18.915,20.153ZM16.139,34.968h95.722V59.449H88.042V53.143a6.758,6.758,0,0,0-6.75-6.75H46.708a6.758,6.758,0,0,0-6.75,6.75v6.306H16.139ZM43.458,59.449V53.143a3.254,3.254,0,0,1,3.25-3.25H81.292a3.254,3.254,0,0,1,3.25,3.25v6.306Zm-32.151,3.5H116.693a3.254,3.254,0,0,1,3.25,3.25V82.064H8.057V66.2A3.254,3.254,0,0,1,11.307,62.949Zm108.636,52.009H108.921l-7.638-9.619a1.751,1.751,0,0,0-1.37-.662H28.087a1.751,1.751,0,0,0-1.37.662l-7.638,9.619H8.057V85.564H119.943Z"/>
</svg>
