<svg xmlns="http://www.w3.org/2000/svg" width="128" height="128" viewBox="0 0 128 128">
  <title>BELLBOY</title>
  <g>
    <circle cx="64" cy="119.379" r="2.314"/>
    <path d="M97.82,72.445l-20.734-6.1a31.444,31.444,0,0,0,8.143-12.329l2.21-.766a8.721,8.721,0,0,0,5.791-7.01l.192-1.32a5.918,5.918,0,0,0-5.856-6.768H87.36V6.307a1.75,1.75,0,0,0-1.75-1.75H42.39a1.75,1.75,0,0,0-1.75,1.75V38.155h-.206a5.918,5.918,0,0,0-5.856,6.768l.192,1.32a8.721,8.721,0,0,0,5.791,7.01l2.21.766a31.452,31.452,0,0,0,8.143,12.329l-20.734,6.1a13.826,13.826,0,0,0-9.871,13.191v36.057a1.75,1.75,0,1,0,3.5,0V85.636A10.307,10.307,0,0,1,31.167,75.8l23.038-6.775a17.312,17.312,0,0,0,6.385,2.678l-6.9,3.689a1.749,1.749,0,0,0-.924,1.543v44.755a1.75,1.75,0,0,0,3.5,0V77.987l12.2-6.52A17.294,17.294,0,0,0,73.8,69.028L96.833,75.8a10.307,10.307,0,0,1,7.358,9.833v36.057a1.75,1.75,0,1,0,3.5,0V85.636A13.826,13.826,0,0,0,97.82,72.445ZM83.86,25.778H44.14V21.157H83.86Zm-2.06,3.5c-2.642,2.254-7.961,5.167-17.8,5.167s-15.163-2.917-17.8-5.167Zm7.594,13.213a2.383,2.383,0,0,1,.564,1.929l-.191,1.32a5.227,5.227,0,0,1-3.336,4.147,38.885,38.885,0,0,0,.919-8.232h.216A2.383,2.383,0,0,1,89.394,42.491ZM83.86,8.057v9.6H44.14v-9.6ZM38.233,45.74l-.191-1.32a2.418,2.418,0,0,1,2.392-2.765h.216a38.893,38.893,0,0,0,.919,8.232A5.227,5.227,0,0,1,38.233,45.74Zm5.907-4.433V32.092c3.264,2.7,9.334,5.853,19.86,5.853s16.6-3.155,19.86-5.853v9.215c0,12.968-6.22,20.434-11.438,24.414a13.921,13.921,0,0,1-16.844,0C50.36,61.741,44.14,54.275,44.14,41.307Z"/>
    <path d="M39,93.811a1.751,1.751,0,0,0-1.75,1.75v26.132a1.75,1.75,0,0,0,3.5,0V95.561A1.751,1.751,0,0,0,39,93.811Z"/>
    <path d="M89,93.811a1.751,1.751,0,0,0-1.75,1.75v26.132a1.75,1.75,0,0,0,3.5,0V95.561A1.751,1.751,0,0,0,89,93.811Z"/>
    <circle cx="64" cy="83.984" r="2.314"/>
    <circle cx="72" cy="42.219" r="2.314"/>
    <circle cx="56" cy="42.219" r="2.314"/>
    <circle cx="64" cy="95.782" r="2.314"/>
    <circle cx="64" cy="107.581" r="2.314"/>
    <path d="M55.989,54.781a1.75,1.75,0,0,0-.087,2.473,12.072,12.072,0,0,0,16.2,0,1.75,1.75,0,0,0-2.549-2.4,8.639,8.639,0,0,1-11.1,0A1.75,1.75,0,0,0,55.989,54.781Z"/>
  </g>
</svg>
