<svg xmlns="http://www.w3.org/2000/svg" width="128" height="128" viewBox="0 0 128 128">
  <title>CHAMPAGNE</title>
  <g>
    <path d="M111.852,84.664a62.537,62.537,0,0,0-5.236-25.251c-2.119-4.847-3.5-6.087-5.641-12.151a59.185,59.185,0,0,1-3.313-16.154L96.248,17.939A3.638,3.638,0,0,0,98.06,13.95l-1.92-8.8a3.709,3.709,0,0,0-3.6-2.9H83.3a3.706,3.706,0,0,0-3.6,2.9l-1.92,8.794A3.635,3.635,0,0,0,79.6,17.94l-1.42,13.24a58.832,58.832,0,0,1-3.314,16.1C71.78,56,68.716,57.809,65.875,69.18a63.849,63.849,0,0,0-1.883,15.484v33.2c0,4.345,2.974,7.88,6.63,7.88h34.6c3.656,0,6.63-3.535,6.63-7.88ZM76.074,53.524h5.92a4.388,4.388,0,0,0,2.884-1.1,4.762,4.762,0,0,1,6.078,0,4.377,4.377,0,0,0,2.885,1.1H99.77c1.031,2.232,1.512,2.932,2.481,4.84H93.837a4.384,4.384,0,0,0-2.88,1.094,4.748,4.748,0,0,1-6.082,0A4.384,4.384,0,0,0,82,58.364H73.587C74.554,56.462,74.962,55.931,76.074,53.524ZM81.2,14.7,83.123,5.9a.185.185,0,0,1,.18-.145H92.54a.185.185,0,0,1,.18.145l1.92,8.8a.185.185,0,0,1-.181.225H81.383A.184.184,0,0,1,81.2,14.7Zm.46,16.785,1.4-13.056H92.78l1.4,12.984a62.548,62.548,0,0,0,3.506,17.038c.191.542.393,1.06.594,1.577H93.841a.889.889,0,0,1-.578-.23,8.144,8.144,0,0,0-10.691,0,.887.887,0,0,1-.578.23H77.568c.2-.515.4-1.031.59-1.566A62.185,62.185,0,0,0,81.663,31.481Zm26.689,86.383c0,2.374-1.433,4.38-3.13,4.38h-34.6c-1.7,0-3.13-2.006-3.13-4.38v-33.2A60.4,60.4,0,0,1,69.27,70.028a57.135,57.135,0,0,1,2.719-8.164H82a.88.88,0,0,1,.574.227,8.133,8.133,0,0,0,10.69,0,.876.876,0,0,1,.575-.229h10a59.219,59.219,0,0,1,4.511,22.8Z"/>
    <path d="M98.708,81.91H77.135A4.99,4.99,0,0,0,72.151,86.9v22.574a4.989,4.989,0,0,0,4.984,4.983H98.708a4.988,4.988,0,0,0,4.983-4.983V86.9A4.989,4.989,0,0,0,98.708,81.91Zm1.483,27.559a1.484,1.484,0,0,1-1.483,1.483H77.135a1.485,1.485,0,0,1-1.484-1.483V86.9a1.486,1.486,0,0,1,1.484-1.485H98.708a1.485,1.485,0,0,1,1.483,1.485Z"/>
    <path d="M56.836,72.548,53.809,40.307a4.031,4.031,0,0,0-4.03-3.67H23.3a4.029,4.029,0,0,0-4.029,3.669L16.239,72.548a20.378,20.378,0,0,0,15.4,21.688v18.428a7.229,7.229,0,0,1-2.25,5.237l-3.464,3.263a2.654,2.654,0,0,0,1.824,4.58h17.58a2.653,2.653,0,0,0,1.82-4.583L43.689,117.9a7.228,7.228,0,0,1-2.251-5.238V94.236A20.378,20.378,0,0,0,56.836,72.548Zm-37.113.328,3.028-32.242a.546.546,0,0,1,.545-.5H49.779a.546.546,0,0,1,.545.5l3.028,32.242a16.888,16.888,0,1,1-33.629,0ZM37.938,94.8v17.867a10.74,10.74,0,0,0,3.35,7.784l1.906,1.8H29.882l1.908-1.8a10.746,10.746,0,0,0,3.348-7.783V94.8A24.637,24.637,0,0,0,37.938,94.8Z"/>
    <path d="M36.538,87.845A13.383,13.383,0,0,0,49.87,73.2L48.764,61.4a2.73,2.73,0,0,0-1.436-2.159,2.7,2.7,0,0,0-2.571.006,6.277,6.277,0,0,1-7.074-.79,9.761,9.761,0,0,0-10.57-1.448,4.99,4.99,0,0,0-2.768,4.05L23.206,73.2A13.381,13.381,0,0,0,36.538,87.845ZM26.69,73.528l1.14-12.136a1.478,1.478,0,0,1,.786-1.219,6.263,6.263,0,0,1,6.771.93,9.774,9.774,0,0,0,9.994,1.71l1.005,10.714a9.891,9.891,0,1,1-19.7,0Z"/>
  </g>
</svg>
