<svg xmlns="http://www.w3.org/2000/svg" width="128" height="128" viewBox="0 0 128 128">
  <title>CHEF</title>
  <g>
    <path d="M64.223,61.34h1.749a1.75,1.75,0,0,0,0-3.5H64.511l.592-3.9a1.75,1.75,0,1,0-3.461-.526l-.635,4.19a3.253,3.253,0,0,0,3.216,3.738Z"/>
    <path d="M63.888,70.364A9.459,9.459,0,0,0,71.2,67.31a1.75,1.75,0,0,0-2.7-2.227,6.868,6.868,0,0,1-9.23,0,1.75,1.75,0,1,0-2.7,2.225A9.452,9.452,0,0,0,63.888,70.364Z"/>
    <path d="M95.683,90.786l-6.742-.662L86.167,83.8a1.747,1.747,0,0,0-2.3-.9L78.3,85.308l-.5-3.933h8.177A13.813,13.813,0,0,0,96.351,58.447l-1.788-2.035a7.765,7.765,0,0,0-2.594-7.895,5.229,5.229,0,0,0-.72-10.1V37.086l.466-9.447A12.492,12.492,0,1,0,77.739,7.208a16.7,16.7,0,0,0-27.478,0A12.491,12.491,0,1,0,36.286,27.64L36.75,37v1.418a5.234,5.234,0,0,0-.881,10.049,7.773,7.773,0,0,0-2.6,8.142l-1.615,1.839A13.813,13.813,0,0,0,42.028,81.375h8.177l-.5,3.933L44.13,82.9a1.747,1.747,0,0,0-2.3.9l-2.774,6.327-6.742.662a21.718,21.718,0,0,0-19.66,21.688V126.25a1.749,1.749,0,0,0,1.75,1.75h99.186a1.749,1.749,0,0,0,1.75-1.75V112.474A21.718,21.718,0,0,0,95.683,90.786Zm-34.048.839a1.749,1.749,0,0,0-1.054-1.605l-7.57-3.28q.083-.364.13-.732l.627-4.909a21.408,21.408,0,0,0,20.464,0l.627,4.91q.048.368.13.732l-7.57,3.28a1.749,1.749,0,0,0-1.054,1.605v8h-4.73ZM36.477,54.539a4.34,4.34,0,0,1,3.43-4.237,21.683,21.683,0,0,0,.471,3.935l1,4.572a4.105,4.105,0,0,1-.565.064A4.339,4.339,0,0,1,36.477,54.539Zm8.659,5.074-.005-.022L43.8,53.5a18.118,18.118,0,0,1-.408-3.809V48.82h6.944a3.91,3.91,0,1,0,7.671,0H68.739a3.91,3.91,0,1,0,7.671,0h8.2v.866a18.15,18.15,0,0,1-.406,3.8L82.846,59.7c-.909,3.551-.872,5.415-2.324,9.406a17.788,17.788,0,0,1-5.742,7.486,1.729,1.729,0,0,0-.36.262,17.877,17.877,0,0,1-20.839,0,1.757,1.757,0,0,0-.363-.264,17.771,17.771,0,0,1-5.738-7.483C46.932,68.208,45.573,61.617,45.136,59.613Zm41.829-.74c-.117,0-.233-.02-.349-.03l1.007-4.612a21.721,21.721,0,0,0,.468-3.86,4.324,4.324,0,0,1-1.126,8.5ZM85.474,90.931,69.865,98.572v-5.8l13.8-5.976Zm8.247-30.174a10.313,10.313,0,0,1-7.749,17.118H78.666a21.354,21.354,0,0,0,5.1-7.455c.621-1.113,1.746-6.454,2.1-8.137a7.663,7.663,0,0,0,1.1.09,7.814,7.814,0,0,0,5.853-2.644ZM32.89,16.473a9.01,9.01,0,0,1,9-9,8.915,8.915,0,0,1,7.263,3.7,1.75,1.75,0,0,0,2.984-.262,13.2,13.2,0,0,1,23.726,0,1.75,1.75,0,0,0,2.984.262,8.915,8.915,0,0,1,7.263-3.7,9,9,0,0,1,3.272,17.376,1.75,1.75,0,0,0-1.111,1.544L87.75,37v1.32h-47.5V36.914l-.519-10.521a1.75,1.75,0,0,0-1.111-1.544A8.945,8.945,0,0,1,32.89,16.473ZM37.719,41.82H90.281a1.75,1.75,0,0,1,0,3.5H37.719a1.75,1.75,0,0,1,0-3.5Zm-3.08,32.937a10.363,10.363,0,0,1-.36-14l.794-.9a7.805,7.805,0,0,0,5.739,2.519,7.7,7.7,0,0,0,1.317-.124c.663,2.44.63,4.2,2.108,8.174a21.32,21.32,0,0,0,5.1,7.452H42.028A10.373,10.373,0,0,1,34.639,74.757Zm9.7,12.041,13.8,5.976v5.8L42.526,90.931ZM16.157,112.474a18.23,18.23,0,0,1,16.5-18.2l7.268-.714L54.7,100.787A11.752,11.752,0,0,0,48,111.378V124.5H27.625v-7.25a1.75,1.75,0,0,0-3.5,0v7.25H16.157ZM111.843,124.5h-7.968v-7.25a1.75,1.75,0,0,0-3.5,0v7.25H51.5V111.378a8.26,8.26,0,0,1,8.25-8.25h8.362a1.815,1.815,0,0,0,.34-.034h.009a.25.25,0,0,1,.026-.007c.031-.007.061-.02.092-.029a1.714,1.714,0,0,0,.266-.095c.012-.005.025-.007.037-.013l19.188-9.394,7.267.714a18.23,18.23,0,0,1,16.5,18.2Z"/>
    <path d="M66.5,108.167H58.934a1.75,1.75,0,0,0,0,3.5H66.5a1.75,1.75,0,0,0,0-3.5Z"/>
    <path d="M66.5,116.705H58.934a1.75,1.75,0,0,0,0,3.5H66.5a1.75,1.75,0,0,0,0-3.5Z"/>
    <path d="M50.067,33.5a1.749,1.749,0,0,0,1.75-1.75V23.125a1.75,1.75,0,0,0-3.5,0V31.75A1.75,1.75,0,0,0,50.067,33.5Z"/>
    <path d="M77.933,33.5a1.75,1.75,0,0,0,1.75-1.75V23.125a1.75,1.75,0,0,0-3.5,0V31.75A1.749,1.749,0,0,0,77.933,33.5Z"/>
    <path d="M64,33.5a1.75,1.75,0,0,0,1.75-1.75V14.625a1.75,1.75,0,0,0-3.5,0V31.75A1.75,1.75,0,0,0,64,33.5Z"/>
  </g>
</svg>
