<svg xmlns="http://www.w3.org/2000/svg" width="128" height="128" viewBox="0 0 128 128">
  <title>CLEANING STAFF</title>
  <g>
    <path d="M97.82,72.445l-20.734-6.1a31.444,31.444,0,0,0,8.143-12.329l2.21-.766a8.721,8.721,0,0,0,5.791-7.01l.192-1.32a5.919,5.919,0,0,0-5.856-6.768H87.36V24.382A19.847,19.847,0,0,0,67.536,4.557H60.464A19.847,19.847,0,0,0,40.64,24.382V38.155h-.206a5.918,5.918,0,0,0-5.856,6.768l.191,1.32a8.722,8.722,0,0,0,5.792,7.01l2.21.766a31.452,31.452,0,0,0,8.143,12.329l-20.734,6.1a13.826,13.826,0,0,0-9.871,13.191v36.057a1.75,1.75,0,1,0,3.5,0V85.636A10.307,10.307,0,0,1,31.167,75.8l14.627-4.3,8.957,13.7A1.749,1.749,0,0,0,56.216,86h.06a1.752,1.752,0,0,0,1.468-.9l4.506-8.064v44.658a1.75,1.75,0,0,0,3.5,0V77.035L70.256,85.1a1.75,1.75,0,0,0,2.993.1l8.956-13.7,14.627,4.3a10.307,10.307,0,0,1,7.359,9.833v36.057a1.75,1.75,0,1,0,3.5,0V85.636A13.826,13.826,0,0,0,97.82,72.445ZM89.394,42.491a2.383,2.383,0,0,1,.564,1.929l-.191,1.32a5.227,5.227,0,0,1-3.336,4.147,38.885,38.885,0,0,0,.919-8.232h.216A2.383,2.383,0,0,1,89.394,42.491ZM83.86,24.382v.151a45.089,45.089,0,0,0-18.11-4.764V8.057h1.786A16.343,16.343,0,0,1,83.86,24.382ZM64,23.219a41.7,41.7,0,0,1,19.488,5.087c-.777,1.872-2.7,5.289-6.52,5.614-1.977.172-3.439-.469-5.3-1.276A17.869,17.869,0,0,0,64,30.752a17.869,17.869,0,0,0-7.672,1.892c-1.857.807-3.324,1.448-5.3,1.276-3.839-.327-5.755-3.736-6.526-5.614A41.522,41.522,0,0,1,64,23.219ZM60.464,8.057H62.25V19.769a45.089,45.089,0,0,0-18.11,4.764v-.151A16.343,16.343,0,0,1,60.464,8.057ZM38.233,45.74l-.192-1.32a2.419,2.419,0,0,1,2.393-2.765h.216a38.893,38.893,0,0,0,.919,8.232A5.227,5.227,0,0,1,38.233,45.74Zm5.907-4.433V34.16a10.043,10.043,0,0,0,6.594,3.248c.319.027.627.04.928.04a14.544,14.544,0,0,0,6.062-1.595A14.552,14.552,0,0,1,64,34.252a14.552,14.552,0,0,1,6.276,1.6,13.576,13.576,0,0,0,6.99,1.555A10.043,10.043,0,0,0,83.86,34.16v7.147c0,12.968-6.22,20.434-11.438,24.414a13.921,13.921,0,0,1-16.844,0C50.36,61.741,44.14,54.275,44.14,41.307ZM56.1,80.868l-6.8-10.4,4.9-1.442a17.327,17.327,0,0,0,6.949,2.792Zm15.8,0L66.845,71.82a17.325,17.325,0,0,0,6.95-2.792l4.9,1.442Z"/>
    <path d="M39,93.811a1.751,1.751,0,0,0-1.75,1.75v26.132a1.75,1.75,0,0,0,3.5,0V95.561A1.751,1.751,0,0,0,39,93.811Z"/>
    <path d="M89,93.811a1.751,1.751,0,0,0-1.75,1.75v26.132a1.75,1.75,0,0,0,3.5,0V95.561A1.751,1.751,0,0,0,89,93.811Z"/>
    <circle cx="72" cy="42.219" r="2.314"/>
    <circle cx="56" cy="42.219" r="2.314"/>
    <path d="M55.989,54.781a1.75,1.75,0,0,0-.087,2.473,12.072,12.072,0,0,0,16.2,0,1.75,1.75,0,0,0-2.549-2.4,8.639,8.639,0,0,1-11.1,0A1.75,1.75,0,0,0,55.989,54.781Z"/>
    <path d="M82.417,93.811H70.582a1.751,1.751,0,0,0-1.75,1.75v5.46a1.751,1.751,0,0,0,1.75,1.75H82.417a1.75,1.75,0,0,0,1.75-1.75v-5.46A1.75,1.75,0,0,0,82.417,93.811Zm-1.75,5.46H72.332v-1.96h8.335Z"/>
  </g>
</svg>
