<svg xmlns="http://www.w3.org/2000/svg" width="128" height="128" viewBox="0 0 128 128">
  <title>CLOCK</title>
  <g>
    <path d="M45.707,74.689h11.02a8.977,8.977,0,0,0,16.156-6.7L85.589,55.284a5.287,5.287,0,0,0,0-7.477h0a5.3,5.3,0,0,0-7.478,0L65.4,60.517a8.865,8.865,0,0,0-8.672,3.6H45.707a5.288,5.288,0,1,0,0,10.575ZM68.97,61.9,80.585,50.281a1.788,1.788,0,1,1,2.528,2.529L71.5,64.422A9.453,9.453,0,0,0,68.97,61.9ZM64,63.9A5.505,5.505,0,1,1,58.5,69.4,5.523,5.523,0,0,1,64,63.9ZM45.707,67.614h9.468a8.965,8.965,0,0,0,0,3.575H45.707a1.788,1.788,0,1,1,0-3.575Z"/>
    <path d="M64.01,27.211h-.019A42.419,42.419,0,0,0,21.806,69.405c0,24.176,20.6,42.182,42.252,42.182a42.188,42.188,0,0,0-.048-84.376Zm-1.76,3.54v3.1a1.75,1.75,0,0,0,3.5,0v-3.1A38.382,38.382,0,0,1,90.038,40.889L87.9,43.029A1.75,1.75,0,0,0,90.372,45.5l2.138-2.137a38.677,38.677,0,0,1,10.142,24.285H99.546a1.75,1.75,0,0,0,0,3.5h3.1a38.525,38.525,0,0,1-10.1,24.329L90.372,93.3A1.75,1.75,0,0,0,87.9,95.774l2.182,2.181A38.548,38.548,0,0,1,65.75,108.044v-3.1a1.75,1.75,0,1,0-3.5,0v3.1A38.548,38.548,0,0,1,37.921,97.955L40.1,95.774A1.75,1.75,0,0,0,37.628,93.3l-2.182,2.182a38.525,38.525,0,0,1-10.1-24.329h3.1a1.75,1.75,0,0,0,0-3.5H25.348A38.677,38.677,0,0,1,35.49,43.367L37.628,45.5A1.75,1.75,0,0,0,40.1,43.029l-2.14-2.14A38.387,38.387,0,0,1,62.25,30.751Z"/>
    <path d="M72.016,85.517H55.984a3.219,3.219,0,0,0-3.215,3.216v4.338a3.219,3.219,0,0,0,3.215,3.216H72.016a3.219,3.219,0,0,0,3.215-3.216V88.733A3.219,3.219,0,0,0,72.016,85.517Zm-.285,7.27H56.269v-3.77H71.731Z"/>
    <path d="M113.365,39.2a3.867,3.867,0,0,0,5.472,0,12.614,12.614,0,0,0,0-17.85l-6.784-6.785a12.617,12.617,0,0,0-17.852,0,3.876,3.876,0,0,0,0,5.472L99.564,25.4l-4.3,4.3A50.306,50.306,0,0,0,69.968,19.2V13.138h4.606a4.048,4.048,0,0,0,4.044-4.044v-2.8A4.048,4.048,0,0,0,74.574,2.25H53.426a4.048,4.048,0,0,0-4.044,4.044v2.8a4.048,4.048,0,0,0,4.044,4.044h4.606V19.2A50.306,50.306,0,0,0,32.74,29.7l-4.3-4.3L33.8,20.036a3.876,3.876,0,0,0,0-5.472,12.616,12.616,0,0,0-17.851,0L9.163,21.349a12.616,12.616,0,0,0,0,17.85,3.867,3.867,0,0,0,5.472,0L20,33.837l4.3,4.305a50.465,50.465,0,0,0,9.332,71.66L26.38,121.231a2.944,2.944,0,0,0,2.484,4.519h7.98a4.544,4.544,0,0,0,3.618-1.809l5.491-7.316a50.413,50.413,0,0,0,36.094,0l5.49,7.315a4.545,4.545,0,0,0,3.619,1.81h7.98a2.944,2.944,0,0,0,2.484-4.518L94.368,109.8a50.465,50.465,0,0,0,9.332-71.66l4.3-4.3ZM96.677,17.039a9.117,9.117,0,0,1,12.9,0l6.784,6.784a9.117,9.117,0,0,1,0,12.9.32.32,0,0,1-.52,0L96.678,17.561A.368.368,0,0,1,96.677,17.039Zm-43.8-7.945v-2.8a.545.545,0,0,1,.544-.544H74.574a.545.545,0,0,1,.544.544v2.8a.545.545,0,0,1-.544.544H53.426A.545.545,0,0,1,52.882,9.094Zm8.65,9.805V13.138h4.936V18.9A49.239,49.239,0,0,0,61.532,18.9ZM12.158,36.725a.32.32,0,0,1-.52,0,9.118,9.118,0,0,1,0-12.9l6.784-6.784a9.116,9.116,0,0,1,12.9,0,.368.368,0,0,1,0,.522Zm13.8-8.852,4.073,4.073a48.7,48.7,0,0,0-3.49,3.491l-4.073-4.074ZM42.624,115.23l-4.962,6.611a1.026,1.026,0,0,1-.818.409H29.879l6.613-10.422A57.871,57.871,0,0,0,42.624,115.23Zm48.884-3.4,6.613,10.422H91.156a1.028,1.028,0,0,1-.819-.41l-4.961-6.61A55.478,55.478,0,0,0,91.508,111.828ZM64,116.466A47.062,47.062,0,1,1,111.064,69.4,47.126,47.126,0,0,1,64,116.466Zm37.456-81.029a48.484,48.484,0,0,0-3.49-3.491l4.073-4.073,3.49,3.49Z"/>
  </g>
</svg>
