<svg xmlns="http://www.w3.org/2000/svg" width="128" height="128" viewBox="0 0 128 128">
  <title>COCKTAIL</title>
  <g>
    <path d="M89.422,120.114l-14.791-7.081V82.907a26.645,26.645,0,0,0,21.2-29.371l-3.861-32.98a1.751,1.751,0,0,0-1.739-1.547H64.286a16.2,16.2,0,1,0-19.714,17.54L42.583,53.536a26.643,26.643,0,0,0,21.2,29.371v30.126L49,120.114a1.75,1.75,0,0,0,.756,3.329H88.666a1.75,1.75,0,0,0,.756-3.329ZM35.48,20.759a12.7,12.7,0,0,1,25.27-1.75H48.183a1.751,1.751,0,0,0-1.739,1.547L44.982,33.043A12.689,12.689,0,0,1,35.48,20.759Zm21.98,99.184,8.833-4.229a1.75,1.75,0,0,0,.994-1.578v-32.7a1.75,1.75,0,0,0-1.5-1.731A23.448,23.448,0,0,1,46.06,53.943l3.679-31.434h38.94l3.679,31.434A23.449,23.449,0,0,1,72.627,79.705a1.75,1.75,0,0,0-1.5,1.731v32.7a1.75,1.75,0,0,0,.994,1.578l8.833,4.229Z"/>
    <path d="M84.007,69.821A19.832,19.832,0,0,0,88.883,54.35L86.752,36.156a1.752,1.752,0,0,0-2.126-1.5,17.643,17.643,0,0,1-12.1-1.022,20.913,20.913,0,0,0-8.176-1.826,24.29,24.29,0,0,0-11.869,3.067,1.75,1.75,0,0,0-.817,1.284L49.535,54.35A19.809,19.809,0,0,0,84.007,69.821Zm-14.8,3.14a16.307,16.307,0,0,1-16.2-18.2l2.025-17.293a21.444,21.444,0,0,1,9.315-2.159A17.8,17.8,0,0,1,71.267,36.9,20.743,20.743,0,0,0,83.5,38.439l1.911,16.318a16.307,16.307,0,0,1-16.2,18.2Z"/>
    <path d="M48.183,16.75A1.751,1.751,0,0,0,49.933,15V12.379a1.75,1.75,0,1,0-3.5,0V15A1.75,1.75,0,0,0,48.183,16.75Z"/>
    <path d="M42.423,19.009H39.8a1.75,1.75,0,0,0,0,3.5h2.62a1.75,1.75,0,0,0,0-3.5Z"/>
  </g>
</svg>
