<svg xmlns="http://www.w3.org/2000/svg" width="128" height="128" viewBox="0 0 128 128">
  <title>COFFEE</title>
  <g>
    <path d="M121.693,95.443H91.626c.825-1.778,1.584-3.595,2.287-5.434a28.921,28.921,0,0,0,3.775.253,27.279,27.279,0,0,0,16.129-5.185c7.526-5.556,11.085-14.462,9.071-22.686a16.165,16.165,0,0,0-7.86-10.624c-4.21-2.348-9.08-2.656-12.977-2.356.256-4.06.268-6.671.268-7.032a1.749,1.749,0,0,0-1.75-1.75H27.431a1.749,1.749,0,0,0-1.75,1.75c0,1.27.13,30.313,10.693,53.064H6.307a1.751,1.751,0,0,0-1.193,3.032c.5.469,12.309,11.27,32.3,14.241v2.927a1.75,1.75,0,0,0,1.75,1.75H88.832a1.75,1.75,0,0,0,1.75-1.75v-2.927c20-2.971,31.8-13.772,32.3-14.241a1.751,1.751,0,0,0-1.193-3.032Zm-20.8-34.3c2.2-.347,6.1-.684,8.534.672a4.727,4.727,0,0,1,2.288,3.316c.908,3.707-.949,7.907-4.732,10.7a15.194,15.194,0,0,1-9.5,2.95A147.787,147.787,0,0,0,100.9,61.138Zm12.429-6.315a12.752,12.752,0,0,1,6.162,8.4c1.679,6.85-1.363,14.323-7.749,19.039a24.113,24.113,0,0,1-16.595,4.36q.741-2.178,1.382-4.372c.452.029.9.047,1.348.047a18.582,18.582,0,0,0,11.192-3.655c4.922-3.634,7.3-9.266,6.053-14.348a8.154,8.154,0,0,0-3.984-5.54c-2.95-1.645-6.969-1.563-9.8-1.213.182-1.628.332-3.171.453-4.6C105.245,52.615,109.663,52.783,113.325,54.823ZM29.217,44.129H98.784c-.205,6.816-1.608,32.131-11.041,51.314H40.257C30.831,76.275,29.424,50.949,29.217,44.129Zm59.4,65.324a1.751,1.751,0,0,0-1.532,1.737v2.7H40.918v-2.7a1.751,1.751,0,0,0-1.532-1.737,64.315,64.315,0,0,1-27.923-10.51H116.536A64.3,64.3,0,0,1,88.614,109.453Z"/>
    <path d="M64,54.307c-6.488,0-11.767,6.944-11.767,15.479S57.512,85.266,64,85.266s11.767-6.945,11.767-15.48S70.488,54.307,64,54.307ZM55.733,69.786c0-5.735,2.8-10.536,6.517-11.7V81.49C58.53,80.322,55.733,75.521,55.733,69.786ZM65.75,81.49V58.083c3.72,1.167,6.517,5.968,6.517,11.7S69.47,80.322,65.75,81.49Z"/>
    <path d="M62.566,31.085a1.75,1.75,0,1,0,2.868,2.006,10.792,10.792,0,0,0,.03-11.828,7.3,7.3,0,0,1-.025-7.91,1.75,1.75,0,0,0-2.873-2,10.793,10.793,0,0,0-.03,11.829A7.3,7.3,0,0,1,62.566,31.085Z"/>
    <path d="M75.92,31.085a1.75,1.75,0,1,0,2.867,2.006,10.79,10.79,0,0,0,.03-11.828,7.3,7.3,0,0,1-.024-7.91,1.75,1.75,0,0,0-2.873-2,10.791,10.791,0,0,0-.03,11.829A7.3,7.3,0,0,1,75.92,31.085Z"/>
    <path d="M49.213,31.085a1.75,1.75,0,1,0,2.867,2.006,10.79,10.79,0,0,0,.03-11.828,7.3,7.3,0,0,1-.024-7.91,1.75,1.75,0,0,0-2.873-2,10.791,10.791,0,0,0-.03,11.829A7.3,7.3,0,0,1,49.213,31.085Z"/>
  </g>
</svg>
