<svg xmlns="http://www.w3.org/2000/svg" width="128" height="128" viewBox="0 0 128 128">
  <title>CUTLERY</title>
  <g>
    <path d="M106.78,117.49a1.754,1.754,0,1,0,2.48-2.48,1.819,1.819,0,0,0-2.48,0A1.753,1.753,0,0,0,106.78,117.49Z"/>
    <path d="M106.78,71.91a1.75,1.75,0,1,0,2.48,0A1.821,1.821,0,0,0,106.78,71.91Z"/>
    <path d="M18.24,115.01a1.75,1.75,0,1,0,2.47,0A1.739,1.739,0,0,0,18.24,115.01Z"/>
    <path d="M102.455,2.25a2.731,2.731,0,0,0-2.727,2.729v46.7A45.341,45.341,0,0,0,64,34.46,45.981,45.981,0,0,0,25.947,54.882l-.381-11.264A11.377,11.377,0,0,0,36.7,32.26V7.575A5.332,5.332,0,0,0,31.374,2.25,4.179,4.179,0,0,0,27.2,6.425V23.31H24.23V6.425A4.18,4.18,0,0,0,20.056,2.25H18.9A4.18,4.18,0,0,0,14.73,6.425V23.31H11.75V6.425A4.18,4.18,0,0,0,7.575,2.25,5.331,5.331,0,0,0,2.25,7.575V32.26A11.377,11.377,0,0,0,13.385,43.618l-2.479,73.268a8.574,8.574,0,1,0,17.139,0l-.305-9a45.66,45.66,0,0,0,71.988.691v8.88a8.294,8.294,0,1,0,16.587,0V81.162h5.071A4.37,4.37,0,0,0,125.75,76.8V25.545A23.321,23.321,0,0,0,102.455,2.25ZM5.75,32.26V7.575A1.826,1.826,0,0,1,7.575,5.75a.676.676,0,0,1,.675.675V25.06A1.75,1.75,0,0,0,10,26.81h6.48a1.75,1.75,0,0,0,1.75-1.75V6.425A.676.676,0,0,1,18.9,5.75h1.152a.675.675,0,0,1,.674.675V25.06a1.751,1.751,0,0,0,1.75,1.75h6.47a1.75,1.75,0,0,0,1.75-1.75V6.425a.676.676,0,0,1,.674-.675A1.827,1.827,0,0,1,33.2,7.575V32.26a7.878,7.878,0,0,1-7.87,7.87H13.62A7.878,7.878,0,0,1,5.75,32.26Zm13.726,89.99a5.071,5.071,0,0,1-5.072-5.245l2.482-73.372h5.178L24.547,117A5.071,5.071,0,0,1,19.476,122.25ZM64,122.3a42.262,42.262,0,0,1-36.476-21l-1.35-39.83A42.428,42.428,0,0,1,64,37.96,41.919,41.919,0,0,1,99.728,57.714v44.823A41.911,41.911,0,0,1,64,122.3Zm48.815-4.844a4.794,4.794,0,1,1-9.587,0v-14.4c0-.008,0-.015,0-.022V81.162h9.585ZM122.25,76.8a.866.866,0,0,1-.864.865H103.23l0-71.9a19.819,19.819,0,0,1,19.022,19.78Z"/>
    <path d="M109.2,10.714a1.749,1.749,0,1,0-1.453,3.183,12.842,12.842,0,0,1,7.5,11.648,1.75,1.75,0,1,0,3.5,0A16.349,16.349,0,0,0,109.2,10.714Z"/>
    <path d="M64,48.456A31.671,31.671,0,1,0,95.671,80.127,31.706,31.706,0,0,0,64,48.456ZM64,108.3A28.171,28.171,0,1,1,92.171,80.127,28.2,28.2,0,0,1,64,108.3Z"/>
    <path d="M57.055,99.067A20.2,20.2,0,0,1,45.062,87.074a1.75,1.75,0,0,0-3.284,1.211,23.7,23.7,0,0,0,14.068,14.068,1.751,1.751,0,0,0,1.209-3.286Z"/>
  </g>
</svg>
