<svg xmlns="http://www.w3.org/2000/svg" width="128" height="128" viewBox="0 0 128 128">
  <title>DOOR HANGER</title>
  <g>
    <path d="M88.941,123.443H39.059a6.758,6.758,0,0,1-6.75-6.75V68.757a8.627,8.627,0,0,1,5.6-8.053L69.722,48.892a13.544,13.544,0,0,0,8.793-12.644A14.519,14.519,0,0,0,62.37,21.822c-7.225.783-12.885,7.322-12.885,14.885a8.575,8.575,0,0,1-8.566,8.566h-.208a8.411,8.411,0,0,1-8.4-8.4c0-16.894,12.9-31.052,29.36-32.23h0a31.456,31.456,0,0,1,23.92,8.407,31.8,31.8,0,0,1,10.1,23.2v80.445A6.758,6.758,0,0,1,88.941,123.443ZM63.957,18.236A18.011,18.011,0,0,1,82.015,36.248,17.058,17.058,0,0,1,70.94,52.173L39.127,63.985a5.112,5.112,0,0,0-3.318,4.772v47.936a3.254,3.254,0,0,0,3.25,3.25H88.941a3.254,3.254,0,0,0,3.25-3.25V36.248A28.289,28.289,0,0,0,83.2,15.609,27.948,27.948,0,0,0,61.919,8.132h0C47.278,9.18,35.809,21.8,35.809,36.871a4.908,4.908,0,0,0,4.9,4.9h.208a5.071,5.071,0,0,0,5.066-5.066A17.964,17.964,0,0,1,63.957,18.236ZM61.794,6.386h0Z"/>
    <path d="M64,112.275A20.523,20.523,0,1,1,84.523,91.752,20.547,20.547,0,0,1,64,112.275ZM64,74.73A17.023,17.023,0,1,0,81.023,91.752,17.042,17.042,0,0,0,64,74.73Z"/>
  </g>
</svg>
