<svg xmlns="http://www.w3.org/2000/svg" width="128" height="128" viewBox="0 0 128 128">
  <title>DOORKEY</title>
  <g>
    <path d="M106.3,15.705A10.094,10.094,0,0,0,92.022,29.979l6,6A10.094,10.094,0,0,0,112.3,21.7Zm3.523,17.8a6.6,6.6,0,0,1-9.325,0l-6-6a6.594,6.594,0,0,1,9.325-9.325l6,6a6.6,6.6,0,0,1,0,9.325Z"/>
    <path d="M120.6,18.433,109.567,7.4a25.277,25.277,0,0,0-39.7,30.624L34.215,73.681a1.748,1.748,0,0,0,0,2.474,4.331,4.331,0,0,1,0,6.115l-.994.994a4.331,4.331,0,0,1-6.115,0,1.748,1.748,0,0,0-2.474,0l-6.318,6.317a1.751,1.751,0,0,0,0,2.475,4.327,4.327,0,0,1,0,6.114l-.994.994a4.321,4.321,0,0,1-6.114,0,1.8,1.8,0,0,0-2.475,0l-8.218,8.22A1.75,1.75,0,0,0,0,108.621v17.626A1.749,1.749,0,0,0,1.75,128l17.629,0a1.75,1.75,0,0,0,1.237-.513L89.973,58.132a25.277,25.277,0,0,0,30.624-39.7ZM118.122,51.7a21.822,21.822,0,0,1-27.435,2.752,1.749,1.749,0,0,0-2.206.22L18.654,124.5,3.5,124.5V109.346l6.606-6.608a7.829,7.829,0,0,0,9.689-1.1l.994-.994a7.831,7.831,0,0,0,1.1-9.689l4.12-4.12a7.835,7.835,0,0,0,9.686-1.1l.994-.994a7.835,7.835,0,0,0,1.1-9.686L73.326,39.519a1.748,1.748,0,0,0,.22-2.206A21.777,21.777,0,0,1,107.093,9.878l11.029,11.029a21.775,21.775,0,0,1,0,30.8Z"/>
  </g>
</svg>
