<svg xmlns="http://www.w3.org/2000/svg" width="128" height="128" viewBox="0 0 128 128">
  <title>DOOR HANDLE</title>
  <g>
    <path d="M17.325,6.6V121.4a4.355,4.355,0,0,0,4.35,4.35h46.5a4.356,4.356,0,0,0,4.35-4.35V67.811h33.606a4.55,4.55,0,0,0,4.544-4.544V55.912a4.549,4.549,0,0,0-4.544-4.544H72.525V6.6a4.356,4.356,0,0,0-4.35-4.35h-46.5A4.355,4.355,0,0,0,17.325,6.6Zm89.85,49.312v7.355a1.045,1.045,0,0,1-1.044,1.044c-22.6,0-16.608,0-54.736,0a4.72,4.72,0,0,1,0-9.44c12.885,0,22.373,0,54.736,0A1.045,1.045,0,0,1,107.175,55.912ZM51.4,51.368a8.231,8.231,0,0,0-8.222,8.221h0a8.214,8.214,0,0,0,8.357,8.221,10.546,10.546,0,1,1,.009-16.443ZM20.825,6.6a.851.851,0,0,1,.85-.85h46.5a.851.851,0,0,1,.85.85V51.368H56.306a14.041,14.041,0,1,0,0,16.443h12.72V121.4a.851.851,0,0,1-.85.85h-46.5a.851.851,0,0,1-.85-.85Z"/>
    <path d="M29.642,39.539H60.208a4.325,4.325,0,0,0,4.32-4.32V19.711a4.325,4.325,0,0,0-4.32-4.319H29.642a4.325,4.325,0,0,0-4.32,4.319V35.219A4.325,4.325,0,0,0,29.642,39.539Zm-.82-19.828a.82.82,0,0,1,.82-.819H60.208a.82.82,0,0,1,.82.819V35.219a.821.821,0,0,1-.82.82H29.642a.82.82,0,0,1-.82-.82Z"/>
    <path d="M44.925,116.809a9.221,9.221,0,1,0-9.22-9.221A9.232,9.232,0,0,0,44.925,116.809Zm0-14.941a5.721,5.721,0,1,1-5.72,5.72A5.727,5.727,0,0,1,44.925,101.868Z"/>
  </g>
</svg>
