<svg xmlns="http://www.w3.org/2000/svg" width="128" height="128" viewBox="0 0 128 128">
  <title>DOUBLE BED</title>
  <path d="M117.686,62.4V15.708a1.75,1.75,0,0,0-1.75-1.75H12.063a1.751,1.751,0,0,0-1.75,1.75V62.4a6.754,6.754,0,0,0-5.757,6.668v43.227a1.75,1.75,0,0,0,1.75,1.75H121.693a1.75,1.75,0,0,0,1.75-1.75V69.065A6.754,6.754,0,0,0,117.686,62.4Zm-6.789-.082V56.869a6.763,6.763,0,0,0-6.754-6.755H72.488a6.764,6.764,0,0,0-6.755,6.755v5.446H62.267V56.869a6.764,6.764,0,0,0-6.755-6.755H23.857A6.764,6.764,0,0,0,17.1,56.869v5.446H13.814V30.952H114.186V62.315Zm-41.664,0V56.869a3.258,3.258,0,0,1,3.255-3.255h31.655a3.258,3.258,0,0,1,3.254,3.255v5.446Zm-48.631,0V56.869a3.258,3.258,0,0,1,3.255-3.255H55.512a3.258,3.258,0,0,1,3.255,3.255v5.446Zm93.584-44.857v9.994H13.814V17.458ZM11.307,65.815H116.693a3.254,3.254,0,0,1,3.25,3.25V84.93H8.057V69.065A3.254,3.254,0,0,1,11.307,65.815Zm108.636,44.727H8.057V88.43H119.943Z"/>
</svg>
