<svg xmlns="http://www.w3.org/2000/svg" width="128" height="128" viewBox="0 0 128 128">
  <title>FIRE EXTINGUISHER</title>
  <g>
    <path d="M104.743,4.557h-34.7a1.749,1.749,0,0,0-1.75,1.75V9.731A9.364,9.364,0,0,0,62.28,13.7,36.786,36.786,0,0,0,26.451,50.428v27.49L25.03,84.466H23.257a1.75,1.75,0,0,0-1.75,1.75v35.477a1.75,1.75,0,0,0,1.75,1.75H40.1a1.749,1.749,0,0,0,1.75-1.75V86.216a1.749,1.749,0,0,0-1.75-1.75H38.331L36.91,77.918V50.387a26.278,26.278,0,0,1,25.4-26.229,9.245,9.245,0,0,0,.857,1.065v7.251A19.256,19.256,0,0,0,45.682,51.622v65.071a6.757,6.757,0,0,0,6.75,6.75H87.645a6.757,6.757,0,0,0,6.75-6.75V51.622A19.256,19.256,0,0,0,76.908,32.474V25.223a9.319,9.319,0,0,0,2.3-4.536,52.179,52.179,0,0,1,21.253,5.362,1.75,1.75,0,0,0,1.7-3.06,52.37,52.37,0,0,0-14.918-4.957L105.215,13a1.752,1.752,0,0,0,1.278-1.686v-5A1.75,1.75,0,0,0,104.743,4.557Zm-34.7,8.5a5.847,5.847,0,1,1-5.848,5.847A5.854,5.854,0,0,1,70.039,13.06Zm-3.37,19.326V27.615a9.2,9.2,0,0,0,6.739,0v4.771ZM38.353,119.943H25.007V87.966H38.353ZM28.612,84.466l1-4.61h4.137l1,4.61Zm4.8-34.079V76.356H29.951V50.428A33.287,33.287,0,0,1,60.844,17.271a9.044,9.044,0,0,0,.029,3.462A29.784,29.784,0,0,0,33.41,50.387ZM90.9,51.622v65.071a3.254,3.254,0,0,1-3.25,3.25H52.432a3.254,3.254,0,0,1-3.25-3.25V51.622A15.754,15.754,0,0,1,64.919,35.886H75.158A15.754,15.754,0,0,1,90.9,51.622Zm12.1-41.639L79.105,16.677a9.364,9.364,0,0,0-7.316-6.946V8.057h31.2Z"/>
    <path d="M53.136,62.035V93.793a1.749,1.749,0,0,0,1.75,1.75H85.191a1.75,1.75,0,0,0,1.75-1.75V62.035a1.75,1.75,0,0,0-1.75-1.75h-30.3A1.749,1.749,0,0,0,53.136,62.035Zm3.5,1.75H83.441V92.043h-26.8Z"/>
  </g>
</svg>
