<svg xmlns="http://www.w3.org/2000/svg" width="128" height="128" viewBox="0 0 128 128">
  <title>FREE WIFI</title>
  <g>
    <path d="M103.439,32.674a1.743,1.743,0,0,1-1.237-.513,54.088,54.088,0,0,0-76.4,0,1.749,1.749,0,0,1-2.475,0l-5.877-5.876a1.752,1.752,0,0,1,0-2.475,65.913,65.913,0,0,1,93.108,0,1.752,1.752,0,0,1,0,2.475l-5.877,5.876A1.744,1.744,0,0,1,103.439,32.674ZM64,12.863a57.114,57.114,0,0,1,39.421,15.605l3.4-3.4a62.419,62.419,0,0,0-85.648,0l3.4,3.4A57.114,57.114,0,0,1,64,12.863Z"/>
    <path d="M90.28,45.833a1.743,1.743,0,0,1-1.237-.513,35.458,35.458,0,0,0-50.086,0,1.749,1.749,0,0,1-2.475,0l-5.877-5.876a1.75,1.75,0,0,1,0-2.474,47.276,47.276,0,0,1,66.789,0,1.748,1.748,0,0,1,0,2.474L91.518,45.32A1.745,1.745,0,0,1,90.28,45.833ZM64,31.466a38.8,38.8,0,0,1,26.253,10.17l3.405-3.405a43.784,43.784,0,0,0-59.316,0l3.405,3.405A38.8,38.8,0,0,1,64,31.466Z"/>
    <path d="M77.121,58.992h0a1.746,1.746,0,0,1-1.237-.513,16.827,16.827,0,0,0-23.768,0,1.8,1.8,0,0,1-2.474,0L43.766,52.6a1.748,1.748,0,0,1,0-2.474,28.645,28.645,0,0,1,40.468,0,1.748,1.748,0,0,1,0,2.474l-5.876,5.876A1.746,1.746,0,0,1,77.121,58.992ZM64,50.065a20.156,20.156,0,0,1,13.068,4.754l3.411-3.411a25.16,25.16,0,0,0-32.959,0l3.412,3.411A20.156,20.156,0,0,1,64,50.065Z"/>
    <path d="M64,80.37A10.007,10.007,0,1,1,74.007,70.363,10.018,10.018,0,0,1,64,80.37Zm0-16.514a6.507,6.507,0,1,0,6.507,6.507A6.514,6.514,0,0,0,64,63.856Z"/>
    <path d="M104.2,123.443H23.8a6.257,6.257,0,0,1-6.252-6.251V93.412A6.258,6.258,0,0,1,23.8,87.161h80.4a6.259,6.259,0,0,1,6.252,6.251v23.78A6.258,6.258,0,0,1,104.2,123.443ZM23.8,90.661a2.755,2.755,0,0,0-2.752,2.751v23.78a2.754,2.754,0,0,0,2.752,2.751h80.4a2.754,2.754,0,0,0,2.752-2.751V93.412a2.755,2.755,0,0,0-2.752-2.751Z"/>
    <g>
      <path d="M36.5,100.345v3.509h8.122v3.131H36.5v6.4H33.017V97.215H45.472v3.13Z"/>
      <path d="M58.845,113.389l-3.7-5.25H52.582v5.25H49.121V97.215H56.4c3.509,0,6.1,2.259,6.1,5.461a5.265,5.265,0,0,1-3.674,5.063l3.979,5.65Zm-6.263-8.428h3.437c1.719,0,2.9-.895,2.9-2.285s-1.177-2.283-2.9-2.283H52.582Z"/>
      <path d="M69.745,100.345v3.226h8.122V106.7H69.745v3.554h8.969v3.132H66.259V97.215H78.714v3.13Z"/>
      <path d="M86.013,100.345v3.226h8.122V106.7H86.013v3.554h8.97v3.132H82.528V97.215H94.983v3.13Z"/>
    </g>
  </g>
</svg>
