<svg xmlns="http://www.w3.org/2000/svg" width="128" height="128" viewBox="0 0 128 128">
  <title>HAIR DRYER</title>
  <g>
    <path d="M121.693,14.731H102.08C99.041,13.64,72.889,4.557,44.441,4.557c-15.995,0-27.01,3.827-33.434,7.038a11.645,11.645,0,0,0-6.45,10.488v21.3a11.648,11.648,0,0,0,6.45,10.489,64.95,64.95,0,0,0,16.579,5.472l6.845,45.575a5.219,5.219,0,0,0,5.192,4.469H42.5v1.24a12.82,12.82,0,1,0,25.64,0V99.608a5.256,5.256,0,0,1,5.25-5.25H85.2a1.75,1.75,0,0,0,0-3.5H73.393a8.76,8.76,0,0,0-8.75,8.75v11.015a9.32,9.32,0,1,1-18.64,0v-1.24H48.4a5.256,5.256,0,0,0,5.25-5.25V81.78l6.021-2.395a1.749,1.749,0,0,0,1.1-1.626V67.341a1.749,1.749,0,0,0-1.75-1.75H53.646V60.6A192.827,192.827,0,0,0,102.08,50.73h19.613a1.75,1.75,0,0,0,1.75-1.75v-32.5A1.75,1.75,0,0,0,121.693,14.731ZM8.057,43.378V22.083a8.166,8.166,0,0,1,4.514-7.357c6.087-3.042,16.558-6.669,31.87-6.669,26.064,0,50.177,7.793,55.581,9.661V47.743c-5.4,1.869-29.517,9.662-55.581,9.662-15.313,0-25.783-3.627-31.87-6.669A8.166,8.166,0,0,1,8.057,43.378ZM57.27,69.091v7.481l-3.624,1.442V69.091ZM50.146,80.556h0v23.576a1.752,1.752,0,0,1-1.75,1.75H39.623a1.74,1.74,0,0,1-1.731-1.489L31.219,59.963a90.392,90.392,0,0,0,13.222.942q2.873,0,5.7-.119Zm69.8-33.326H103.522v-29h16.421Z"/>
    <path d="M58.627,32.731a18.2,18.2,0,1,0-18.2,18.2A18.217,18.217,0,0,0,58.627,32.731Zm-32.778,1.75H55.013A14.574,14.574,0,0,1,53.6,39.2H27.257A14.549,14.549,0,0,1,25.849,34.481Zm1.408-8.223H53.605a14.59,14.59,0,0,1,1.408,4.723H25.849A14.541,14.541,0,0,1,27.257,26.258Zm13.174-8.224a14.643,14.643,0,0,1,10.763,4.724H29.667A14.644,14.644,0,0,1,40.431,18.034Zm0,29.393A14.643,14.643,0,0,1,29.667,42.7H51.194A14.642,14.642,0,0,1,40.431,47.427Z"/>
  </g>
</svg>
