<svg xmlns="http://www.w3.org/2000/svg" width="128" height="128" viewBox="0 0 128 128">
  <title>HOT TEA</title>
  <g>
    <path d="M123.321,96.553a1.75,1.75,0,0,0-1.628-1.11H99.543a41.737,41.737,0,0,0,1.427-5.09l6.281-1.419a20.642,20.642,0,0,0,16.175-20.24V63.328a15.769,15.769,0,0,0-15.75-15.75h-5.782v-5.2a1.75,1.75,0,0,0-1.75-1.75H27.856a1.75,1.75,0,0,0-1.75,1.75V81.613a41.742,41.742,0,0,0,2.351,13.83H6.307a1.751,1.751,0,0,0-1.192,3.032c.5.469,12.307,11.27,32.3,14.241v2.927a1.751,1.751,0,0,0,1.75,1.75H88.832a1.75,1.75,0,0,0,1.75-1.75v-2.927c20-2.971,31.8-13.772,32.3-14.241A1.751,1.751,0,0,0,123.321,96.553ZM101.894,59.078h5.782a4.255,4.255,0,0,1,4.25,4.25v5.366a9.2,9.2,0,0,1-7.211,9.023l-2.821.637Zm5.782-8a12.263,12.263,0,0,1,12.25,12.25v5.366A17.161,17.161,0,0,1,106.479,85.52l-4.895,1.106a42.107,42.107,0,0,0,.3-4.681l3.6-.814a12.683,12.683,0,0,0,9.939-12.437V63.328a7.759,7.759,0,0,0-7.75-7.75h-5.782v-4.5ZM64,60.547l7.092,5.058v13.82H56.908V65.605ZM29.606,81.613V44.129H62.25V57.5l-8.108,5.783a1.752,1.752,0,0,0-.734,1.425V81.175a1.75,1.75,0,0,0,1.75,1.75H72.842a1.75,1.75,0,0,0,1.75-1.75V64.7a1.752,1.752,0,0,0-.734-1.425L65.75,57.5V44.129H98.394V81.613a38.28,38.28,0,0,1-2.581,13.83H32.187A38.28,38.28,0,0,1,29.606,81.613Zm59.008,27.84a1.752,1.752,0,0,0-1.532,1.737v2.7H40.917v-2.7a1.751,1.751,0,0,0-1.531-1.737,64.31,64.31,0,0,1-27.923-10.51H116.548A64.161,64.161,0,0,1,88.614,109.453Z"/>
    <path d="M62.566,31.085a1.75,1.75,0,1,0,2.868,2.006,10.791,10.791,0,0,0,.029-11.828,7.306,7.306,0,0,1-.024-7.91,1.75,1.75,0,0,0-2.873-2,10.792,10.792,0,0,0-.029,11.829A7.3,7.3,0,0,1,62.566,31.085Z"/>
    <path d="M75.92,31.085a1.75,1.75,0,1,0,2.868,2.006,10.791,10.791,0,0,0,.029-11.828,7.3,7.3,0,0,1-.024-7.91,1.75,1.75,0,0,0-2.873-2,10.79,10.79,0,0,0-.029,11.829A7.3,7.3,0,0,1,75.92,31.085Z"/>
    <path d="M49.212,31.085a1.75,1.75,0,1,0,2.868,2.006,10.789,10.789,0,0,0,.029-11.828,7.306,7.306,0,0,1-.024-7.91,1.75,1.75,0,0,0-2.873-2,10.792,10.792,0,0,0-.029,11.829A7.3,7.3,0,0,1,49.212,31.085Z"/>
  </g>
</svg>
