<svg xmlns="http://www.w3.org/2000/svg" width="128" height="128" viewBox="0 0 128 128">
  <title>HOTEL</title>
  <g>
    <path d="M4,125.75H124a1.751,1.751,0,0,0,1.75-1.75V33.068a5.081,5.081,0,0,0-5.076-5.075H94.21V16.678a5.085,5.085,0,0,0-5.08-5.08H83.574V6.441A4.2,4.2,0,0,0,79.382,2.25H48.618a4.2,4.2,0,0,0-4.192,4.191V11.6H38.87a5.085,5.085,0,0,0-5.08,5.08V27.993H7.326A5.081,5.081,0,0,0,2.25,33.068V124A1.751,1.751,0,0,0,4,125.75Zm118.25-3.5H5.75V117.6h116.5ZM72.21,90.941a.72.72,0,0,1,.719.719V114.1H65.75V90.941ZM62.25,114.1H55.071V91.66a.72.72,0,0,1,.719-.719h6.46Zm31.964-82.61h26.46a1.578,1.578,0,0,1,1.576,1.575V114.1H94.214ZM48.618,5.75H79.382a.692.692,0,0,1,.692.691c0,1.414,0-5.118,0,13.817a.691.691,0,0,1-.69.69H48.62a.691.691,0,0,1-.69-.69c0-1.413,0,5.118,0-13.817A.692.692,0,0,1,48.618,5.75ZM37.29,16.678a1.582,1.582,0,0,1,1.58-1.58h5.556v5.16a4.2,4.2,0,0,0,4.192,4.192H79.382a4.2,4.2,0,0,0,4.192-4.192V15.1H89.13a1.582,1.582,0,0,1,1.58,1.58V114.1H76.429V91.66a4.224,4.224,0,0,0-4.219-4.219H55.79a4.224,4.224,0,0,0-4.219,4.219V114.1H37.29ZM5.75,33.068a1.578,1.578,0,0,1,1.576-1.575h26.46V114.1H5.75Z"/>
    <path d="M44.38,41.843h6.757a3.089,3.089,0,0,0,3.086-3.086V32a3.089,3.089,0,0,0-3.086-3.085H44.38A3.089,3.089,0,0,0,41.294,32v6.757A3.09,3.09,0,0,0,44.38,41.843Zm.414-9.428h5.929v5.928H44.794Z"/>
    <path d="M60.622,41.843h6.756a3.089,3.089,0,0,0,3.086-3.086V32a3.089,3.089,0,0,0-3.086-3.085H60.622A3.089,3.089,0,0,0,57.536,32v6.757A3.089,3.089,0,0,0,60.622,41.843Zm.414-9.428h5.928v5.928H61.036Z"/>
    <path d="M76.863,41.843H83.62a3.09,3.09,0,0,0,3.086-3.086V32a3.089,3.089,0,0,0-3.086-3.085H76.863A3.089,3.089,0,0,0,73.777,32v6.757A3.089,3.089,0,0,0,76.863,41.843Zm.414-9.428h5.929v5.928H77.277Z"/>
    <path d="M44.38,61.691h6.757a3.089,3.089,0,0,0,3.086-3.086V51.849a3.089,3.089,0,0,0-3.086-3.086H44.38a3.09,3.09,0,0,0-3.086,3.086v6.756A3.09,3.09,0,0,0,44.38,61.691Zm.414-9.428h5.929v5.928H44.794Z"/>
    <path d="M60.622,61.691h6.756a3.089,3.089,0,0,0,3.086-3.086V51.849a3.089,3.089,0,0,0-3.086-3.086H60.622a3.089,3.089,0,0,0-3.086,3.086v6.756A3.089,3.089,0,0,0,60.622,61.691Zm.414-9.428h5.928v5.928H61.036Z"/>
    <path d="M76.863,61.691H83.62a3.09,3.09,0,0,0,3.086-3.086V51.849a3.09,3.09,0,0,0-3.086-3.086H76.863a3.089,3.089,0,0,0-3.086,3.086v6.756A3.089,3.089,0,0,0,76.863,61.691Zm.414-9.428h5.929v5.928H77.277Z"/>
    <path d="M54.223,78.454V71.7a3.089,3.089,0,0,0-3.086-3.086H44.38A3.09,3.09,0,0,0,41.294,71.7v6.757A3.09,3.09,0,0,0,44.38,81.54h6.757A3.09,3.09,0,0,0,54.223,78.454Zm-3.5-.414H44.794V72.111h5.929Z"/>
    <path d="M60.622,81.54h6.756a3.09,3.09,0,0,0,3.086-3.086V71.7a3.089,3.089,0,0,0-3.086-3.086H60.622A3.089,3.089,0,0,0,57.536,71.7v6.757A3.09,3.09,0,0,0,60.622,81.54Zm.414-9.429h5.928V78.04H61.036Z"/>
    <path d="M76.863,81.54H83.62a3.09,3.09,0,0,0,3.086-3.086V71.7a3.09,3.09,0,0,0-3.086-3.086H76.863A3.089,3.089,0,0,0,73.777,71.7v6.757A3.09,3.09,0,0,0,76.863,81.54Zm.414-9.429h5.929V78.04H77.277Z"/>
    <path d="M111.61,38.839h-6.756a3.089,3.089,0,0,0-3.086,3.086v6.756a3.089,3.089,0,0,0,3.086,3.086h6.756a3.089,3.089,0,0,0,3.086-3.086V41.925A3.089,3.089,0,0,0,111.61,38.839Zm-.414,9.428h-5.928V42.339H111.2Z"/>
    <path d="M111.61,58.687h-6.756a3.089,3.089,0,0,0-3.086,3.086v6.756a3.089,3.089,0,0,0,3.086,3.086h6.756a3.089,3.089,0,0,0,3.086-3.086V61.773A3.089,3.089,0,0,0,111.61,58.687Zm-.414,9.428h-5.928V62.187H111.2Z"/>
    <path d="M111.61,78.535h-6.756a3.089,3.089,0,0,0-3.086,3.086v6.757a3.089,3.089,0,0,0,3.086,3.086h6.756a3.089,3.089,0,0,0,3.086-3.086V81.621A3.089,3.089,0,0,0,111.61,78.535Zm-.414,9.429h-5.928V82.035H111.2Z"/>
    <path d="M23.146,38.839H16.39A3.089,3.089,0,0,0,13.3,41.925v6.756a3.089,3.089,0,0,0,3.086,3.086h6.756a3.089,3.089,0,0,0,3.086-3.086V41.925A3.089,3.089,0,0,0,23.146,38.839Zm-.414,9.428H16.8V42.339h5.928Z"/>
    <path d="M23.146,58.687H16.39A3.089,3.089,0,0,0,13.3,61.773v6.756a3.089,3.089,0,0,0,3.086,3.086h6.756a3.089,3.089,0,0,0,3.086-3.086V61.773A3.089,3.089,0,0,0,23.146,58.687Zm-.414,9.428H16.8V62.187h5.928Z"/>
    <path d="M23.146,78.535H16.39A3.089,3.089,0,0,0,13.3,81.621v6.757a3.089,3.089,0,0,0,3.086,3.086h6.756a3.089,3.089,0,0,0,3.086-3.086V81.621A3.089,3.089,0,0,0,23.146,78.535Zm-.414,9.429H16.8V82.035h5.928Z"/>
    <path d="M60.831,19.071a1.751,1.751,0,0,0,1.75-1.75V15.1h2.838v2.221a1.75,1.75,0,0,0,3.5,0V9.379a1.75,1.75,0,0,0-3.5,0V11.6H62.581V9.379a1.75,1.75,0,0,0-3.5,0v7.942A1.751,1.751,0,0,0,60.831,19.071Z"/>
    <path d="M13.71,18.059,13.086,21.7A2.35,2.35,0,0,0,16.5,24.178l3.267-1.717,3.266,1.717A2.353,2.353,0,0,0,26.449,21.7l-.623-3.638,2.642-2.576a2.353,2.353,0,0,0-1.3-4.014l-3.652-.531L21.879,7.629a2.354,2.354,0,0,0-4.222,0l-1.633,3.309-3.651.531a2.354,2.354,0,0,0-1.306,4.014Zm3.412-3.744A2.349,2.349,0,0,0,18.9,13.027l.872-1.766.872,1.766a2.35,2.35,0,0,0,1.772,1.288l1.95.283L22.95,15.975a2.353,2.353,0,0,0-.676,2.082L22.607,20l-1.741-.916a2.356,2.356,0,0,0-2.194,0L16.928,20l.333-1.941a2.352,2.352,0,0,0-.676-2.084L15.174,14.6Z"/>
    <path d="M102.174,18.059,101.55,21.7a2.354,2.354,0,0,0,3.416,2.481l3.266-1.717,3.267,1.717a2.354,2.354,0,0,0,3.415-2.481l-.624-3.638,2.642-2.576a2.353,2.353,0,0,0-1.3-4.014l-3.652-.531-1.633-3.309a2.353,2.353,0,0,0-4.221,0l-1.634,3.309-3.651.531a2.353,2.353,0,0,0-1.305,4.014Zm3.412-3.744a2.349,2.349,0,0,0,1.774-1.288l.872-1.766.872,1.766a2.349,2.349,0,0,0,1.772,1.288l1.95.283-1.411,1.377a2.348,2.348,0,0,0-.676,2.082L111.072,20l-1.742-.916a2.347,2.347,0,0,0-2.193,0L105.393,20l.333-1.941a2.355,2.355,0,0,0-.677-2.084L103.638,14.6Z"/>
  </g>
</svg>
