<svg xmlns="http://www.w3.org/2000/svg" width="128" height="128" viewBox="0 0 128 128">
  <title>HOTEL SIGN</title>
  <g>
    <path d="M57.942,24.268,57.318,27.9a2.354,2.354,0,0,0,3.415,2.482L64,28.668l3.268,1.718A2.354,2.354,0,0,0,70.682,27.9l-.624-3.637L72.7,21.692a2.353,2.353,0,0,0-1.3-4.015l-3.652-.531L66.11,13.837a2.353,2.353,0,0,0-4.221,0l-1.633,3.309-3.653.531a2.353,2.353,0,0,0-1.3,4.013Zm3.412-3.745a2.352,2.352,0,0,0,1.774-1.288L64,17.469l.873,1.767a2.348,2.348,0,0,0,1.771,1.286l1.95.284L67.18,22.185a2.345,2.345,0,0,0-.673,2.08l.333,1.942L65.1,25.291a2.356,2.356,0,0,0-2.193,0l-1.744.917.333-1.94a2.353,2.353,0,0,0-.677-2.085l-1.411-1.376Z"/>
    <path d="M82.592,45.02a2.354,2.354,0,0,0,3.413-2.483L85.382,38.9l2.642-2.576a2.353,2.353,0,0,0-1.3-4.014l-3.653-.532L81.435,28.47a2.353,2.353,0,0,0-4.222,0L75.58,31.778l-3.653.532a2.353,2.353,0,0,0-1.3,4.014L73.266,38.9l-.623,3.636a2.354,2.354,0,0,0,3.415,2.483L79.324,43.3Zm-4.365-5.1-1.743.916.334-1.945a2.355,2.355,0,0,0-.677-2.081l-1.412-1.376,1.948-.282a2.355,2.355,0,0,0,1.775-1.288l.872-1.766.875,1.774a2.356,2.356,0,0,0,1.769,1.279l1.95.283-1.409,1.375A2.35,2.35,0,0,0,81.83,38.9l.333,1.943-1.742-.916A2.346,2.346,0,0,0,78.227,39.924Z"/>
    <path d="M54.734,38.9l2.643-2.576a2.353,2.353,0,0,0-1.3-4.014l-3.652-.532L50.787,28.47a2.353,2.353,0,0,0-4.222,0l-1.632,3.308-3.654.532a2.353,2.353,0,0,0-1.3,4.014L42.619,38.9l-.625,3.637a2.355,2.355,0,0,0,3.416,2.482L48.676,43.3l3.268,1.719a2.354,2.354,0,0,0,3.413-2.483Zm-2.873-2.087a2.347,2.347,0,0,0-.678,2.084l.333,1.943-1.742-.916a2.35,2.35,0,0,0-2.193,0l-1.744.917L46.17,38.9a2.356,2.356,0,0,0-.677-2.081l-1.411-1.376,1.948-.282A2.354,2.354,0,0,0,47.8,33.868l.872-1.766.873,1.767a2.35,2.35,0,0,0,1.772,1.286l1.95.283Z"/>
    <path d="M119.822,30.6H96.258a2.444,2.444,0,0,1-2.413-2.186,30.1,30.1,0,0,0-59.69,0A2.444,2.444,0,0,1,31.742,30.6H8.177A5.934,5.934,0,0,0,2.25,36.527V74.763A5.934,5.934,0,0,0,8.177,80.69h7.641v41.441a3.624,3.624,0,0,0,3.619,3.619H29.582a3.624,3.624,0,0,0,3.619-3.619V80.69H94.8v41.441a3.624,3.624,0,0,0,3.619,3.619h10.144a3.624,3.624,0,0,0,3.62-3.619V80.69h7.64a5.934,5.934,0,0,0,5.928-5.927V36.527A5.934,5.934,0,0,0,119.822,30.6ZM29.7,122.131a.12.12,0,0,1-.119.119H19.437a.12.12,0,0,1-.119-.119V80.69H29.7Zm78.981,0a.12.12,0,0,1-.12.119H98.418a.12.12,0,0,1-.119-.119V80.69h10.383ZM122.25,74.763a2.43,2.43,0,0,1-2.428,2.427H8.177A2.429,2.429,0,0,1,5.75,74.763V36.527A2.429,2.429,0,0,1,8.177,34.1H31.742a5.983,5.983,0,0,0,5.884-5.233,26.6,26.6,0,0,1,52.748,0A5.983,5.983,0,0,0,96.258,34.1h23.564a2.43,2.43,0,0,1,2.428,2.427Z"/>
    <path d="M47.182,51.1H39.989a4.558,4.558,0,0,0-4.553,4.553V66.822a4.558,4.558,0,0,0,4.553,4.553h7.193a4.558,4.558,0,0,0,4.553-4.553V55.657A4.558,4.558,0,0,0,47.182,51.1Zm1.053,15.718a1.054,1.054,0,0,1-1.053,1.053H39.989a1.054,1.054,0,0,1-1.053-1.053V55.657A1.054,1.054,0,0,1,39.989,54.6h7.193a1.054,1.054,0,0,1,1.053,1.053Z"/>
    <path d="M111.229,67.875h-10a1.054,1.054,0,0,1-1.052-1.053V52.854a1.75,1.75,0,1,0-3.5,0V66.822a4.557,4.557,0,0,0,4.552,4.553h10a1.75,1.75,0,0,0,0-3.5Z"/>
    <path d="M29.57,51.1a1.751,1.751,0,0,0-1.75,1.75V59.49h-9.3V52.854a1.75,1.75,0,0,0-3.5,0V69.625a1.75,1.75,0,0,0,3.5,0V62.99h9.3v6.635a1.75,1.75,0,0,0,3.5,0V52.854A1.75,1.75,0,0,0,29.57,51.1Z"/>
    <path d="M70.4,51.1H57.6a1.75,1.75,0,0,0,0,3.5H62.25V69.625a1.75,1.75,0,0,0,3.5,0V54.6H70.4a1.75,1.75,0,0,0,0-3.5Z"/>
    <path d="M80.818,54.6h7.193a1.054,1.054,0,0,1,1.052,1.053,1.75,1.75,0,0,0,3.5,0A4.557,4.557,0,0,0,88.011,51.1H80.818a4.557,4.557,0,0,0-4.552,4.553V66.822a4.557,4.557,0,0,0,4.552,4.553h7.193a4.557,4.557,0,0,0,4.552-4.553,1.75,1.75,0,0,0-3.5,0,1.054,1.054,0,0,1-1.052,1.053H80.818a1.054,1.054,0,0,1-1.052-1.053V62.99h7.219a1.75,1.75,0,0,0,0-3.5H79.766V55.657A1.054,1.054,0,0,1,80.818,54.6Z"/>
  </g>
</svg>
