<svg xmlns="http://www.w3.org/2000/svg" width="128" height="128" viewBox="0 0 128 128">
  <title>LUGGAGE</title>
  <path d="M92.246,33.407h-16.6V14.747h2.183A1.749,1.749,0,0,0,79.576,13V6.307a1.749,1.749,0,0,0-1.75-1.75H50.174a1.749,1.749,0,0,0-1.75,1.75V13a1.749,1.749,0,0,0,1.75,1.75h2.184v18.66h-16.6A6.763,6.763,0,0,0,29,40.162v71.572a6.761,6.761,0,0,0,5.2,6.566,6.695,6.695,0,0,0,12.977.189H80.828a6.695,6.695,0,0,0,12.977-.189,6.761,6.761,0,0,0,5.2-6.566V40.162A6.763,6.763,0,0,0,92.246,33.407ZM72.927,114.989H55.072l-3.337-9.159a6.772,6.772,0,0,0-6.341-4.438H32.5V91.3h63v10.1h-12.9a6.773,6.773,0,0,0-6.342,4.439ZM32.5,74.2V64.1h63V74.2Zm63,3.5V87.8h-63V77.7Zm-63-17.1V50.5h63V60.6ZM51.924,8.057H76.076v3.19H51.924Zm3.934,6.69H72.143v18.66H55.858Zm-20.1,22.16H92.246A3.258,3.258,0,0,1,95.5,40.162V47h-63V40.162A3.258,3.258,0,0,1,35.754,36.907ZM32.5,111.734v-6.842H45.394a3.261,3.261,0,0,1,3.053,2.136l2.9,7.961H47.172a6.7,6.7,0,0,0-12.832-.336A3.249,3.249,0,0,1,32.5,111.734Zm8.209,8.209a3.2,3.2,0,1,1,3.2-3.2A3.207,3.207,0,0,1,40.708,119.943Zm46.584,0a3.2,3.2,0,1,1,3.2-3.2A3.207,3.207,0,0,1,87.292,119.943Zm6.367-5.29a6.7,6.7,0,0,0-12.831.336H76.653l2.9-7.96a3.261,3.261,0,0,1,3.053-2.137H95.5v6.842A3.248,3.248,0,0,1,93.659,114.653Z"/>
</svg>
