<svg xmlns="http://www.w3.org/2000/svg" width="128" height="128" viewBox="0 0 128 128">
  <title>NEWSPAPER</title>
  <g>
    <polygon points="45.957 25.457 53.098 35.037 56.292 35.037 56.292 20.215 53.098 20.215 53.098 29.794 45.957 20.215 42.785 20.215 42.785 35.037 45.957 35.037 45.957 25.457"/>
    <polygon points="70.772 32.168 62.552 32.168 62.552 28.909 69.996 28.909 69.996 26.04 62.552 26.04 62.552 23.084 70.772 23.084 70.772 20.215 59.358 20.215 59.358 35.037 70.772 35.037 70.772 32.168"/>
    <polygon points="79.858 35.037 83.376 24.853 86.871 35.037 90.064 35.037 94.552 20.215 91.099 20.215 88.359 30.161 85.08 20.215 81.628 20.215 78.348 30.161 75.608 20.215 72.156 20.215 76.643 35.037 79.858 35.037"/>
    <path d="M102.194,32.6a7.317,7.317,0,0,1-4.876-1.942l-1.834,2.179a9.522,9.522,0,0,0,6.581,2.46c3.624,0,5.761-1.877,5.761-4.7,0-2.74-2.114-3.69-5.308-4.4-2.287-.518-3.172-.863-3.172-1.942,0-.885.82-1.6,2.179-1.6a6.875,6.875,0,0,1,4.23,1.64l1.661-2.287a8.565,8.565,0,0,0-5.8-2.05c-3.236,0-5.48,1.878-5.48,4.618,0,2.869,2.222,3.754,5.35,4.466,2.266.518,3.129.842,3.129,1.9C104.611,31.865,103.791,32.6,102.194,32.6Z"/>
    <path d="M121.693,4.557H28.918a1.749,1.749,0,0,0-1.75,1.75V20.1H6.307A1.749,1.749,0,0,0,4.6,22.232L27.211,122.08s.006.009.007.014a1.748,1.748,0,0,0,1.7,1.349h92.775a1.749,1.749,0,0,0,1.75-1.75V6.307A1.749,1.749,0,0,0,121.693,4.557ZM27.168,23.6v82.445L8.5,23.6Zm92.775,96.347H30.668V8.057h89.275Z"/>
    <path d="M106.154,104.4H80.782a1.75,1.75,0,1,0,0,3.5h25.372a1.75,1.75,0,0,0,0-3.5Z"/>
    <path d="M44.456,107.9H69.829a1.75,1.75,0,1,0,0-3.5H44.456a1.75,1.75,0,0,0,0,3.5Z"/>
    <path d="M106.154,92.4H80.782a1.75,1.75,0,1,0,0,3.5h25.372a1.75,1.75,0,0,0,0-3.5Z"/>
    <path d="M44.456,95.9H69.829a1.75,1.75,0,1,0,0-3.5H44.456a1.75,1.75,0,0,0,0,3.5Z"/>
    <path d="M106.154,80.4H80.782a1.75,1.75,0,1,0,0,3.5h25.372a1.75,1.75,0,0,0,0-3.5Z"/>
    <path d="M44.456,83.9H69.829a1.75,1.75,0,1,0,0-3.5H44.456a1.75,1.75,0,0,0,0,3.5Z"/>
    <path d="M106.154,68.4H80.782a1.75,1.75,0,1,0,0,3.5h25.372a1.75,1.75,0,0,0,0-3.5Z"/>
    <path d="M44.456,71.9H69.829a1.75,1.75,0,1,0,0-3.5H44.456a1.75,1.75,0,0,0,0,3.5Z"/>
    <path d="M106.154,56.4H80.782a1.75,1.75,0,0,0,0,3.5h25.372a1.75,1.75,0,0,0,0-3.5Z"/>
    <path d="M44.456,59.9H69.829a1.75,1.75,0,0,0,0-3.5H44.456a1.75,1.75,0,0,0,0,3.5Z"/>
    <path d="M106.154,44.4H80.782a1.75,1.75,0,0,0,0,3.5h25.372a1.75,1.75,0,0,0,0-3.5Z"/>
    <path d="M44.456,47.9H69.829a1.75,1.75,0,0,0,0-3.5H44.456a1.75,1.75,0,0,0,0,3.5Z"/>
  </g>
</svg>
