<svg xmlns="http://www.w3.org/2000/svg" width="128" height="128" viewBox="0 0 128 128">
  <title>NO PETS</title>
  <g>
    <path d="M64,4.557A59.443,59.443,0,1,0,123.443,64,59.51,59.51,0,0,0,64,4.557Zm0,115.386A55.943,55.943,0,1,1,119.943,64,56.005,56.005,0,0,1,64,119.943Z"/>
    <path d="M29.116,35.384a1.718,1.718,0,0,0-1.356-.509,1.749,1.749,0,0,0-1.275.688A46.656,46.656,0,0,0,16.921,64,47.132,47.132,0,0,0,64,111.079a46.656,46.656,0,0,0,28.437-9.564,1.749,1.749,0,0,0,.179-2.631Zm22.34,45.8c0-.432.025-.857.06-1.279a1.751,1.751,0,0,0-.581-1.449A24.182,24.182,0,0,1,43.07,60.306a25.652,25.652,0,0,1,.594-5.425L59.453,70.67a6.54,6.54,0,0,0,2.8,11.03V95.036C56.161,94.08,51.456,88.242,51.456,81.185ZM40.793,52.011a28.991,28.991,0,0,0-1.223,8.295,29.432,29.432,0,0,0,.3,4.162c-2.842-.349-4.833-1.429-5.9-3.249-1.8-3.074-1.139-8.569,1.641-14.393ZM66.242,77.46a3.057,3.057,0,1,1-4.319-4.319ZM65.75,81.7a6.5,6.5,0,0,0,2.962-1.768l6.8,6.8a12.829,12.829,0,0,1-9.767,8.309ZM64,107.579A43.629,43.629,0,0,1,20.421,64a43.145,43.145,0,0,1,7.671-24.69L33,44.215c-1.99,3.891-5.649,12.643-2.049,18.776,1.271,2.165,3.976,4.712,9.673,5.067a27.01,27.01,0,0,0,7.351,12.428c-.01.232-.016.464-.016.7,0,9.651,7.2,17.5,16.044,17.5a15.912,15.912,0,0,0,14.175-9.3L88.69,99.908A43.145,43.145,0,0,1,64,107.579Z"/>
    <path d="M64,16.921a46.661,46.661,0,0,0-28.438,9.564,1.75,1.75,0,0,0-.178,2.631l63.5,63.5a1.749,1.749,0,0,0,1.237.513c.039,0,.079,0,.119,0a1.752,1.752,0,0,0,1.275-.687A47.075,47.075,0,0,0,64,16.921Zm10.814,19.41a8.187,8.187,0,0,1,8.606-.542C88.7,38.351,96.6,51.4,94.8,59.228c-.707,3.076-2.91,4.795-6.677,5.244a29.406,29.406,0,0,0,.3-4.166C88.43,49.807,82.874,40.707,74.814,36.331ZM84.93,60.306a25.175,25.175,0,0,1-2.473,10.933L52.271,41.053A19.554,19.554,0,0,1,64,37.06C75.541,37.06,84.93,47.487,84.93,60.306ZM49.788,38.57l-3.435-3.435a8.086,8.086,0,0,1,6.847,1.2A24,24,0,0,0,49.788,38.57Zm50.12,50.12L85.058,73.84a27.9,27.9,0,0,0,2.328-5.786c7.878-.493,10.172-5.181,10.829-8.042,2.189-9.526-6.8-24.235-13.266-27.371a11.863,11.863,0,0,0-13.744,2.107,22.184,22.184,0,0,0-14.389.022,11.856,11.856,0,0,0-13.2-2.371L39.31,28.092A43.145,43.145,0,0,1,64,20.421,43.629,43.629,0,0,1,107.579,64,43.145,43.145,0,0,1,99.908,88.69Z"/>
    <path d="M74.671,58.963a2.5,2.5,0,1,0-2.5-2.5A2.5,2.5,0,0,0,74.671,58.963Z"/>
  </g>
</svg>
