<svg xmlns="http://www.w3.org/2000/svg" width="128" height="128" viewBox="0 0 128 128">
  <title>PARKING</title>
  <g>
    <path d="M64,123.443A59.443,59.443,0,1,1,123.443,64,59.51,59.51,0,0,1,64,123.443ZM64,8.057A55.943,55.943,0,1,0,119.943,64,56.006,56.006,0,0,0,64,8.057Z"/>
    <path d="M64,111.079A47.079,47.079,0,1,1,111.079,64,47.132,47.132,0,0,1,64,111.079Zm0-90.658A43.579,43.579,0,1,0,107.579,64,43.628,43.628,0,0,0,64,20.421Z"/>
    <path d="M59.766,92.4H46.5a1.75,1.75,0,0,1-1.75-1.75V37.347A1.75,1.75,0,0,1,46.5,35.6H71.25c12.749,0,22,8.437,22,20.062S84,75.721,71.25,75.721H61.516V90.653A1.751,1.751,0,0,1,59.766,92.4ZM48.248,88.9h9.768V73.971a1.749,1.749,0,0,1,1.75-1.75H71.25c10.894,0,18.5-6.811,18.5-16.562S82.144,39.1,71.25,39.1h-23Zm21.76-25.286H59.766a1.75,1.75,0,0,1-1.75-1.75V49.452a1.749,1.749,0,0,1,1.75-1.75H70.008c5.644,0,9.587,3.272,9.587,7.957S75.652,63.617,70.008,63.617Zm-8.492-3.5h8.492c3.029,0,6.087-1.379,6.087-4.458S73.037,51.2,70.008,51.2H61.516Z"/>
  </g>
</svg>
