<svg xmlns="http://www.w3.org/2000/svg" width="128" height="128" viewBox="0 0 128 128">
  <title>PASSPORT</title>
  <g>
    <path d="M98.743,20.177h-.352V11.366a6.807,6.807,0,0,0-8.356-6.628L23.8,20.223a.175.175,0,0,0-.024.011,1.747,1.747,0,0,0-1.328,1.693v99.766a1.75,1.75,0,0,0,1.75,1.75H98.743a6.815,6.815,0,0,0,6.807-6.807V26.983A6.814,6.814,0,0,0,98.743,20.177ZM90.831,8.147a3.306,3.306,0,0,1,4.06,3.219v8.811H39.373ZM102.05,116.636a3.311,3.311,0,0,1-3.307,3.307H25.95V23.677H98.743a3.311,3.311,0,0,1,3.307,3.306Z"/>
    <path d="M64,38.46A20.094,20.094,0,1,0,84.093,58.554,20.116,20.116,0,0,0,64,38.46ZM78.606,50.689H72.478a26.933,26.933,0,0,0-2.464-7.584A16.68,16.68,0,0,1,78.606,50.689ZM64,75.147c-1.64,0-3.8-3.248-4.927-8.729h9.854C67.8,71.9,65.64,75.147,64,75.147ZM58.542,62.918a41.888,41.888,0,0,1,0-8.729H69.458a41.888,41.888,0,0,1,0,8.729ZM47.407,58.554a16.505,16.505,0,0,1,.6-4.365h7.02c-.142,1.444-.215,2.911-.215,4.365s.073,2.92.215,4.364H48.008A16.544,16.544,0,0,1,47.407,58.554ZM64,41.96c1.64,0,3.8,3.248,4.927,8.729H59.073C60.2,45.208,62.36,41.96,64,41.96Zm8.971,12.229h7.02a16.122,16.122,0,0,1,0,8.729h-7.02c.142-1.444.215-2.911.215-4.364S73.113,55.633,72.971,54.189ZM57.986,43.105a26.965,26.965,0,0,0-2.465,7.584H49.394A16.68,16.68,0,0,1,57.986,43.105ZM49.394,66.418h6.127A26.986,26.986,0,0,0,57.986,74,16.684,16.684,0,0,1,49.394,66.418ZM70.013,74a26.954,26.954,0,0,0,2.466-7.584h6.127A16.682,16.682,0,0,1,70.013,74Z"/>
    <path d="M82.343,86.992H45.657a1.749,1.749,0,0,0-1.75,1.75v14.667a1.749,1.749,0,0,0,1.75,1.75H82.343a1.749,1.749,0,0,0,1.75-1.75V88.742A1.749,1.749,0,0,0,82.343,86.992Zm-1.75,14.667H47.407V90.492H80.593Z"/>
  </g>
</svg>
