<svg xmlns="http://www.w3.org/2000/svg" width="128" height="128" viewBox="0 0 128 128">
  <title>RECEPTIONIST</title>
  <g>
    <path d="M122,59.894h-1.37V53.745a3.7,3.7,0,0,0-3.692-3.692H94.059a3.7,3.7,0,0,0-3.692,3.692v6.149H77.956V57.862h5.867a1.75,1.75,0,0,0,1.75-1.75v-2.7A6.721,6.721,0,0,0,78.859,46.7h-.9V45.508a1.746,1.746,0,0,0-.162-3.484H74.617a1.746,1.746,0,0,0-.161,3.484V46.7h-.9a6.723,6.723,0,0,0-6.715,6.715v2.7a1.75,1.75,0,0,0,1.75,1.75h5.868v2.032H55.75V46.655a6.331,6.331,0,0,0-5.1-6.033L47.86,40.04V21.345a16.305,16.305,0,1,0-32.61,0v18.7l-2.817.588A6.31,6.31,0,0,0,7.37,46.655V59.894H6A3.752,3.752,0,0,0,2.25,63.642v4.235A3.752,3.752,0,0,0,6,71.625h1.37v47.222a4.123,4.123,0,0,0,4.118,4.118h105.03a4.123,4.123,0,0,0,4.118-4.118V71.625H122a3.752,3.752,0,0,0,3.747-3.748V63.642A3.752,3.752,0,0,0,122,59.894ZM70.338,53.411A3.219,3.219,0,0,1,73.553,50.2h5.306a3.218,3.218,0,0,1,3.214,3.215v.951H70.338Zm23.529.334a.192.192,0,0,1,.192-.192h22.882a.192.192,0,0,1,.192.192v6.149H93.867ZM18.75,21.345a12.805,12.805,0,1,1,25.61,0V39.31l-6.31-1.317V35.719a9.726,9.726,0,0,0,3.272-7.269V21.9a2.892,2.892,0,0,0-2.887-2.888,1.4,1.4,0,0,1-1.22-.716l-.856-1.532a2.4,2.4,0,0,0-4.182,0L31.313,18.3a1.4,1.4,0,0,1-1.217.713H24.68A2.892,2.892,0,0,0,21.792,21.9V28.45a9.641,9.641,0,0,0,3.258,7.256v2.287l-6.3,1.317ZM37.822,28.45a6.265,6.265,0,0,1-12.53,0V22.51h4.8a4.9,4.9,0,0,0,4.169-2.329,4.907,4.907,0,0,0,3.557,2.291ZM28.55,37.744a10.047,10.047,0,0,0,6,0v2.439a3,3,0,0,1-6,0ZM10.87,46.655a2.82,2.82,0,0,1,2.318-2.607l12-2.509a6.5,6.5,0,0,0,12.717,0l11.982,2.5a2.843,2.843,0,0,1,2.36,2.616V59.894H45.469V54.8a1.75,1.75,0,0,0-3.5,0v5.091H21.146V54.8a1.75,1.75,0,0,0-3.5,0v5.091H10.87Zm106.263,72.192a.619.619,0,0,1-.618.618H11.485a.619.619,0,0,1-.618-.618V71.625H117.133Zm5.117-50.97a.248.248,0,0,1-.247.248H6a.248.248,0,0,1-.247-.248V63.642A.248.248,0,0,1,6,63.394H122a.248.248,0,0,1,.247.248Z"/>
    <path d="M49.544,107.339H78.456a5.712,5.712,0,0,0,5.706-5.706V89.456a5.712,5.712,0,0,0-5.706-5.706H49.544a5.712,5.712,0,0,0-5.706,5.706v12.177A5.712,5.712,0,0,0,49.544,107.339ZM47.338,89.456a2.208,2.208,0,0,1,2.206-2.206H78.456a2.208,2.208,0,0,1,2.206,2.206v12.177a2.208,2.208,0,0,1-2.206,2.206H49.544a2.208,2.208,0,0,1-2.206-2.206Z"/>
    <path d="M32.79,57.33a1.742,1.742,0,0,0,0-2.48,1.809,1.809,0,0,0-2.471,0,1.75,1.75,0,1,0,2.471,2.48Z"/>
    <path d="M32.79,52.03a1.731,1.731,0,0,0,0-2.47,1.809,1.809,0,0,0-2.471,0,1.753,1.753,0,0,0,0,2.47A1.73,1.73,0,0,0,32.79,52.03Z"/>
    <path d="M60.831,101.266a1.75,1.75,0,0,0,1.75-1.75V97.294h2.838v2.222a1.75,1.75,0,0,0,3.5,0V91.574a1.75,1.75,0,0,0-3.5,0v2.22H62.581v-2.22a1.75,1.75,0,0,0-3.5,0v7.942A1.75,1.75,0,0,0,60.831,101.266Z"/>
  </g>
</svg>
