<svg xmlns="http://www.w3.org/2000/svg" width="128" height="128" viewBox="0 0 128 128">
  <title>ROOM KEY</title>
  <g>
    <path d="M72.647,81.128H16.86a1.751,1.751,0,0,0-1.75,1.75v28.355a1.751,1.751,0,0,0,1.75,1.75H72.647a1.751,1.751,0,0,0,1.75-1.75V82.878A1.751,1.751,0,0,0,72.647,81.128ZM70.9,109.483H18.61V84.628H70.9Z"/>
    <path d="M123.443,33.311A28.756,28.756,0,0,0,68.746,20.9H12.819a1.75,1.75,0,0,0-1.385.681L4.921,30.03a1.75,1.75,0,0,0,.018,2.16L15.205,45.062a1.75,1.75,0,0,0,1.368.659h5.849a1.753,1.753,0,0,0,1.513-.87L26,41.3H41.457l2.07,3.556a1.748,1.748,0,0,0,1.513.87H68.746A28.752,28.752,0,0,0,103,60.836V82.009a13.264,13.264,0,0,1-13.25,13.25h-4.8V77.325a6.758,6.758,0,0,0-6.75-6.75H6.307a1.751,1.751,0,0,0-1.75,1.75v44.368a6.758,6.758,0,0,0,6.75,6.75H83.2a1.751,1.751,0,0,0,1.75-1.75V98.759h4.8a16.769,16.769,0,0,0,16.75-16.75V59.516A28.786,28.786,0,0,0,123.443,33.311ZM81.45,119.943H11.307a3.254,3.254,0,0,1-3.25-3.25V74.075H78.2a3.254,3.254,0,0,1,3.25,3.25ZM43.977,38.665a1.751,1.751,0,0,0-1.513-.87H25a1.753,1.753,0,0,0-1.513.87l-2.069,3.556h-4L9.941,32.849H68.123v9.372H46.046ZM106.5,55.623V41.346a8.226,8.226,0,1,0-3.5,0V57.153A25.228,25.228,0,0,1,71.623,43.58V31.1a1.75,1.75,0,0,0-1.75-1.75H9.866L13.68,24.4H69.873a1.748,1.748,0,0,0,1.607-1.059A25.255,25.255,0,1,1,106.5,55.623Zm-1.75-24.062a1.751,1.751,0,0,0-1.75,1.75v4.382a4.726,4.726,0,1,1,3.5,0V33.311A1.75,1.75,0,0,0,104.753,31.561Z"/>
  </g>
</svg>
