<svg xmlns="http://www.w3.org/2000/svg" width="128" height="128" viewBox="0 0 128 128">
  <title>SAFE BOX</title>
  <g>
    <path d="M116.7,109.962H11.3a6.754,6.754,0,0,1-6.746-6.746V24.784A6.754,6.754,0,0,1,11.3,18.038H116.7a6.755,6.755,0,0,1,6.746,6.746v78.432A6.755,6.755,0,0,1,116.7,109.962ZM11.3,21.538a3.249,3.249,0,0,0-3.246,3.246v78.432a3.249,3.249,0,0,0,3.246,3.246H116.7a3.249,3.249,0,0,0,3.246-3.246V24.784a3.249,3.249,0,0,0-3.246-3.246Z"/>
    <path d="M111.9,100.164H16.1a1.75,1.75,0,0,1-1.75-1.75V29.586a1.75,1.75,0,0,1,1.75-1.75H111.9a1.75,1.75,0,0,1,1.75,1.75V98.414A1.75,1.75,0,0,1,111.9,100.164Zm-94.042-3.5h92.292V31.336H17.854Z"/>
    <path d="M94.879,83.147H33.121a1.75,1.75,0,0,1-1.75-1.75V46.6a1.75,1.75,0,0,1,1.75-1.75H94.879a1.75,1.75,0,0,1,1.75,1.75V81.4A1.75,1.75,0,0,1,94.879,83.147Zm-60.008-3.5H93.129V48.353H34.871Z"/>
    <path d="M50.519,75a11,11,0,1,1,11-11A11.008,11.008,0,0,1,50.519,75Zm0-18.492a7.5,7.5,0,1,0,7.5,7.5A7.5,7.5,0,0,0,50.519,56.5Z"/>
    <path d="M70.091,65.75H67.916a1.75,1.75,0,0,1,0-3.5h2.175a1.75,1.75,0,1,1,0,3.5Z"/>
    <path d="M70.091,58.252H67.916a1.75,1.75,0,0,1,0-3.5h2.175a1.75,1.75,0,0,1,0,3.5Z"/>
    <path d="M70.091,73.248H67.916a1.75,1.75,0,0,1,0-3.5h2.175a1.75,1.75,0,0,1,0,3.5Z"/>
    <path d="M86.727,65.75H84.552a1.75,1.75,0,0,1,0-3.5h2.175a1.75,1.75,0,0,1,0,3.5Z"/>
    <path d="M86.727,58.252H84.552a1.75,1.75,0,0,1,0-3.5h2.175a1.75,1.75,0,0,1,0,3.5Z"/>
    <path d="M86.727,73.248H84.552a1.75,1.75,0,0,1,0-3.5h2.175a1.75,1.75,0,0,1,0,3.5Z"/>
    <path d="M78.409,65.75H76.234a1.75,1.75,0,1,1,0-3.5h2.175a1.75,1.75,0,0,1,0,3.5Z"/>
    <path d="M78.409,58.252H76.234a1.75,1.75,0,0,1,0-3.5h2.175a1.75,1.75,0,0,1,0,3.5Z"/>
    <path d="M78.409,73.248H76.234a1.75,1.75,0,0,1,0-3.5h2.175a1.75,1.75,0,0,1,0,3.5Z"/>
    <path d="M48.071,68.2a1.75,1.75,0,0,1-1.238-2.987l4.9-4.9A1.75,1.75,0,0,1,54.2,62.789l-4.9,4.9A1.745,1.745,0,0,1,48.071,68.2Z"/>
  </g>
</svg>
