<svg xmlns="http://www.w3.org/2000/svg" width="128" height="128" viewBox="0 0 128 128">
  <title>SHOWER</title>
  <g>
    <path d="M118.936,72.712A33.513,33.513,0,0,0,95.484,42.465v-7.2a1.75,1.75,0,0,0-1.75-1.75h-.951A30.747,30.747,0,0,0,62.126,4.557H35.267a30.744,30.744,0,0,0-30.71,30.71v86.426a1.75,1.75,0,0,0,3.5,0V35.267a27.241,27.241,0,0,1,27.21-27.21H62.126a27.242,27.242,0,0,1,27.148,25.46H81.6A19.581,19.581,0,0,0,62.126,15.706H35.267A19.583,19.583,0,0,0,15.705,35.267v86.426a1.75,1.75,0,0,0,3.5,0v-4.842h8.179v4.842a1.75,1.75,0,0,0,3.5,0v-20.25a1.75,1.75,0,0,0-3.5,0v4.843H19.2V35.267A16.079,16.079,0,0,1,35.267,19.206H62.126A16.081,16.081,0,0,1,78.088,33.517h-.8a1.75,1.75,0,0,0-1.75,1.75v7.2A33.514,33.514,0,0,0,52.088,72.712a4.864,4.864,0,0,0-4.507,4.836v7.757a1.75,1.75,0,0,0,1.75,1.75h72.362a1.75,1.75,0,0,0,1.75-1.75V77.548A4.863,4.863,0,0,0,118.936,72.712ZM27.384,109.786v3.565H19.2v-3.565Zm64.6-72.769v5.012H79.04V37.017ZM77.549,45.529H93.475a29.987,29.987,0,0,1,21.936,27.146h-59.8A29.988,29.988,0,0,1,77.549,45.529Zm42.394,38.026H51.081V77.548a1.375,1.375,0,0,1,1.373-1.373h66.115a1.375,1.375,0,0,1,1.374,1.373Z"/>
    <path d="M85.512,92.235a1.75,1.75,0,0,0-1.75,1.75V97.56a1.75,1.75,0,0,0,3.5,0V93.985A1.751,1.751,0,0,0,85.512,92.235Z"/>
    <path d="M85.512,116.368a1.75,1.75,0,0,0-1.75,1.75v3.575a1.75,1.75,0,0,0,3.5,0v-3.575A1.751,1.751,0,0,0,85.512,116.368Z"/>
    <path d="M85.512,104.3a1.749,1.749,0,0,0-1.75,1.75v3.575a1.75,1.75,0,1,0,3.5,0v-3.575A1.75,1.75,0,0,0,85.512,104.3Z"/>
    <path d="M112.731,96.961l-.956-3.444a1.75,1.75,0,0,0-3.373.937l.956,3.444a1.752,1.752,0,0,0,1.686,1.282,1.772,1.772,0,0,0,.469-.064A1.751,1.751,0,0,0,112.731,96.961Z"/>
    <path d="M118.232,116.77a1.75,1.75,0,0,0-3.373.937l.956,3.444a1.752,1.752,0,0,0,1.686,1.282,1.772,1.772,0,0,0,.469-.064,1.751,1.751,0,0,0,1.218-2.155Z"/>
    <path d="M115.96,108.588,115,105.144a1.75,1.75,0,0,0-3.373.936l.956,3.444a1.751,1.751,0,0,0,1.685,1.283,1.723,1.723,0,0,0,.469-.065A1.749,1.749,0,0,0,115.96,108.588Z"/>
    <path d="M98.546,99.268a1.75,1.75,0,0,0,1.515-1.957l-.45-3.546a1.75,1.75,0,1,0-3.472.441l.45,3.546a1.751,1.751,0,0,0,1.734,1.53A1.88,1.88,0,0,0,98.546,99.268Z"/>
    <path d="M102.647,117.706a1.75,1.75,0,1,0-3.472.44l.45,3.547a1.751,1.751,0,0,0,1.734,1.53,1.682,1.682,0,0,0,.223-.015,1.75,1.75,0,0,0,1.516-1.956Z"/>
    <path d="M100.062,111.239a1.752,1.752,0,0,0,1.517-1.956l-.449-3.547a1.75,1.75,0,0,0-3.473.44l.449,3.546a1.752,1.752,0,0,0,1.735,1.53A1.832,1.832,0,0,0,100.062,111.239Z"/>
    <path d="M61.4,92.3a1.751,1.751,0,0,0-2.155,1.218l-.957,3.444a1.75,1.75,0,0,0,1.218,2.155,1.772,1.772,0,0,0,.469.064A1.751,1.751,0,0,0,61.665,97.9l.957-3.444A1.751,1.751,0,0,0,61.4,92.3Z"/>
    <path d="M54.947,115.552a1.75,1.75,0,0,0-2.155,1.218l-.957,3.444a1.751,1.751,0,0,0,1.218,2.155,1.772,1.772,0,0,0,.469.064,1.751,1.751,0,0,0,1.686-1.282l.957-3.444A1.75,1.75,0,0,0,54.947,115.552Z"/>
    <path d="M58.176,103.926a1.749,1.749,0,0,0-2.156,1.218l-.957,3.444a1.75,1.75,0,1,0,3.373.936l.958-3.444A1.751,1.751,0,0,0,58.176,103.926Z"/>
    <path d="M73.368,92.249a1.754,1.754,0,0,0-1.956,1.517l-.449,3.546a1.751,1.751,0,0,0,1.516,1.956,1.864,1.864,0,0,0,.222.014,1.75,1.75,0,0,0,1.734-1.53l.45-3.547A1.752,1.752,0,0,0,73.368,92.249Z"/>
    <path d="M70.332,116.19a1.757,1.757,0,0,0-1.956,1.517l-.449,3.546a1.751,1.751,0,0,0,1.516,1.956,1.864,1.864,0,0,0,.222.014,1.75,1.75,0,0,0,1.734-1.531l.45-3.546A1.751,1.751,0,0,0,70.332,116.19Z"/>
    <path d="M71.852,104.22a1.74,1.74,0,0,0-1.958,1.516l-.45,3.546a1.75,1.75,0,0,0,1.516,1.956,1.68,1.68,0,0,0,.223.014,1.75,1.75,0,0,0,1.734-1.529l.45-3.547A1.751,1.751,0,0,0,71.852,104.22Z"/>
  </g>
</svg>
