<svg xmlns="http://www.w3.org/2000/svg" width="128" height="128" viewBox="0 0 128 128">
  <title>SINK</title>
  <g>
    <path d="M119.9,47.441h-.227a5.879,5.879,0,0,0,.521-2.417V22.116a8.914,8.914,0,0,0-7.151-8.726V11.574a3.9,3.9,0,0,0-3.478-3.868V4a1.749,1.749,0,0,0-1.75-1.75h-5.824a5.843,5.843,0,0,0-4.161,1.724L95.945,5.855A1.75,1.75,0,0,0,98.42,8.33L100.3,6.448a2.371,2.371,0,0,1,1.686-.7h4.074V7.706a3.9,3.9,0,0,0-3.477,3.868V13.39a8.914,8.914,0,0,0-7.152,8.726V45.024a5.879,5.879,0,0,0,.521,2.417H25.309V31.49H40.982a1.282,1.282,0,0,1,.91.376l.776.777a5.59,5.59,0,1,0,7.9-7.906l-.391-.391a13.689,13.689,0,0,0-9.744-4.036H25.309v-.089a3.615,3.615,0,0,0-3.442-3.6V12.073h7.942a3.622,3.622,0,0,0,3.618-3.617V5.867A3.622,3.622,0,0,0,29.809,2.25H11.427A3.622,3.622,0,0,0,7.809,5.867V8.456a3.612,3.612,0,0,0,3.441,3.6V16.62a3.614,3.614,0,0,0-3.441,3.6V47.456a5.846,5.846,0,0,0,0,11.677V75.985A20.258,20.258,0,0,0,28.044,96.221H48.6v1.211a6.908,6.908,0,0,0,6.541,6.887V122.3a3.454,3.454,0,0,0,3.45,3.45H69.406a3.454,3.454,0,0,0,3.45-3.45V104.319A6.908,6.908,0,0,0,79.4,97.432V96.221H99.956a20.258,20.258,0,0,0,20.235-20.236V59.133a5.85,5.85,0,0,0-.294-11.692ZM25.31,23.81H40.437a10.213,10.213,0,0,1,7.269,3.01l.391.392a2.09,2.09,0,1,1-2.954,2.956l-.777-.776a4.752,4.752,0,0,0-3.384-1.4H25.31Zm73.623,5.642h17.758v5.256H98.933Zm7.152-17.878a.412.412,0,0,1,.411-.412h2.632a.413.413,0,0,1,.412.412v1.641h-3.455Zm-1.75,5.141h6.955a5.407,5.407,0,0,1,5.4,5.4v3.836H98.933V22.116A5.407,5.407,0,0,1,104.335,16.715Zm-5.4,28.309V38.208h17.758v6.816a2.419,2.419,0,0,1-2.417,2.417H101.35A2.419,2.419,0,0,1,98.933,45.024Zm-87.624-24.8a.117.117,0,0,1,.118-.118H21.691a.118.118,0,0,1,.118.118v27.22h-10.5ZM18.367,16.6H14.75v-4.53h3.617ZM11.309,5.867a.117.117,0,0,1,.118-.117H29.809a.118.118,0,0,1,.118.117V8.456a.117.117,0,0,1-.118.117H11.427a.117.117,0,0,1-.118-.117ZM58.644,122.3V104.338H69.361l.045,17.912ZM75.9,97.432a3.41,3.41,0,0,1-3.407,3.406H55.51A3.41,3.41,0,0,1,52.1,97.432V96.221H75.9Zm40.794-21.447A16.754,16.754,0,0,1,99.956,92.721H28.044A16.754,16.754,0,0,1,11.309,75.985V59.147H116.691ZM119.9,55.647H8.1a2.353,2.353,0,0,1,0-4.706H119.9a2.353,2.353,0,0,1,0,4.706Z"/>
    <path d="M28.044,88.221a1.75,1.75,0,0,0,0-3.5,8.746,8.746,0,0,1-8.735-8.736,1.75,1.75,0,1,0-3.5,0A12.249,12.249,0,0,0,28.044,88.221Z"/>
  </g>
</svg>
