<svg xmlns="http://www.w3.org/2000/svg" width="128" height="128" viewBox="0 0 128 128">
  <title>SMOKING AREA</title>
  <g>
    <path d="M112.853,2.25H15.147a12.912,12.912,0,0,0-12.9,12.9v97.706a12.912,12.912,0,0,0,12.9,12.9h97.706a12.912,12.912,0,0,0,12.9-12.9V15.147A12.912,12.912,0,0,0,112.853,2.25Zm9.4,110.6a9.408,9.408,0,0,1-9.4,9.4H15.147a9.408,9.408,0,0,1-9.4-9.4V15.147a9.408,9.408,0,0,1,9.4-9.4h97.706a9.408,9.408,0,0,1,9.4,9.4Z"/>
    <path d="M20.044,26.231a6.188,6.188,0,1,0-6.188-6.187A6.193,6.193,0,0,0,20.044,26.231Zm0-8.875a2.688,2.688,0,1,1-2.688,2.688A2.692,2.692,0,0,1,20.044,17.356Z"/>
    <path d="M107.956,13.856a6.188,6.188,0,1,0,6.188,6.188A6.194,6.194,0,0,0,107.956,13.856Zm0,8.875a2.688,2.688,0,1,1,2.688-2.687A2.691,2.691,0,0,1,107.956,22.731Z"/>
    <path d="M107.956,101.769a6.188,6.188,0,1,0,6.188,6.187A6.193,6.193,0,0,0,107.956,101.769Zm0,8.875a2.688,2.688,0,1,1,2.688-2.688A2.691,2.691,0,0,1,107.956,110.644Z"/>
    <path d="M20.044,101.351a6.188,6.188,0,1,0,6.187,6.187A6.194,6.194,0,0,0,20.044,101.351Zm0,8.875a2.688,2.688,0,1,1,2.687-2.688A2.691,2.691,0,0,1,20.044,110.226Z"/>
    <path d="M82.048,50.041a2.8,2.8,0,0,1,2.171,2.884,1.75,1.75,0,0,0,3.494.211,6.3,6.3,0,0,0-4.9-6.511,2.8,2.8,0,0,1-2.172-2.886,1.75,1.75,0,0,0-3.494-.207A6.3,6.3,0,0,0,82.048,50.041Z"/>
    <path d="M88.148,45.435a2.8,2.8,0,0,1,2.152,2.9,1.75,1.75,0,1,0,3.492.234,6.3,6.3,0,0,0-4.856-6.543,2.8,2.8,0,0,1-2.154-2.9,1.75,1.75,0,1,0-3.492-.234A6.3,6.3,0,0,0,88.148,45.435Z"/>
    <path d="M93.223,57.191H34.777a2.96,2.96,0,0,0-2.956,2.956v7.706a2.96,2.96,0,0,0,2.956,2.956H93.223a2.96,2.96,0,0,0,2.956-2.956V60.147A2.96,2.96,0,0,0,93.223,57.191Zm-57.9,3.5H50.848v6.618H35.321Zm19.027,0H86.1v6.618H54.348Zm38.331,6.618H89.6V60.691h3.075Z"/>
    <path d="M64,14.274A49.726,49.726,0,1,0,113.726,64,49.782,49.782,0,0,0,64,14.274Zm0,95.952A46.226,46.226,0,1,1,110.226,64,46.278,46.278,0,0,1,64,110.226Z"/>
    <path d="M64,21.274A42.726,42.726,0,1,0,106.726,64,42.775,42.775,0,0,0,64,21.274Zm0,81.952A39.226,39.226,0,1,1,103.226,64,39.271,39.271,0,0,1,64,103.226Z"/>
  </g>
</svg>
