<svg xmlns="http://www.w3.org/2000/svg" width="128" height="128" viewBox="0 0 128 128">
  <title>SOFA</title>
  <g>
    <path d="M113.3,44.229a11.679,11.679,0,0,0-2.077.234V42.928a12.919,12.919,0,0,0-12.9-12.91H29.68a12.919,12.919,0,0,0-12.9,12.91v1.535a11.679,11.679,0,0,0-2.077-.234A12.238,12.238,0,0,0,6.875,66.047,1.507,1.507,0,0,1,7.49,67.2V83.915A4.743,4.743,0,0,0,11.07,88.5l1.015,6.294a3.711,3.711,0,0,0,3.627,3.189h2.806a3.711,3.711,0,0,0,3.627-3.189l.988-6.132h81.734l.988,6.132a3.711,3.711,0,0,0,3.627,3.189h2.806a3.711,3.711,0,0,0,3.627-3.189L116.93,88.5a4.743,4.743,0,0,0,3.58-4.584V67.2a1.5,1.5,0,0,1,.615-1.155A12.239,12.239,0,0,0,113.3,44.229ZM20.28,45.74V42.928a9.416,9.416,0,0,1,9.4-9.41H98.32a9.416,9.416,0,0,1,9.4,9.41V45.74a12.7,12.7,0,0,0-6.46,11.109v4.828H70.87A8.709,8.709,0,0,0,64,65.1a8.718,8.718,0,0,0-6.879-3.425H26.74V56.854C26.74,56.751,26.944,49.421,20.28,45.74ZM26.74,71.8V65.179H57.125a5.133,5.133,0,0,1,5.125,5.128v1.5Zm39.01-1.5a5.18,5.18,0,0,1,5.125-5.128H101.26V71.8H65.75Zm-56.7-7a8.739,8.739,0,0,1,5.591-15.58,9.034,9.034,0,0,1,8.6,9.129v28.3h-11a1.247,1.247,0,0,1-1.246-1.246V67.2A4.981,4.981,0,0,0,9.053,63.308ZM18.69,94.236c-.026.164-.125.246-.172.246H15.712c-.047,0-.146-.082-.172-.246l-.9-5.575h4.946ZM26.74,75.3h74.52v9.857H26.74Zm85.72,18.932c-.026.164-.125.246-.172.246h-2.806c-.047,0-.146-.082-.172-.246l-.9-5.575h4.946Zm6.486-30.928a4.983,4.983,0,0,0-1.936,3.9V83.915a1.247,1.247,0,0,1-1.246,1.246h-11v-28.3a9.038,9.038,0,0,1,8.6-9.129,8.738,8.738,0,0,1,5.59,15.58Z"/>
    <path d="M15.73,57.7a1.747,1.747,0,0,0-2.47-2.47,1.747,1.747,0,1,0,2.47,2.47Z"/>
    <path d="M37.58,43.16a1.75,1.75,0,1,0,0-2.47A1.761,1.761,0,0,0,37.58,43.16Z"/>
    <path d="M48.93,43.16a1.75,1.75,0,1,0,0-2.47A1.761,1.761,0,0,0,48.93,43.16Z"/>
    <path d="M37.58,54.51a1.75,1.75,0,1,0,0-2.47A1.766,1.766,0,0,0,37.58,54.51Z"/>
    <path d="M45.73,48.84a1.75,1.75,0,0,0-2.47-2.48,1.75,1.75,0,1,0,2.47,2.48Z"/>
    <path d="M51.41,54.51a1.76,1.76,0,0,0,0-2.48,1.782,1.782,0,0,0-2.48,0,1.754,1.754,0,0,0,2.48,2.48Z"/>
    <path d="M76.59,43.16a1.75,1.75,0,1,0,2.48-2.47,1.8,1.8,0,0,0-2.48,0A1.751,1.751,0,0,0,76.59,43.16Z"/>
    <path d="M90.42,43.16a1.75,1.75,0,1,0-2.48,0A1.751,1.751,0,0,0,90.42,43.16Z"/>
    <path d="M79.07,54.51a1.76,1.76,0,0,0,0-2.47,1.8,1.8,0,0,0-2.48,0,1.75,1.75,0,0,0,2.48,2.47Z"/>
    <path d="M82.27,48.83a1.729,1.729,0,0,0,2.47,0,1.747,1.747,0,1,0-2.47,0Z"/>
    <path d="M90.42,54.51a1.75,1.75,0,1,0-2.48,0A1.754,1.754,0,0,0,90.42,54.51Z"/>
    <path d="M112.27,55.23a1.747,1.747,0,1,0,2.47,0A1.749,1.749,0,0,0,112.27,55.23Z"/>
  </g>
</svg>
