<svg xmlns="http://www.w3.org/2000/svg" width="128" height="128" viewBox="0 0 128 128">
  <title>SPA</title>
  <path d="M13.286,96.5H114.714A11.049,11.049,0,0,0,125.75,85.464a3.325,3.325,0,0,0-3.321-3.321H119.16V66.022a5.793,5.793,0,0,0-5.785-5.785H100.3V57.8a9.387,9.387,0,0,0,6.4-13.936l-6.634-11.49a1.75,1.75,0,0,0-3.031,0L90.4,43.865A9.388,9.388,0,0,0,96.8,57.8v2.436H83.725a5.792,5.792,0,0,0-5.785,5.785v3.462H75.425c-.279,0-.553.024-.827.042-1.195-4.782-3.369-10.887-7.271-15.54a3.505,3.505,0,0,0-2.695-1.253h0a3.509,3.509,0,0,0-2.7,1.253A27.706,27.706,0,0,0,59.47,57.5a7.961,7.961,0,0,0-3.18-.679h-.319a8.066,8.066,0,0,0-6.448-12.646A8.071,8.071,0,0,0,42.881,31.5H36.015a8.072,8.072,0,0,0-6.643,12.671,8.066,8.066,0,0,0-6.448,12.646H22.6A8.071,8.071,0,0,0,16,69.544,8.088,8.088,0,0,0,8.84,77.567a8.006,8.006,0,0,0,1.425,4.576H5.571A3.325,3.325,0,0,0,2.25,85.464,11.049,11.049,0,0,0,13.286,96.5Zm80.15-50.885,5.118-8.865,5.118,8.865a5.908,5.908,0,0,1-5.11,8.864h-.018A5.908,5.908,0,0,1,93.436,45.615Zm-12,20.407a2.288,2.288,0,0,1,2.285-2.285h29.65a2.288,2.288,0,0,1,2.285,2.285V82.143h-32.6a12.611,12.611,0,0,0,3.851-9.04,3.624,3.624,0,0,0-3.619-3.619H81.44Zm1.85,6.965a.14.14,0,0,1,.12.129,9.075,9.075,0,0,1-9.038,9.027H66.385a9,9,0,0,1,9.04-9.159ZM54.9,82.143a9.046,9.046,0,0,1-9.037-9.036.112.112,0,0,1,.12-.12h7.86a8.991,8.991,0,0,1,9.041,9.156Zm9.749-25.908c3.555,4.239,5.527,10.086,6.524,13.994a12.709,12.709,0,0,0-6.54,5.423,12.735,12.735,0,0,0-6.53-5.42C59.454,65.778,60.8,60.79,64.646,56.235ZM36.015,35h6.866a4.581,4.581,0,1,1,0,9.161H36.015a4.581,4.581,0,1,1,0-9.161ZM25,52.241a4.585,4.585,0,0,1,4.581-4.58H49.319a4.578,4.578,0,0,1,.039,9.156H29.539A4.583,4.583,0,0,1,25,52.241Zm-2.4,8.076c31.125.005,23.527,0,33.69,0a4.549,4.549,0,0,1,1.516.256,49.5,49.5,0,0,0-3.138,8.94c-.177-.011-.815-.029-.823-.029l-31.245,0a4.585,4.585,0,0,1,0-9.17ZM12.34,77.567a4.586,4.586,0,0,1,4.58-4.58H42.362a12.751,12.751,0,0,0,3.852,9.156H16.88A4.575,4.575,0,0,1,12.34,77.567Zm109.908,8.076A7.545,7.545,0,0,1,114.714,93H13.286a7.545,7.545,0,0,1-7.534-7.357Z"/>
</svg>
