<svg xmlns="http://www.w3.org/2000/svg" width="128" height="128" viewBox="0 0 128 128">
  <title>TELEVISION</title>
  <g>
    <path d="M121.693,12.117H6.307a1.75,1.75,0,0,0-1.75,1.75V92.605a1.751,1.751,0,0,0,1.75,1.75H54.275v8.981H46.763a1.75,1.75,0,1,0,0,3.5H81.237a1.75,1.75,0,0,0,0-3.5H73.725V94.355H88.066v17.778a3.755,3.755,0,0,0,3.75,3.75H108.4a3.754,3.754,0,0,0,3.75-3.75V94.355h9.539a1.75,1.75,0,0,0,1.75-1.75V13.867A1.749,1.749,0,0,0,121.693,12.117Zm-1.75,3.5V81.323h-7.789V73.077a3.754,3.754,0,0,0-3.75-3.75H91.816a3.755,3.755,0,0,0-3.75,3.75v8.246H8.057V15.617ZM70.225,103.336H57.775V94.355h12.45ZM8.057,90.855V84.823H88.066v6.032Zm100.6,21.278a.25.25,0,0,1-.25.25H91.816a.251.251,0,0,1-.25-.25V73.077a.251.251,0,0,1,.25-.25H108.4a.25.25,0,0,1,.25.25Zm3.5-21.278V84.823h7.789v6.032Z"/>
    <path d="M100.11,94.381a6.228,6.228,0,1,0,6.228,6.228A6.235,6.235,0,0,0,100.11,94.381Zm0,8.955a2.728,2.728,0,1,1,2.728-2.727A2.73,2.73,0,0,1,100.11,103.336Z"/>
    <path d="M95.633,81.874h1.421a1.75,1.75,0,0,0,0-3.5H95.633a1.75,1.75,0,0,0,0,3.5Z"/>
    <path d="M104.588,78.374h-1.42a1.75,1.75,0,0,0,0,3.5h1.42a1.75,1.75,0,0,0,0-3.5Z"/>
    <path d="M95.633,89.874h1.421a1.75,1.75,0,0,0,0-3.5H95.633a1.75,1.75,0,0,0,0,3.5Z"/>
    <path d="M104.588,86.374h-1.42a1.75,1.75,0,0,0,0,3.5h1.42a1.75,1.75,0,0,0,0-3.5Z"/>
  </g>
</svg>
