<svg xmlns="http://www.w3.org/2000/svg" width="128" height="128" viewBox="0 0 128 128">
  <title>TELEPHONE</title>
  <g>
    <path d="M82.52,123.442a33.1,33.1,0,0,1-12.81-2.573c-9.066-3.815-22.852-11.342-37.044-25.534S10.946,67.356,7.131,58.29A33.148,33.148,0,0,1,4.674,42.726h0L6.448,21.572a14.3,14.3,0,0,1,4.134-8.907l5.759-5.76a8.027,8.027,0,0,1,11.339,0L51.826,31.052a8.018,8.018,0,0,1,0,11.339L44.636,49.58a14.168,14.168,0,0,1-4.781,3.156l-4.719,1.9A80.34,80.34,0,0,0,50.545,77.455,80.3,80.3,0,0,0,73.369,92.864l1.895-4.72a14.183,14.183,0,0,1,3.156-4.781l7.19-7.189a8.03,8.03,0,0,1,11.338,0L121.1,100.32a8.026,8.026,0,0,1,0,11.338l-5.76,5.76a14.3,14.3,0,0,1-8.908,4.135l-21.153,1.774Q83.9,123.441,82.52,123.442ZM8.161,43.019a29.646,29.646,0,0,0,2.2,13.914C14.051,65.71,21.348,79.068,35.14,92.86s27.15,21.089,35.927,24.783a29.581,29.581,0,0,0,13.915,2.2l21.153-1.774a10.79,10.79,0,0,0,6.725-3.122l5.76-5.759a4.524,4.524,0,0,0,0-6.389L94.474,78.648a4.527,4.527,0,0,0-6.39,0L80.9,85.839a10.7,10.7,0,0,0-2.383,3.608l-2.561,6.38a1.75,1.75,0,0,1-2.255.98A82.411,82.411,0,0,1,48.071,79.93,82.427,82.427,0,0,1,31.193,54.305a1.75,1.75,0,0,1,.98-2.256l6.379-2.561a10.684,10.684,0,0,0,3.609-2.383l7.191-7.189a4.519,4.519,0,0,0,0-6.39L25.206,9.38a4.525,4.525,0,0,0-6.39,0l-5.759,5.76a10.8,10.8,0,0,0-3.122,6.725Z"/>
    <path d="M81.405,62.405a1.75,1.75,0,0,1-1.75-1.75,12.324,12.324,0,0,0-12.31-12.31,1.75,1.75,0,0,1,0-3.5,15.828,15.828,0,0,1,15.81,15.81A1.749,1.749,0,0,1,81.405,62.405Z"/>
    <path d="M91.547,62.405a1.75,1.75,0,0,1-1.75-1.75A22.478,22.478,0,0,0,67.345,38.2a1.75,1.75,0,0,1,0-3.5A25.981,25.981,0,0,1,93.3,60.655,1.749,1.749,0,0,1,91.547,62.405Z"/>
    <path d="M101.689,62.405a1.749,1.749,0,0,1-1.749-1.75A32.633,32.633,0,0,0,67.345,28.06a1.75,1.75,0,0,1,0-3.5,36.135,36.135,0,0,1,36.094,36.1A1.749,1.749,0,0,1,101.689,62.405Z"/>
    <path d="M111.831,62.405a1.75,1.75,0,0,1-1.75-1.75A42.785,42.785,0,0,0,67.345,17.919a1.75,1.75,0,0,1,0-3.5,46.288,46.288,0,0,1,46.236,46.236A1.749,1.749,0,0,1,111.831,62.405Z"/>
  </g>
</svg>
