<svg xmlns="http://www.w3.org/2000/svg" width="128" height="128" viewBox="0 0 128 128">
  <title>TERRACE</title>
  <g>
    <path d="M123.6,27.023,65.372,2.528a3.536,3.536,0,0,0-2.741,0L4.4,27.024A3.509,3.509,0,0,0,2.25,30.261v4.428A3.521,3.521,0,0,0,5.771,38.2h53.1V76.521H44.574V73.667A6.808,6.808,0,0,0,49.625,67.1V62.865A2.568,2.568,0,0,0,47.06,60.3H38.587a2.568,2.568,0,0,0-2.565,2.565V67.1a6.807,6.807,0,0,0,5.052,6.565v2.854H31.815A4.217,4.217,0,0,0,27.6,80.733v2.833a4.217,4.217,0,0,0,4.212,4.213H58.868v28.062l-5.457,5.228a2.72,2.72,0,0,0,1.881,4.681H72.708a2.72,2.72,0,0,0,1.881-4.681l-5.456-5.228V87.779H96.185a4.216,4.216,0,0,0,4.212-4.213V80.733a4.216,4.216,0,0,0-4.212-4.212H86.927V73.667A6.808,6.808,0,0,0,91.978,67.1V62.865A2.568,2.568,0,0,0,89.413,60.3H80.94a2.567,2.567,0,0,0-2.565,2.565V67.1a6.807,6.807,0,0,0,5.052,6.565v2.854H69.133V38.2h53.1a3.521,3.521,0,0,0,3.521-3.513V30.261A3.508,3.508,0,0,0,123.6,27.023ZM39.522,67.1V63.8h6.6v3.3a3.3,3.3,0,0,1-6.6,0Zm42.353,0V63.8h6.6v3.3a3.3,3.3,0,0,1-6.6,0ZM57.238,122.25l4.083-3.912H66.68l4.082,3.912Zm8.395-7.412H62.368V87.779h3.265ZM96.9,80.733v2.833a.713.713,0,0,1-.712.713H31.815a.713.713,0,0,1-.712-.713V80.733a.713.713,0,0,1,.712-.712h64.37A.712.712,0,0,1,96.9,80.733ZM82.65,34.7l-37.29,0V30.88a3.089,3.089,0,0,1,.689-1.943L64,6.78,81.962,28.946a3.1,3.1,0,0,1,.688,1.945Zm-76.9-.009V30.261L58.423,8.1,43.33,26.733a6.6,6.6,0,0,0-1.47,4.147v3.813ZM65.633,76.52H62.368V38.2h3.265Zm56.6-41.818-36.079,0V30.891a6.6,6.6,0,0,0-1.469-4.148L69.567,8.091l52.683,22.17Z"/>
    <path d="M36.361,94.641H13.848L11.989,68.563a4.407,4.407,0,0,0-4.38-4.078H5.723A3.477,3.477,0,0,0,2.25,67.958v33.909a3.349,3.349,0,0,0,2.87,3.3l.806,16.356a4.44,4.44,0,0,0,8.869,0l.8-16.307H28.057l.8,16.307a4.44,4.44,0,0,0,8.869,0l.806-16.356a3.349,3.349,0,0,0,2.87-3.3V99.685A5.049,5.049,0,0,0,36.361,94.641Zm1.544,5.044v2.036H5.75v-3.58H36.361A1.546,1.546,0,0,1,37.905,99.685Zm-30.3-31.7a.894.894,0,0,1,.889.828l1.841,25.828H5.749L5.723,67.985Zm3.69,53.371a.94.94,0,0,1-1.877,0l-.795-16.135h3.467Zm22.934,0a.94.94,0,0,1-1.877,0l-.8-16.135h3.467Z"/>
    <path d="M122.277,64.485h-1.886a4.407,4.407,0,0,0-4.38,4.079l-1.859,26.077H91.64A5.049,5.049,0,0,0,86.6,99.685v2.182a3.348,3.348,0,0,0,2.87,3.3l.806,16.356a4.44,4.44,0,0,0,8.87,0l.8-16.307H112.4l.8,16.307a4.44,4.44,0,0,0,8.869,0l.805-16.356a3.347,3.347,0,0,0,2.871-3.3V67.958A3.477,3.477,0,0,0,122.277,64.485ZM119.5,68.813a.9.9,0,0,1,.89-.828l1.859-.027V94.641h-4.59ZM90.1,99.685a1.546,1.546,0,0,1,1.545-1.544h30.61v3.58H90.1Zm5.55,21.67a.94.94,0,0,1-1.877,0l-.8-16.135h3.467Zm22.933,0a.94.94,0,0,1-1.877,0l-.8-16.135h3.468Z"/>
  </g>
</svg>
