<svg xmlns="http://www.w3.org/2000/svg" width="128" height="128" viewBox="0 0 128 128">
  <title>TOURIST</title>
  <g>
    <path d="M97.82,72.445l-20.734-6.1A31.446,31.446,0,0,0,85.228,54.02l2.211-.767a8.719,8.719,0,0,0,5.791-7.01l.192-1.319a5.918,5.918,0,0,0-5.856-6.769H87.36V36.68a18.526,18.526,0,0,0,3.159.26,11.639,11.639,0,0,0,9.749-5.584,1.748,1.748,0,0,0-.588-2.338l-12.32-7.8V14.307a9.761,9.761,0,0,0-9.75-9.75H50.39a9.761,9.761,0,0,0-9.75,9.75V21.22l-12.32,7.8a1.748,1.748,0,0,0-.588,2.338,11.64,11.64,0,0,0,9.75,5.584,18.523,18.523,0,0,0,3.158-.26v1.475h-.206a5.917,5.917,0,0,0-5.856,6.769l.191,1.319a8.722,8.722,0,0,0,5.792,7.01l2.21.767a31.447,31.447,0,0,0,8.143,12.328l-20.734,6.1a13.827,13.827,0,0,0-9.871,13.192v36.056a1.75,1.75,0,1,0,3.5,0V85.637A10.308,10.308,0,0,1,31.167,75.8l14.826-4.36,4.519,27.639H48.426a1.749,1.749,0,0,0-1.75,1.75v20.861a1.749,1.749,0,0,0,1.75,1.75H79.574a1.749,1.749,0,0,0,1.75-1.75V100.832a1.749,1.749,0,0,0-1.75-1.75H77.488l4.518-27.639L96.832,75.8a10.306,10.306,0,0,1,7.358,9.834v36.056a1.75,1.75,0,0,0,3.5,0V85.637A13.826,13.826,0,0,0,97.82,72.445ZM89.394,42.491a2.388,2.388,0,0,1,.565,1.93l-.191,1.319a5.228,5.228,0,0,1-3.337,4.147,38.885,38.885,0,0,0,.919-8.232h.216A2.383,2.383,0,0,1,89.394,42.491Zm-39-34.434H77.61a6.256,6.256,0,0,1,6.25,6.25v6.127H44.14V14.307A6.256,6.256,0,0,1,50.39,8.057ZM31.81,30.95,42.9,23.934H85.1L96.188,30.95a7.777,7.777,0,0,1-5.669,2.49,13.7,13.7,0,0,1-7-1.808,13.953,13.953,0,0,0-6.888-1.873,11.57,11.57,0,0,0-6.7,1.988A9.764,9.764,0,0,1,64,33.44a9.77,9.77,0,0,1-5.937-1.693,11.563,11.563,0,0,0-6.7-1.988,13.966,13.966,0,0,0-6.889,1.873,13.689,13.689,0,0,1-7,1.808A7.791,7.791,0,0,1,31.81,30.95Zm6.423,14.79-.192-1.319a2.418,2.418,0,0,1,2.393-2.766h.216a38.885,38.885,0,0,0,.919,8.232A5.227,5.227,0,0,1,38.233,45.74Zm5.907-4.433V35.653c.679-.288,1.3-.593,1.9-.888a10.622,10.622,0,0,1,5.328-1.506,8.162,8.162,0,0,1,4.9,1.494A13.124,13.124,0,0,0,64,36.94a13.121,13.121,0,0,0,7.729-2.187,8.162,8.162,0,0,1,4.9-1.494,10.632,10.632,0,0,1,5.329,1.506c.594.3,1.219.6,1.9.888v5.654c0,12.968-6.219,20.434-11.438,24.414a13.92,13.92,0,0,1-16.844,0C50.36,61.741,44.14,54.274,44.14,41.307Zm33.684,78.636H50.176V102.582h6.747a1.748,1.748,0,0,0,1.625-1.1l1.158-2.9h8.587l1.158,2.9a1.749,1.749,0,0,0,1.625,1.1h6.748ZM73.941,99.082H72.262l-1.159-2.9a1.749,1.749,0,0,0-1.625-1.1H58.521a1.75,1.75,0,0,0-1.625,1.1l-1.158,2.9H54.059L49.377,70.448l4.828-1.42a17.356,17.356,0,0,0,19.59,0l4.827,1.42Z"/>
    <path d="M39,93.811a1.751,1.751,0,0,0-1.75,1.75v26.132a1.75,1.75,0,0,0,3.5,0V95.561A1.751,1.751,0,0,0,39,93.811Z"/>
    <path d="M89,93.811a1.75,1.75,0,0,0-1.75,1.75v26.132a1.75,1.75,0,0,0,3.5,0V95.561A1.75,1.75,0,0,0,89,93.811Z"/>
    <path d="M72,44.533a2.314,2.314,0,1,0-2.314-2.314A2.313,2.313,0,0,0,72,44.533Z"/>
    <path d="M56,44.533a2.314,2.314,0,1,0-2.314-2.314A2.313,2.313,0,0,0,56,44.533Z"/>
    <path d="M55.989,54.78a1.751,1.751,0,0,0-.087,2.474,12.069,12.069,0,0,0,16.2,0,1.75,1.75,0,0,0-2.549-2.4,8.635,8.635,0,0,1-11.1,0A1.752,1.752,0,0,0,55.989,54.78Z"/>
    <path d="M64,104.034a7.229,7.229,0,1,0,7.228,7.229A7.237,7.237,0,0,0,64,104.034Zm0,10.958a3.729,3.729,0,1,1,3.728-3.729A3.733,3.733,0,0,1,64,114.992Z"/>
  </g>
</svg>
