<svg xmlns="http://www.w3.org/2000/svg" width="128" height="128" viewBox="0 0 128 128">
  <title>TOWEL</title>
  <path d="M12.36,85.96H31.428v30.687a9.113,9.113,0,0,0,9.1,9.1H72.767a9.106,9.106,0,0,0,9.082-8.71h5.623a9.11,9.11,0,0,0,9.1-9.1V85.96H115.64A10.09,10.09,0,0,0,121.4,67.583L69.376,31.451a.3.3,0,0,1-.126-.241V25.48A5.251,5.251,0,0,0,64,20.23a3.744,3.744,0,1,1,3.213-5.662,5.249,5.249,0,0,0,9.051-.18A5.145,5.145,0,0,0,76.2,9.142,14.212,14.212,0,0,0,63.079,2.281,14.407,14.407,0,0,0,49.782,15.7,14.286,14.286,0,0,0,58.75,29.727V31.21a.3.3,0,0,1-.128.243L6.6,67.583C-1.524,73.226,2.483,85.96,12.36,85.96ZM34.928,74.412a5.609,5.609,0,0,1,5.6-5.6H80.3a9.2,9.2,0,0,0-1.932,5.6V101.4H34.928Zm0,30.485H78.37v3.735H34.928ZM81.872,74.41a5.6,5.6,0,0,1,11.2,0v1.05h-11.2Zm5.628-9.1-.028,0H40.531a9.113,9.113,0,0,0-9.1,9.1V75.46H13.65L63.834,40.614a.3.3,0,0,1,.338,0L114.347,75.46H96.572V74.41A9.085,9.085,0,0,0,87.5,65.311Zm-9.131,51.336a5.61,5.61,0,0,1-5.6,5.6H40.531a5.609,5.609,0,0,1-5.6-5.6v-4.515H78.37C78.37,112.235,78.369,116.947,78.369,116.647Zm14.7-8.707a5.606,5.606,0,0,1-5.6,5.6h-5.6V85.96h11.2ZM8.6,70.458,60.616,34.329A3.792,3.792,0,0,0,62.25,31.21V29.04a2.543,2.543,0,0,0-1.718-2.387A10.739,10.739,0,1,1,73.2,10.95a1.674,1.674,0,0,1,.017,1.717,1.75,1.75,0,0,1-3,.1,7.286,7.286,0,0,0-7.755-3.358A7.244,7.244,0,0,0,64,23.73a1.76,1.76,0,0,1,1.75,1.75v5.73a3.792,3.792,0,0,0,1.632,3.118l52.02,36.13a6.589,6.589,0,0,1-3.762,12H81.872v-3.5H115.64a3.093,3.093,0,0,0,1.768-5.638L66.174,37.747a3.8,3.8,0,0,0-4.342,0L10.55,73.353a3.092,3.092,0,0,0,1.81,5.607H31.428v3.5H12.36A6.589,6.589,0,0,1,8.6,70.458Z"/>
</svg>
