<svg xmlns="http://www.w3.org/2000/svg" width="128" height="128" viewBox="0 0 128 128">
  <title>TROLLEY</title>
  <path d="M121.693,90.028h-8.84a5.724,5.724,0,0,0,.461-2.255V46.707a5.762,5.762,0,0,0-5.755-5.755H87.678V33.6a1.75,1.75,0,0,0-1.75-1.75H68.957a1.749,1.749,0,0,0-1.75,1.75v7.354H47.326a5.761,5.761,0,0,0-5.755,5.755V87.773a5.724,5.724,0,0,0,.461,2.255H34.941V75.907a1.749,1.749,0,0,0-1.75-1.75H31.48V24.745A8.74,8.74,0,0,0,26.9,17.05l-.07-.038.815-1.505a1.751,1.751,0,0,0-.706-2.372L12.249,5.185a5.212,5.212,0,0,0-4.961,9.168L21.972,22.3a1.75,1.75,0,0,0,2.372-.706l.815-1.5.07.038a5.245,5.245,0,0,1,2.751,4.617V74.157H26.269a1.749,1.749,0,0,0-1.75,1.75v25.21a1.749,1.749,0,0,0,1.75,1.75H31.2l2.133,4.717a9.282,9.282,0,1,0,13.056,0l2.133-4.717H99.441l2.133,4.717a9.283,9.283,0,1,0,13.057,0l2.133-4.717h4.929a1.749,1.749,0,0,0,1.75-1.75V91.778A1.749,1.749,0,0,0,121.693,90.028ZM8.954,11.274a1.712,1.712,0,0,1,1.63-3.01L23.729,15.38,22.1,18.39ZM70.707,35.348H84.178v5.6H70.707Zm-23.381,9.1h60.233a2.257,2.257,0,0,1,2.255,2.255V59.44H84.125V56.864a1.749,1.749,0,0,0-1.75-1.75H72.51a1.749,1.749,0,0,0-1.75,1.75V59.44H45.071V46.707A2.257,2.257,0,0,1,47.326,44.452ZM74.26,58.614h6.365v5.15H74.26ZM45.071,87.773V62.94H70.76v2.574a1.75,1.75,0,0,0,1.75,1.75h9.865a1.75,1.75,0,0,0,1.75-1.75V62.94h25.689V87.773a2.257,2.257,0,0,1-2.255,2.255H47.326A2.257,2.257,0,0,1,45.071,87.773ZM28.019,90.028V77.657h3.422V90.028Zm17.622,24.133a5.782,5.782,0,1,1-10.7-3.018l1.5,3.32a3.749,3.749,0,0,0,6.834,0l1.5-3.32A5.781,5.781,0,0,1,45.641,114.161Zm-5.554-1.139a.25.25,0,0,1-.455,0l-4.593-10.155h9.64Zm73.8,1.139a5.783,5.783,0,1,1-10.7-3.018l1.5,3.32a3.749,3.749,0,0,0,6.834,0l1.5-3.32A5.773,5.773,0,0,1,113.885,114.161Zm-5.555-1.139a.25.25,0,0,1-.455,0l-4.593-10.155h9.641Zm11.613-13.655H28.019V93.528h91.924Z"/>
</svg>
