<svg xmlns="http://www.w3.org/2000/svg" width="128" height="128" viewBox="0 0 128 128">
  <title>VIP</title>
  <g>
    <path d="M121.25,19.074H6.75A6.758,6.758,0,0,0,0,25.824v76.352a6.758,6.758,0,0,0,6.75,6.75h114.5a6.758,6.758,0,0,0,6.75-6.75V25.824A6.758,6.758,0,0,0,121.25,19.074Zm-114.5,3.5h114.5a3.254,3.254,0,0,1,3.25,3.25v7.993H3.5V25.824A3.254,3.254,0,0,1,6.75,22.574ZM124.5,44.17H3.5V37.317h121Zm-3.25,61.256H6.75a3.254,3.254,0,0,1-3.25-3.25V47.67h121v54.506A3.254,3.254,0,0,1,121.25,105.426Z"/>
    <path d="M92.062,63.5H80.031a1.75,1.75,0,0,0-1.75,1.75V90.614a1.75,1.75,0,0,0,3.5,0V79.684H92.062a5.757,5.757,0,0,0,5.75-5.75V69.253A5.756,5.756,0,0,0,92.062,63.5Zm2.25,10.431a2.253,2.253,0,0,1-2.25,2.25H81.781V67H92.062a2.253,2.253,0,0,1,2.25,2.25Z"/>
    <path d="M48.5,63.584a1.753,1.753,0,0,0-2.2,1.142L39.953,84.808,33.606,64.726a1.75,1.75,0,1,0-3.337,1.054l8.016,25.362a1.75,1.75,0,0,0,3.337,0L49.637,65.78A1.75,1.75,0,0,0,48.5,63.584Z"/>
    <path d="M68.344,67a1.75,1.75,0,0,0,0-3.5H59.656a1.75,1.75,0,1,0,0,3.5H62.25V88.864H59.656a1.75,1.75,0,0,0,0,3.5h8.688a1.75,1.75,0,0,0,0-3.5H65.75V67Z"/>
    <path d="M118.25,63.86a6.946,6.946,0,0,1-6.938-6.937,1.749,1.749,0,0,0-1.75-1.75H18.437a1.75,1.75,0,0,0-1.75,1.75A6.945,6.945,0,0,1,9.75,63.86,1.751,1.751,0,0,0,8,65.61V90.488a1.75,1.75,0,0,0,1.75,1.75,6.946,6.946,0,0,1,6.937,6.938,1.75,1.75,0,0,0,1.75,1.75h91.125a1.749,1.749,0,0,0,1.75-1.75,6.947,6.947,0,0,1,6.938-6.938,1.75,1.75,0,0,0,1.75-1.75V65.61A1.751,1.751,0,0,0,118.25,63.86ZM116.5,88.885a10.464,10.464,0,0,0-8.541,8.541H20.041A10.464,10.464,0,0,0,11.5,88.885V67.214a10.465,10.465,0,0,0,8.541-8.541h87.918a10.465,10.465,0,0,0,8.541,8.541Z"/>
  </g>
</svg>
